<?xml version="1.0" encoding="utf-8"?>
<!-- Generator: Adobe Illustrator 15.1.0, SVG Export Plug-In . SVG Version: 6.00 Build 0)  -->
<!DOCTYPE svg PUBLIC "-//W3C//DTD SVG 1.1//EN" "http://www.w3.org/Graphics/SVG/1.1/DTD/svg11.dtd" [
	<!ENTITY ns_extend "http://ns.adobe.com/Extensibility/1.0/">
	<!ENTITY ns_ai "http://ns.adobe.com/AdobeIllustrator/10.0/">
	<!ENTITY ns_graphs "http://ns.adobe.com/Graphs/1.0/">
	<!ENTITY ns_vars "http://ns.adobe.com/Variables/1.0/">
	<!ENTITY ns_imrep "http://ns.adobe.com/ImageReplacement/1.0/">
	<!ENTITY ns_sfw "http://ns.adobe.com/SaveForWeb/1.0/">
	<!ENTITY ns_custom "http://ns.adobe.com/GenericCustomNamespace/1.0/">
	<!ENTITY ns_adobe_xpath "http://ns.adobe.com/XPath/1.0/">
]>
<svg version="1.1" id="Livello_1" xmlns:x="&ns_extend;" xmlns:i="&ns_ai;" xmlns:graph="&ns_graphs;"
	 xmlns="http://www.w3.org/2000/svg" xmlns:xlink="http://www.w3.org/1999/xlink" x="0px" y="0px" width="294px" height="123.464px"
	 viewBox="0 0 294 123.464" enable-background="new 0 0 294 123.464" xml:space="preserve">
<metadata>
	<sfw  xmlns="&ns_sfw;">
		<slices></slices>
		<sliceSourceBounds  height="123.464" width="294" y="-337.184" x="-56.091" bottomLeftOrigin="true"></sliceSourceBounds>
	</sfw>
</metadata>
<g>
	<path fill="#FFFFFF" d="M291.815,54.414c-0.081-1.65-0.639-2.892-1.066-2.892c-0.003,0-0.003,0-0.005,0
		c-1.139,0.154-1.371,1.11-1.413,1.479l-0.009,0.09c-0.536,13.587-11.728,22.969-18.372,27.363l-4.54,3.001l1.222-5.304
		c1.255-5.447,1.989-10.693,2.181-15.583c0.114-3.155-0.599-5.578-2.124-7.201c-1.422-1.515-3.536-2.321-6.286-2.394
		c-0.183-0.006-0.363-0.009-0.546-0.009c-5.038,0-8.787,2.328-11.139,6.92l-2.849,5.559l-1.219-6.125
		c-0.286-1.438-0.866-2.69-1.725-3.724c-1.184-1.428-2.83-2.153-4.892-2.153c-0.291,0-0.591,0.017-0.889,0.042
		c-1.736,0.162-4.011,1.534-7.138,4.301l-7.172,6.497l3.497,4.101l5.424-4.09l-1.795,6.252c-0.234,0.819-0.54,1.861-0.934,3.2
		c-0.109,0.366-0.463,1.63-0.463,1.63l-0.413,0.408c-0.956,0.945-2.029,1.915-3.191,2.879c-1.421,1.181-2.575,2.008-3.435,2.456
		l-2.02,0.568l-1.126-2.115c-0.078-0.439-0.111-0.962-0.1-1.522c0.007-0.99,0.563-4.737,1.657-11.141l-0.048,0.043l0.768-4.246
		l0.141-0.815l0.006,0.008l0.356-1.987c1.954-11.004,2.97-18.073,3.105-21.593c0.154-4.962-1.341-10.937-9.353-11.214
		c-0.173-0.007-0.348-0.01-0.519-0.01c-6.425,0-11.121,3.757-13.959,11.165l-0.747,1.949l1.956-0.737
		c0.945-0.356,1.894-0.535,2.896-0.547l0.52-0.006l0.466,0.229c0.44,0.216,0.917,0.595,1.399,1.109
		c1.338,1.399,1.903,3.711,1.677,6.872l-0.019,0.168c-0.812,5.428-1.594,10.817-2.315,16.022c-0.776,5.314-1.38,9.856-1.798,13.503
		l-0.173,0.958l-0.721,0.56c-2.805,2.185-4.435,2.643-5.31,2.643c-0.28,0-0.479-0.024-0.606-0.042l-1.302-0.181l-0.444-1.236
		c-0.212-0.592-0.301-1.375-0.261-2.33c0.198-4.508,0.725-8.579,1.59-12.171c0.327-1.179,0.918-3.021,1.808-5.632l0.132-0.38
		l-0.188-0.355c-0.729-1.374-2.316-2.513-4.857-3.482c-2.397-0.917-5.145-1.383-8.168-1.383c-1.318,0-2.655,0.106-3.981,0.316
		c-7.654,1.184-13.932,4.886-18.657,11.009c-3.031,3.918-4.97,8.053-5.762,12.29l-0.172,0.92l-0.787,0.508
		c-2.734,1.763-5.244,2.656-7.458,2.656c-1.131,0-2.033-0.157-2.681-0.469l-0.965-0.465l-0.22-1.047
		c-0.051-0.24-0.07-0.503-0.061-0.805c0.113-3.715,0.699-8.543,1.741-14.347l0.321-1.791h6.437c0.986,0,1.651-0.551,1.736-1.438
		l0.01-0.12l0.896-4.273c0.151-0.762-0.084-1.248-0.306-1.519c-0.23-0.282-0.683-0.617-1.528-0.617h-5.643
		c0,0,1.799-8.568,2.259-10.786c0.748-3.416,0.214-4.861-0.17-5.42c-0.318-0.461-0.731-0.586-0.824-0.604l-0.293-0.033
		c-1.23,0-2.722,0.34-4.432,1.01l-2.39,0.937c-3.889,1.894-5.5,4.779-6.156,7.061l-1.307,7.835h-3.37
		c-0.989,0.001-1.673,0.544-1.843,1.528l-0.809,4.415l-4.168,0.223c-0.149-1.492-0.731-3.799-1.485-4.895
		c-1.108-1.607-2.768-2.422-4.934-2.422c-0.274,0-0.561,0.016-0.851,0.042c-1.664,0.161-3.904,1.531-7.024,4.291l-6.928,6.339
		l-1.306-0.589c-1.801-0.813-4.03-1.226-6.625-1.226c-2.949,0-5.678,0.532-7.312,0.931l-0.216,0.216h-0.658
		c-0.18,0.033-0.354,0.049-0.528,0.049c-0.888,0-1.679-0.439-2.119-1.173c-0.234-0.391-0.428-0.96-0.317-1.706l-0.133-0.224
		l0.598-1.092c4.14-7.563,7.448-17.526,4.316-22.812c-1.75-2.952-5.572-4.45-11.359-4.45c-9.388,0-16.592,3.25-21.413,9.659
		l-3.43,4.561l-0.475-5.686c-0.306-3.663-1.938-8.534-12.539-8.534c-8.247,0-14.826,2.509-19.555,7.458
		c-9.244,9.671-8.633,25.647-8.629,25.757c0.018,0.259,1.862,26.118,6.626,47.388c0.018,0.069,0.059,0.151,0.142,0.159
		c0.064,0,0.132-0.008,0.227-0.022c5.697-0.844,20.275-3.543,32.555-10.352l2.651-1.47l0.542,2.981
		c0.606,3.339,1.181,6.209,1.739,8.703c0.017,0.069,0.059,0.151,0.142,0.159c0.063,0,0.132-0.008,0.227-0.022
		c8.486-1.259,36.986-6.676,47.398-23.546l2.198-3.562l1.65,3.848c0.33,0.769,0.666,1.348,1.055,1.82
		c1.304,1.574,3.169,2.373,5.546,2.373c4.489,0,9.024-1.851,13.48-5.499l2.28-1.866l1.111,2.729c1.56,3.831,5.647,4.636,8.801,4.636
		c4.633,0,9.634-1.918,14.864-5.698l1.98-1.432l1.193,2.133c1.699,3.045,4.56,4.622,8.495,4.691l0.407,0.006
		c2.666,0,5.646-0.713,8.852-2.117c1.22-0.538,2.367-1.127,3.408-1.75l2.002-1.195l1.053,2.079c0.254,0.501,0.572,0.952,0.95,1.346
		c1.229,1.285,3.079,1.938,5.501,1.938c3.973,0,7.994-1.455,11.954-4.324l2.019-1.462l1.175,2.196
		c0.23,0.433,0.506,0.844,0.814,1.218c1.298,1.573,3.164,2.372,5.547,2.372c4.522,0,9.091-1.878,13.576-5.579l2.153-1.778
		l1.195,2.524c0.229,0.483,0.505,0.935,0.806,1.327c1.443,1.846,3.614,2.744,6.636,2.744c0.168,0,0.339-0.003,0.51-0.009
		l4.314,0.597l-3.616,3.026c-0.846,0.531-1.08,1.438-1.774,1.943c-4.806,3.46-7.428,7.269-7.79,11.327
		c-0.314,3.385,0.373,6.03,2.043,7.864c1.816,1.992,4.788,3.004,8.834,3.004c5.155,0,10.153-3.13,14.853-9.299
		c3.522-4.636,6.676-10.78,9.373-18.261l0.309-0.858l0.83-0.38C287.532,81.231,292.084,65.596,291.815,54.414z M134.915,65.096
		c-0.633,3.768-1.156,7.115-1.554,9.948l-0.104,0.745l-0.542,0.52c-0.803,0.773-1.69,1.564-2.636,2.351
		c-1.4,1.167-2.553,1.994-3.427,2.456l-2.372,0.91l-0.784-2.43c-0.07-0.37-0.105-0.796-0.105-1.266v-0.172l0.028-0.171
		c0.995-6.216,1.936-11.416,2.796-15.457l0.01-0.046c0.016-0.148,0.041-0.396,0.049-0.502l4.229-0.523
		c0.081,0.241,0.202,0.411,0.265,0.488c0.23,0.28,0.683,0.616,1.53,0.617h3.041L134.915,65.096z M184.67,73.974
		c-3.997,5.81-9.424,9.016-12.129,7.155s-0.767-7.367,3.227-13.177c3.991-5.807,8.531-9.719,11.236-7.861
		C189.707,61.952,188.658,68.167,184.67,73.974z M250.836,75.465c-1.54,1.768-2.973,2.993-4.258,3.642l-3.154,1.591l0.005-3.705
		c0.066-1.234,0.503-3.822,1.302-7.687l0.424-2.172l4.198-1.804c0.956-0.413,1.921-0.622,2.95-0.634l1.077-0.013l0.662,0.848
		c0.458,0.587,0.656,1.25,0.603,2.055C254.582,69.992,253.299,72.644,250.836,75.465z"/>
</g>
<g>
	<linearGradient id="SVGID_1_" gradientUnits="userSpaceOnUse" x1="197.0361" y1="29.9888" x2="197.0361" y2="118.7573">
		<stop  offset="0" style="stop-color:#FFFFFF"/>
		<stop  offset="0.3244" style="stop-color:#DFE9EE"/>
		<stop  offset="0.7333" style="stop-color:#C0D3DD"/>
		<stop  offset="1" style="stop-color:#B5CBD6"/>
	</linearGradient>
	<path fill="url(#SVGID_1_)" d="M278.703,74.677c-7.068,7.746-15.968,11.949-16.744,12.306c2.434-8.033,3.782-15.53,4.055-22.484
		c0.2-5.615-2.302-8.489-7.509-8.627c-2.676-0.087-4.956,0.506-6.851,1.768c-1.078,1.558-1.933,3.494-2.562,5.819
		c1.097-0.474,2.232-0.71,3.401-0.71c0.958,0,1.75,0.386,2.367,1.166c0.62,0.776,0.893,1.675,0.826,2.688
		c-0.012,0.414-0.065,0.83-0.138,1.252l0.016-0.015c0,0-0.019,0.078-0.055,0.216c-0.194,0.986-0.557,2.001-1.094,3.038
		c-1.372,3.107-4.18,7.695-9.438,10.323c-0.943,0.611-1.837,0.968-2.685,1.087c-0.015,0.006-0.03,0.009-0.045,0.015l0.012-0.012
		c-0.197,0.027-0.396,0.054-0.584,0.054c-1.433-0.003-2.115-1.22-2.047-3.656c0.066-1.282,0.507-3.886,1.318-7.812
		c0.746-3.722,1.118-6.224,1.118-7.506c0-2.235-0.575-4.045-1.729-5.433c-1.148-1.387-2.805-1.978-4.969-1.777
		c-1.489,0.138-3.688,1.489-6.595,4.06c-1.133,1.025-2.263,2.05-3.396,3.075l2.203,2.583c1.891-1.42,3.041-2.13,3.448-2.13
		c1.286,0,1.894,0.881,1.828,2.637c0,0.138-0.608,2.269-1.825,6.392c-0.188,0.641-0.359,1.25-0.521,1.84
		c-0.848,0.878-1.881,2.025-2.969,2.969c-1.085,1.126-2.364,2.304-3.845,3.539c-2.436,2.029-4.126,3.044-5.072,3.044
		c-2.164,0-3.213-1.453-3.144-4.363c0-1.354,0.965-7.458,2.892-18.317c1.927-10.856,2.957-18.011,3.092-21.46
		c0.204-6.628-2.604-10.044-8.42-10.248c-2.99-0.096-5.576,0.656-7.772,2.242c-1.097,1.471-2.053,3.247-2.855,5.342
		c1.082-0.407,2.196-0.608,3.347-0.608c0.947,0,1.93,0.542,2.942,1.624c1.556,1.621,2.2,4.192,1.927,7.709
		c-0.812,5.415-1.588,10.79-2.334,16.133c-0.866,5.966-1.513,10.88-1.938,14.76c-0.243,0.836-2.967,2.966-2.967,2.966
		c-0.359,0.293-0.722,0.584-1.103,0.869c-2.436,1.896-4.398,2.843-5.888,2.843c-2.502-0.003-3.686-1.588-3.548-4.77
		c0.201-4.6,0.743-8.726,1.621-12.378c0.339-1.216,0.947-3.11,1.825-5.684c-0.605-1.147-2.062-2.163-4.363-3.042
		c-2.298-0.881-4.905-1.321-7.812-1.321c-1.285,0-2.571,0.105-3.856,0.306c-5.384,0.833-10.014,2.942-13.912,6.29
		c-0.398,0.458-0.8,0.908-1.181,1.396c-3.26,4.219-5.178,8.593-5.777,13.118c0,0-0.884,1.393-2.966,2.969
		c-0.276,0.192-0.534,0.39-0.818,0.578c-3.044,2.029-5.819,3.044-8.32,3.044c-3.317,0-4.939-1.25-4.872-3.754
		c0.135-4.327,0.878-10.008,2.234-17.043l0.879-4.743c0,0,1.486-0.024,2.484-0.009l5.519-0.003l0.048-0.32
		c0.132-0.674-0.174-1.016-0.917-1.016h-6.796c1.624-7.712,2.739-13.055,3.351-16.031c0.132-0.539-0.276-0.812-1.219-0.812
		c-1.76,0-4.06,0.746-6.901,2.232c-0.629,0.335-1.188,0.671-1.7,1.01c-0.141,0.297-0.253,0.593-0.303,0.89l0.569,6.937l-0.875,5.747
		h-4.282l-0.005,0.027h-2.578l-0.44,2.104c-0.136,0.68,0.167,1.016,0.912,1.019l4.159-0.003c-1.019,5.87-1.789,10.724-2.312,14.593
		c-0.865,0.872-1.841,1.777-2.934,2.708c-0.011,0.087-0.024,0.177-0.036,0.261c-1.003,1.016-2.15,2.067-3.47,3.164
		c-2.433,2.029-4.125,3.044-5.071,3.044c-2.167,0-3.214-1.453-3.146-4.363c1.013-6.358,1.961-11.602,2.841-15.728
		c0.271-2.436-0.118-4.414-1.166-5.936c-1.05-1.522-2.689-2.182-4.922-1.978c-1.42,0.135-3.586,1.486-6.495,4.057
		c-1.129,1.025-2.261,2.05-3.392,3.075l2.201,2.58c1.892-1.417,3.044-2.127,3.449-2.13c1.218,0.003,1.828,0.881,1.828,2.64
		c0,0.339-0.66,2.841-1.978,7.509c-1.321,4.668-2.017,8.117-2.083,10.35c-0.066,2.163,0.457,3.925,1.575,5.276
		c1.115,1.352,2.722,2.028,4.82,2.028c4.531,0,9.065-1.959,13.593-5.882c0.076-0.065,0.141-0.135,0.214-0.2
		c0.144-0.159,0.298-0.312,0.439-0.474c-0.002,0.021-0.002,0.042-0.003,0.063c1.062-0.977,2.462-2.05,3.367-3.102
		c-0.054,0.875-0.475,1.69-0.461,2.29c0.064,4.869,2.908,7.305,8.521,7.308c4.601-0.003,9.539-1.962,14.815-5.888
		c0.992-0.737,1.906-1.471,2.763-2.202c0.216,1.084,0.542,2.092,0.992,3.015c1.483,3.113,4.156,4.704,8.012,4.77
		c2.64,0.066,5.582-0.61,8.827-2.031c2.91-1.285,5.244-2.771,7.006-4.461c-0.204,4.534,1.891,6.795,6.289,6.795
		c4.531,0,9.061-1.959,13.598-5.885c0.527-0.461,1.027-0.935,1.519-1.417c-0.065,2.163,0.459,3.922,1.573,5.273
		c1.115,1.354,2.721,2.028,4.821,2.028c4.53,0,9.064-1.959,13.595-5.885c0.123-0.107,0.23-0.219,0.354-0.326
		c0.009-0.013,0.021-0.024,0.033-0.033v0.003c1.061-0.956,2.391-1.786,3.305-2.813c-0.081,2.609,0.078,4.482,1.184,5.909
		c1.43,1.83,3.806,2.604,7.135,2.334c3.938-0.27,7.877-1.723,11.814-4.363c1.633-1.081,4.579-2.648,6.074-4.069
		c-0.462,4.171-2.14,7.572-2.14,7.572c-14.479,4.705-21.568,12.369-21.568,12.369c-1.681,2.067-2.643,4.216-2.841,6.451
		c-0.607,6.562,2.703,9.844,9.942,9.844c3.254,0,6.434-1.337,9.537-3.994c0.537-0.614,1.07-1.268,1.601-1.966
		c3.691-4.86,7.659-13.954,10.422-21.916c0.778-0.342,1.482-0.749,2.22-1.103c0.117-0.312,0.063-0.162,0.006-0.003
		c6.904-3.038,12.187-5.702,16.208-9.352c5.226-5.783,7.641-9.969,8.572-20.81C285.384,64.21,282.097,71.566,278.703,74.677z
		 M182.656,76.367c-3.994,5.81-9.424,9.016-12.129,7.155c-2.703-1.861-1.657-8.075,2.337-13.885
		c3.991-5.807,9.423-9.01,12.126-7.152C187.696,64.345,186.647,70.56,182.656,76.367z M235.725,109.03
		c-1.229-5.214,14.428-13.685,14.428-13.685C247.409,101.018,236.954,114.247,235.725,109.03z"/>
	<linearGradient id="SVGID_2_" gradientUnits="userSpaceOnUse" x1="40.459" y1="35.6992" x2="40.459" y2="106.9087">
		<stop  offset="0" style="stop-color:#AFCC5F"/>
		<stop  offset="0.1357" style="stop-color:#A1C654"/>
		<stop  offset="0.4986" style="stop-color:#7DB73C"/>
		<stop  offset="0.7998" style="stop-color:#63AE2D"/>
		<stop  offset="1" style="stop-color:#58AB27"/>
	</linearGradient>
	<path fill="url(#SVGID_2_)" d="M21.115,105.995c-3.78-19.135-5.353-39.954-5.474-41.629c-0.027-1.025-0.223-14.59,7.457-22.587
		c3.835-3.994,9.034-5.987,15.878-6.08c3.53,0,7.837,1.912,8.976,4.726c1.849,4.569-2.947,13.256-5.417,16.516l-5.007,6.607
		c0,0-6.868,9.124,5.215,5.831h0.001l7.019-2.298c0.014-0.006,3.569-1.126,7.455-1.126c2.174,0,5.07,0.359,6.522,2.073
		c1.564,1.849,1.955,5.678,1.101,10.787c-3.039,17.948-29.221,25.431-42.119,28.046C21.593,107.095,21.232,106.405,21.115,105.995z"
		/>
	<linearGradient id="SVGID_3_" gradientUnits="userSpaceOnUse" x1="78.333" y1="35.6992" x2="78.333" y2="106.9087">
		<stop  offset="0" style="stop-color:#E85236"/>
		<stop  offset="0.3177" style="stop-color:#E53A29"/>
		<stop  offset="0.7321" style="stop-color:#E3161E"/>
		<stop  offset="1" style="stop-color:#E2001A"/>
	</linearGradient>
	<path fill="url(#SVGID_3_)" d="M102.697,78.814c-3.039,17.948-29.215,25.428-42.114,28.046c-0.006,0-0.009-0.003-0.015,0
		c-1.04,0.216-1.428-0.35-1.575-0.761c-0.288-1.45-0.522-2.912-0.785-4.375c6.12-4.806,10.818-11.018,12.173-19.021
		c3.215-19.216-8.817-21.089-16.854-20.319c0.181-4.249,1.278-14.203,7.427-20.606c3.835-3.994,9.034-5.987,15.878-6.08
		c3.53,0,7.837,1.912,8.976,4.726c1.849,4.569-2.947,13.256-5.417,16.516l-5.007,6.607c0,0-6.868,9.124,5.215,5.831H80.6
		l7.019-2.298c0.014-0.006,3.569-1.126,7.455-1.126c2.174,0,5.07,0.359,6.522,2.073C103.16,69.876,103.551,73.706,102.697,78.814z"
		/>
	<g>
		<g>
			<path fill-rule="evenodd" clip-rule="evenodd" fill="#4F8196" d="M104.059,111.397c0,0.39-0.046,0.746-0.129,1.055
				c-0.09,0.317-0.213,0.581-0.376,0.803c-0.16,0.222-0.363,0.39-0.595,0.51c-0.237,0.12-0.505,0.177-0.806,0.177
				c-0.144,0-0.282-0.015-0.414-0.045c-0.127-0.024-0.25-0.072-0.367-0.132c-0.114-0.063-0.232-0.141-0.346-0.237
				c-0.114-0.093-0.228-0.209-0.346-0.344v0.479c0,0.038-0.007,0.065-0.028,0.093c-0.02,0.023-0.048,0.042-0.088,0.06
				c-0.043,0.012-0.098,0.027-0.167,0.03c-0.072,0.009-0.153,0.015-0.251,0.015c-0.101,0-0.19-0.006-0.256-0.015
				c-0.066-0.003-0.12-0.019-0.163-0.03c-0.039-0.018-0.069-0.036-0.083-0.06c-0.021-0.027-0.027-0.055-0.027-0.093v-6.503
				c0-0.032,0.006-0.06,0.03-0.09c0.018-0.023,0.054-0.048,0.1-0.065c0.048-0.019,0.113-0.03,0.19-0.039
				c0.078-0.015,0.18-0.021,0.304-0.021c0.123,0,0.219,0.007,0.298,0.021c0.081,0.009,0.142,0.021,0.19,0.039
				c0.048,0.018,0.085,0.042,0.102,0.065c0.021,0.03,0.03,0.058,0.03,0.09v2.437c0.112-0.114,0.227-0.207,0.336-0.288
				c0.114-0.074,0.228-0.141,0.338-0.188c0.111-0.057,0.228-0.096,0.345-0.117c0.117-0.023,0.246-0.032,0.377-0.032
				c0.327,0,0.599,0.065,0.829,0.197c0.225,0.126,0.412,0.303,0.55,0.524c0.151,0.222,0.251,0.477,0.317,0.776
				C104.022,110.759,104.059,111.07,104.059,111.397z M102.763,111.487c0-0.188-0.011-0.371-0.041-0.549
				c-0.03-0.17-0.075-0.326-0.146-0.461c-0.067-0.135-0.159-0.243-0.271-0.32c-0.112-0.087-0.247-0.123-0.411-0.123
				c-0.087,0-0.17,0.009-0.244,0.033c-0.082,0.023-0.165,0.062-0.251,0.116c-0.083,0.061-0.169,0.129-0.258,0.219
				c-0.087,0.09-0.177,0.198-0.28,0.333v1.459c0.177,0.228,0.34,0.398,0.498,0.516c0.167,0.117,0.331,0.177,0.505,0.177
				c0.163,0,0.301-0.042,0.409-0.126c0.115-0.084,0.207-0.188,0.278-0.32c0.078-0.132,0.133-0.282,0.165-0.45
				C102.749,111.823,102.763,111.655,102.763,111.487z"/>
			<path fill-rule="evenodd" clip-rule="evenodd" fill="#4F8196" d="M109.123,111.328c0,0.153-0.035,0.258-0.105,0.336
				c-0.063,0.075-0.159,0.107-0.275,0.107h-2.688c0,0.189,0.022,0.36,0.066,0.516c0.046,0.153,0.12,0.279,0.216,0.39
				c0.1,0.104,0.222,0.188,0.373,0.243c0.154,0.06,0.34,0.087,0.556,0.087s0.408-0.019,0.571-0.049
				c0.169-0.032,0.309-0.065,0.423-0.104c0.124-0.039,0.226-0.072,0.307-0.102c0.076-0.036,0.141-0.051,0.19-0.051
				c0.032,0,0.056,0.009,0.078,0.021c0.018,0.012,0.034,0.03,0.048,0.06c0.012,0.03,0.022,0.072,0.025,0.129
				c0.004,0.052,0.009,0.117,0.009,0.204c0,0.069-0.004,0.132-0.006,0.186c-0.003,0.051-0.006,0.093-0.017,0.132
				c-0.006,0.03-0.015,0.066-0.025,0.09c-0.016,0.027-0.031,0.048-0.057,0.069c-0.018,0.023-0.08,0.054-0.171,0.093
				c-0.096,0.042-0.22,0.081-0.367,0.12c-0.148,0.036-0.32,0.068-0.512,0.093c-0.189,0.03-0.396,0.045-0.613,0.045
				c-0.39,0-0.737-0.048-1.028-0.146c-0.296-0.103-0.542-0.246-0.742-0.45c-0.198-0.2-0.348-0.452-0.445-0.761
				c-0.094-0.312-0.141-0.668-0.141-1.082c0-0.386,0.046-0.743,0.151-1.052c0.104-0.317,0.253-0.587,0.444-0.806
				c0.195-0.219,0.428-0.384,0.708-0.5c0.283-0.12,0.596-0.174,0.945-0.174c0.369,0,0.682,0.054,0.939,0.164
				c0.268,0.105,0.484,0.258,0.65,0.453c0.167,0.191,0.293,0.419,0.373,0.68c0.079,0.264,0.118,0.552,0.118,0.863V111.328z
				 M107.918,110.972c0.012-0.354-0.063-0.626-0.213-0.82c-0.15-0.201-0.38-0.3-0.695-0.3c-0.156,0-0.294,0.029-0.414,0.087
				c-0.12,0.06-0.214,0.141-0.291,0.239c-0.08,0.102-0.137,0.219-0.182,0.359c-0.041,0.135-0.058,0.282-0.07,0.435H107.918z"/>
			<path fill-rule="evenodd" clip-rule="evenodd" fill="#4F8196" d="M114.33,113.663c0,0.038-0.01,0.065-0.028,0.093
				c-0.017,0.023-0.042,0.042-0.085,0.06c-0.038,0.012-0.088,0.027-0.16,0.03c-0.066,0.009-0.15,0.015-0.25,0.015
				c-0.1,0-0.188-0.006-0.254-0.015c-0.067-0.003-0.119-0.019-0.164-0.03c-0.039-0.018-0.069-0.036-0.088-0.06
				c-0.016-0.027-0.022-0.055-0.022-0.093v-0.492c-0.229,0.243-0.467,0.435-0.722,0.569c-0.241,0.135-0.521,0.201-0.825,0.201
				c-0.333,0-0.619-0.063-0.853-0.191c-0.229-0.132-0.421-0.31-0.565-0.528c-0.145-0.222-0.254-0.479-0.317-0.772
				c-0.071-0.297-0.101-0.608-0.101-0.935c0-0.39,0.041-0.746,0.12-1.059c0.087-0.312,0.211-0.578,0.375-0.8
				c0.159-0.222,0.361-0.387,0.601-0.506c0.241-0.12,0.519-0.18,0.833-0.18c0.247,0,0.47,0.051,0.67,0.155
				c0.202,0.099,0.403,0.24,0.601,0.438v-2.391c0-0.033,0.006-0.061,0.022-0.087c0.021-0.027,0.051-0.048,0.099-0.066
				c0.05-0.018,0.109-0.033,0.193-0.042c0.081-0.006,0.182-0.012,0.303-0.012c0.122,0,0.223,0.006,0.3,0.012
				c0.079,0.009,0.144,0.024,0.188,0.042c0.048,0.019,0.078,0.039,0.101,0.066c0.017,0.026,0.031,0.054,0.031,0.087V113.663z
				 M113.093,110.714c-0.18-0.222-0.352-0.393-0.517-0.515c-0.16-0.12-0.328-0.177-0.506-0.177c-0.162,0-0.301,0.038-0.421,0.122
				c-0.118,0.078-0.208,0.187-0.283,0.324c-0.066,0.132-0.12,0.284-0.157,0.455c-0.035,0.162-0.051,0.333-0.051,0.507
				c0,0.186,0.016,0.365,0.042,0.539c0.036,0.177,0.081,0.333,0.149,0.471c0.064,0.135,0.159,0.245,0.27,0.323
				c0.111,0.084,0.251,0.129,0.425,0.129c0.087,0,0.168-0.018,0.243-0.039c0.085-0.026,0.169-0.068,0.252-0.12
				c0.084-0.06,0.172-0.132,0.261-0.219c0.09-0.093,0.184-0.206,0.293-0.341V110.714z"/>
			<path fill-rule="evenodd" clip-rule="evenodd" fill="#4F8196" d="M119.334,113.675c0,0.045-0.015,0.084-0.051,0.11
				c-0.033,0.024-0.084,0.042-0.154,0.055c-0.072,0.015-0.175,0.021-0.314,0.021c-0.148,0-0.256-0.006-0.324-0.021
				c-0.069-0.013-0.115-0.03-0.144-0.055c-0.029-0.026-0.041-0.065-0.041-0.11v-0.348c-0.18,0.191-0.387,0.345-0.622,0.452
				c-0.233,0.111-0.49,0.162-0.773,0.162c-0.234,0-0.449-0.03-0.646-0.096c-0.195-0.058-0.366-0.145-0.51-0.267
				c-0.141-0.117-0.253-0.27-0.33-0.447c-0.082-0.18-0.124-0.386-0.124-0.623c0-0.261,0.051-0.477,0.154-0.668
				c0.099-0.188,0.25-0.348,0.446-0.471c0.198-0.126,0.451-0.219,0.749-0.275c0.298-0.057,0.641-0.09,1.032-0.09h0.43v-0.264
				c0-0.141-0.014-0.261-0.046-0.362c-0.029-0.105-0.074-0.195-0.136-0.261c-0.063-0.069-0.15-0.12-0.259-0.153
				c-0.106-0.036-0.235-0.051-0.397-0.051c-0.206,0-0.393,0.021-0.555,0.069c-0.165,0.045-0.306,0.096-0.431,0.152
				c-0.127,0.054-0.234,0.108-0.315,0.153c-0.085,0.048-0.153,0.068-0.205,0.068c-0.035,0-0.069-0.012-0.101-0.029
				c-0.022-0.03-0.049-0.061-0.066-0.105c-0.021-0.042-0.028-0.093-0.042-0.155c-0.009-0.063-0.012-0.132-0.012-0.207
				c0-0.102,0.006-0.183,0.025-0.246c0.014-0.057,0.045-0.11,0.091-0.155c0.045-0.051,0.126-0.103,0.246-0.156
				c0.111-0.062,0.247-0.116,0.404-0.165c0.15-0.048,0.319-0.09,0.503-0.116c0.183-0.036,0.375-0.051,0.569-0.051
				c0.348,0,0.638,0.032,0.881,0.102c0.251,0.065,0.453,0.168,0.611,0.314c0.156,0.135,0.271,0.317,0.348,0.536
				c0.069,0.222,0.105,0.482,0.105,0.785V113.675z M118.115,111.787h-0.477c-0.201,0-0.369,0.015-0.514,0.045
				c-0.143,0.026-0.256,0.071-0.346,0.135c-0.087,0.054-0.156,0.132-0.195,0.216c-0.041,0.084-0.062,0.18-0.062,0.287
				c0,0.184,0.057,0.33,0.174,0.435c0.117,0.103,0.282,0.159,0.488,0.159c0.176,0,0.336-0.045,0.478-0.132
				c0.148-0.093,0.301-0.222,0.453-0.396V111.787z"/>
			<path fill-rule="evenodd" clip-rule="evenodd" fill="#4F8196" d="M124.785,113.663c0,0.029-0.01,0.057-0.027,0.087
				c-0.018,0.026-0.051,0.042-0.098,0.057c-0.048,0.018-0.114,0.033-0.196,0.039c-0.078,0.009-0.177,0.015-0.296,0.015
				c-0.117,0-0.223-0.006-0.301-0.015c-0.083-0.006-0.145-0.021-0.193-0.039c-0.043-0.015-0.075-0.03-0.099-0.057
				c-0.017-0.03-0.03-0.058-0.03-0.087v-2.523c0-0.21-0.015-0.378-0.051-0.497c-0.027-0.123-0.072-0.228-0.13-0.314
				c-0.058-0.084-0.136-0.156-0.233-0.201c-0.092-0.051-0.2-0.075-0.325-0.075c-0.156,0-0.315,0.058-0.477,0.171
				c-0.167,0.117-0.33,0.285-0.503,0.507v2.934c0,0.029-0.009,0.057-0.03,0.087c-0.022,0.026-0.059,0.042-0.106,0.057
				c-0.048,0.018-0.106,0.033-0.189,0.039c-0.079,0.009-0.181,0.015-0.298,0.015c-0.126,0-0.224-0.006-0.306-0.015
				c-0.078-0.006-0.141-0.021-0.19-0.039c-0.046-0.015-0.083-0.03-0.102-0.057c-0.022-0.03-0.027-0.058-0.027-0.087v-4.411
				c0-0.036,0.004-0.06,0.021-0.084c0.02-0.03,0.048-0.048,0.088-0.068c0.045-0.013,0.101-0.024,0.162-0.03
				c0.072-0.012,0.159-0.012,0.262-0.012c0.104,0,0.193,0,0.259,0.012c0.072,0.006,0.126,0.018,0.161,0.03
				c0.04,0.021,0.064,0.038,0.085,0.068c0.018,0.024,0.021,0.048,0.021,0.084v0.507c0.249-0.261,0.495-0.456,0.746-0.591
				c0.25-0.132,0.516-0.197,0.788-0.197c0.303,0,0.552,0.051,0.758,0.149c0.207,0.096,0.375,0.23,0.496,0.401
				c0.13,0.171,0.225,0.369,0.277,0.597c0.057,0.228,0.084,0.497,0.084,0.817V113.663z"/>
			<path fill-rule="evenodd" clip-rule="evenodd" fill="#4F8196" d="M130.19,113.663c0,0.038-0.01,0.065-0.024,0.093
				c-0.018,0.023-0.048,0.042-0.083,0.06c-0.039,0.012-0.096,0.027-0.168,0.03c-0.066,0.009-0.147,0.015-0.244,0.015
				c-0.102,0-0.189-0.006-0.258-0.015c-0.063-0.003-0.12-0.019-0.162-0.03c-0.042-0.018-0.067-0.036-0.09-0.06
				c-0.014-0.027-0.024-0.055-0.024-0.093v-0.492c-0.226,0.243-0.469,0.435-0.717,0.569c-0.249,0.135-0.521,0.201-0.827,0.201
				c-0.335,0-0.617-0.063-0.854-0.191c-0.232-0.132-0.418-0.31-0.569-0.528c-0.145-0.222-0.249-0.479-0.314-0.772
				c-0.063-0.297-0.101-0.608-0.101-0.935c0-0.39,0.046-0.746,0.125-1.059c0.083-0.312,0.208-0.578,0.37-0.8
				c0.163-0.222,0.362-0.387,0.601-0.506c0.244-0.12,0.523-0.18,0.837-0.18c0.246,0,0.468,0.051,0.667,0.155
				c0.202,0.099,0.401,0.24,0.602,0.438v-2.391c0-0.033,0.004-0.061,0.025-0.087c0.014-0.027,0.053-0.048,0.098-0.066
				c0.048-0.018,0.114-0.033,0.193-0.042c0.078-0.006,0.175-0.012,0.298-0.012c0.123,0,0.225,0.006,0.304,0.012
				c0.078,0.009,0.143,0.024,0.184,0.042c0.05,0.019,0.083,0.039,0.099,0.066c0.022,0.026,0.033,0.054,0.033,0.087V113.663z
				 M128.956,110.714c-0.178-0.222-0.351-0.393-0.518-0.515c-0.158-0.12-0.332-0.177-0.505-0.177c-0.164,0-0.304,0.038-0.424,0.122
				c-0.114,0.078-0.207,0.187-0.282,0.324c-0.069,0.132-0.12,0.284-0.159,0.455c-0.03,0.162-0.048,0.333-0.048,0.507
				c0,0.186,0.015,0.365,0.048,0.539c0.025,0.177,0.073,0.333,0.139,0.471c0.071,0.135,0.159,0.245,0.271,0.323
				c0.111,0.084,0.256,0.129,0.425,0.129c0.087,0,0.171-0.018,0.25-0.039c0.082-0.026,0.16-0.068,0.246-0.12
				c0.085-0.06,0.174-0.132,0.264-0.219c0.088-0.093,0.186-0.206,0.292-0.341V110.714z"/>
			<path fill-rule="evenodd" clip-rule="evenodd" fill="#4F8196" d="M135.88,111.397c0,0.39-0.042,0.746-0.132,1.055
				c-0.084,0.317-0.204,0.581-0.369,0.803c-0.159,0.222-0.361,0.39-0.601,0.51c-0.232,0.12-0.499,0.177-0.796,0.177
				c-0.153,0-0.289-0.015-0.419-0.045c-0.127-0.024-0.249-0.072-0.368-0.132c-0.117-0.063-0.234-0.141-0.348-0.237
				c-0.111-0.093-0.227-0.209-0.345-0.344v0.479c0,0.038-0.014,0.065-0.03,0.093c-0.015,0.023-0.047,0.042-0.087,0.06
				c-0.041,0.012-0.096,0.027-0.165,0.03c-0.07,0.009-0.15,0.015-0.251,0.015c-0.105,0-0.19-0.006-0.258-0.015
				c-0.067-0.003-0.122-0.019-0.162-0.03c-0.039-0.018-0.069-0.036-0.085-0.06c-0.017-0.027-0.022-0.055-0.022-0.093v-6.503
				c0-0.032,0.006-0.06,0.027-0.09c0.022-0.023,0.051-0.048,0.099-0.065c0.051-0.019,0.111-0.03,0.193-0.039
				c0.08-0.015,0.178-0.021,0.3-0.021c0.124,0,0.222,0.007,0.304,0.021c0.079,0.009,0.139,0.021,0.186,0.039
				c0.051,0.018,0.084,0.042,0.106,0.065c0.018,0.03,0.028,0.058,0.028,0.09v2.437c0.111-0.114,0.228-0.207,0.336-0.288
				c0.115-0.074,0.225-0.141,0.337-0.188c0.109-0.057,0.226-0.096,0.346-0.117c0.117-0.023,0.243-0.032,0.376-0.032
				c0.325,0,0.602,0.065,0.826,0.197c0.229,0.126,0.413,0.303,0.559,0.524s0.25,0.477,0.316,0.776
				C135.844,110.759,135.88,111.07,135.88,111.397z M134.589,111.487c0-0.188-0.015-0.371-0.045-0.549
				c-0.024-0.17-0.072-0.326-0.141-0.461c-0.069-0.135-0.164-0.243-0.273-0.32c-0.106-0.087-0.247-0.123-0.417-0.123
				c-0.081,0-0.162,0.009-0.246,0.033c-0.078,0.023-0.159,0.062-0.244,0.116c-0.08,0.061-0.168,0.129-0.259,0.219
				c-0.087,0.09-0.18,0.198-0.279,0.333v1.459c0.174,0.228,0.34,0.398,0.495,0.516c0.165,0.117,0.333,0.177,0.508,0.177
				c0.162,0,0.298-0.042,0.412-0.126c0.111-0.084,0.205-0.188,0.274-0.32c0.078-0.132,0.136-0.282,0.167-0.45
				C134.572,111.823,134.589,111.655,134.589,111.487z"/>
			<path fill-rule="evenodd" clip-rule="evenodd" fill="#4F8196" d="M139.708,109.665c0,0.114-0.007,0.213-0.013,0.291
				c-0.004,0.072-0.014,0.135-0.025,0.177c-0.02,0.042-0.035,0.072-0.059,0.09c-0.018,0.012-0.045,0.024-0.08,0.024
				c-0.025,0-0.054-0.003-0.088-0.016c-0.031-0.012-0.069-0.026-0.117-0.042c-0.038-0.012-0.08-0.023-0.132-0.032
				c-0.049-0.016-0.104-0.021-0.162-0.021c-0.072,0-0.138,0.016-0.207,0.042c-0.07,0.03-0.144,0.075-0.219,0.132
				c-0.069,0.057-0.15,0.141-0.233,0.236c-0.078,0.1-0.164,0.223-0.255,0.366v2.751c0,0.029-0.006,0.057-0.03,0.087
				c-0.017,0.026-0.053,0.042-0.108,0.057c-0.045,0.018-0.105,0.033-0.185,0.039c-0.075,0.009-0.178,0.015-0.299,0.015
				c-0.123,0-0.225-0.006-0.304-0.015c-0.078-0.006-0.144-0.021-0.192-0.039c-0.045-0.015-0.078-0.03-0.097-0.057
				c-0.021-0.03-0.033-0.058-0.033-0.087v-4.411c0-0.036,0.012-0.06,0.025-0.084c0.02-0.03,0.046-0.048,0.09-0.068
				c0.043-0.013,0.099-0.024,0.164-0.03c0.069-0.012,0.157-0.012,0.258-0.012c0.104,0,0.19,0,0.26,0.012
				c0.072,0.006,0.122,0.018,0.161,0.03c0.039,0.021,0.066,0.038,0.081,0.068c0.02,0.024,0.024,0.048,0.024,0.084v0.548
				c0.12-0.164,0.226-0.299,0.334-0.404c0.097-0.113,0.196-0.194,0.286-0.258c0.093-0.062,0.188-0.104,0.28-0.129
				c0.091-0.026,0.181-0.038,0.274-0.038c0.045,0,0.087,0,0.139,0.009c0.048,0.003,0.104,0.012,0.156,0.023
				c0.049,0.01,0.097,0.021,0.133,0.039c0.039,0.016,0.07,0.03,0.083,0.048c0.018,0.016,0.033,0.036,0.039,0.055
				c0.011,0.018,0.022,0.048,0.027,0.083c0.006,0.033,0.015,0.081,0.015,0.153C139.701,109.45,139.708,109.543,139.708,109.665z"/>
			<path fill-rule="evenodd" clip-rule="evenodd" fill="#4F8196" d="M144.546,111.328c0,0.153-0.038,0.258-0.104,0.336
				c-0.07,0.075-0.16,0.107-0.275,0.107h-2.687c0,0.189,0.02,0.36,0.062,0.516c0.048,0.153,0.118,0.279,0.217,0.39
				c0.096,0.104,0.223,0.188,0.373,0.243c0.153,0.06,0.34,0.087,0.551,0.087c0.219,0,0.411-0.019,0.575-0.049
				c0.165-0.032,0.309-0.065,0.424-0.104c0.124-0.039,0.226-0.072,0.307-0.102c0.073-0.036,0.138-0.051,0.187-0.051
				c0.032,0,0.057,0.009,0.075,0.021c0.021,0.012,0.033,0.03,0.052,0.06c0.009,0.03,0.021,0.072,0.025,0.129
				c0.003,0.052,0.008,0.117,0.008,0.204c0,0.069-0.005,0.132-0.008,0.186c0,0.051-0.004,0.093-0.01,0.132
				c-0.009,0.03-0.017,0.066-0.035,0.09c-0.012,0.027-0.025,0.048-0.051,0.069c-0.018,0.023-0.078,0.054-0.174,0.093
				c-0.094,0.042-0.217,0.081-0.363,0.12c-0.153,0.036-0.32,0.068-0.512,0.093c-0.19,0.03-0.396,0.045-0.616,0.045
				c-0.388,0-0.736-0.048-1.032-0.146c-0.295-0.103-0.538-0.246-0.733-0.45c-0.199-0.2-0.351-0.452-0.448-0.761
				c-0.091-0.312-0.146-0.668-0.146-1.082c0-0.386,0.054-0.743,0.156-1.052c0.103-0.317,0.25-0.587,0.443-0.806
				c0.199-0.219,0.431-0.384,0.708-0.5c0.282-0.12,0.593-0.174,0.944-0.174c0.37,0,0.686,0.054,0.944,0.164
				c0.264,0.105,0.479,0.258,0.647,0.453c0.169,0.191,0.292,0.419,0.372,0.68c0.079,0.264,0.12,0.552,0.12,0.863V111.328z
				 M143.338,110.972c0.01-0.354-0.063-0.626-0.21-0.82c-0.151-0.201-0.382-0.3-0.695-0.3c-0.156,0-0.295,0.029-0.415,0.087
				c-0.117,0.06-0.211,0.141-0.289,0.239c-0.081,0.102-0.138,0.219-0.179,0.359c-0.042,0.135-0.064,0.282-0.07,0.435H143.338z"/>
			<path fill-rule="evenodd" clip-rule="evenodd" fill="#4F8196" d="M149.328,113.675c0,0.045-0.018,0.084-0.054,0.11
				c-0.033,0.024-0.084,0.042-0.153,0.055c-0.069,0.015-0.177,0.021-0.314,0.021c-0.15,0-0.255-0.006-0.33-0.021
				c-0.06-0.013-0.11-0.03-0.142-0.055c-0.022-0.026-0.039-0.065-0.039-0.11v-0.348c-0.181,0.191-0.388,0.345-0.619,0.452
				c-0.234,0.111-0.488,0.162-0.773,0.162c-0.237,0-0.448-0.03-0.649-0.096c-0.195-0.058-0.364-0.145-0.509-0.267
				c-0.141-0.117-0.252-0.27-0.33-0.447c-0.084-0.18-0.12-0.386-0.12-0.623c0-0.261,0.046-0.477,0.15-0.668
				c0.101-0.188,0.25-0.348,0.451-0.471c0.198-0.126,0.445-0.219,0.745-0.275c0.295-0.057,0.638-0.09,1.035-0.09h0.428v-0.264
				c0-0.141-0.015-0.261-0.046-0.362c-0.025-0.105-0.073-0.195-0.136-0.261c-0.064-0.069-0.148-0.12-0.259-0.153
				c-0.104-0.036-0.235-0.051-0.393-0.051c-0.208,0-0.4,0.021-0.557,0.069c-0.164,0.045-0.31,0.096-0.433,0.152
				c-0.123,0.054-0.234,0.108-0.317,0.153c-0.081,0.048-0.15,0.068-0.201,0.068c-0.036,0-0.072-0.012-0.1-0.029
				c-0.022-0.03-0.051-0.061-0.069-0.105c-0.02-0.042-0.03-0.093-0.041-0.155c-0.012-0.063-0.015-0.132-0.015-0.207
				c0-0.102,0.009-0.183,0.025-0.246c0.017-0.057,0.048-0.11,0.092-0.155c0.051-0.051,0.128-0.103,0.246-0.156
				c0.114-0.062,0.249-0.116,0.406-0.165c0.151-0.048,0.319-0.09,0.505-0.116c0.185-0.036,0.375-0.051,0.566-0.051
				c0.345,0,0.643,0.032,0.884,0.102c0.248,0.065,0.452,0.168,0.611,0.314c0.159,0.135,0.27,0.317,0.344,0.536
				c0.072,0.222,0.111,0.482,0.111,0.785V113.675z M148.105,111.787h-0.476c-0.201,0-0.37,0.015-0.514,0.045
				c-0.142,0.026-0.256,0.071-0.346,0.135c-0.088,0.054-0.157,0.132-0.196,0.216c-0.042,0.084-0.064,0.18-0.064,0.287
				c0,0.184,0.062,0.33,0.179,0.435c0.117,0.103,0.278,0.159,0.49,0.159c0.174,0,0.331-0.045,0.478-0.132
				c0.145-0.093,0.295-0.222,0.451-0.396V111.787z"/>
			<path fill-rule="evenodd" clip-rule="evenodd" fill="#4F8196" d="M154.667,113.666c0,0.035-0.015,0.062-0.033,0.09
				c-0.015,0.023-0.048,0.042-0.099,0.06c-0.048,0.009-0.111,0.024-0.195,0.03c-0.084,0.009-0.189,0.015-0.321,0.015
				c-0.135,0-0.246-0.006-0.33-0.015c-0.083-0.003-0.153-0.013-0.207-0.027s-0.096-0.036-0.126-0.062
				c-0.03-0.027-0.057-0.063-0.081-0.105l-1.462-2.322v2.335c0,0.029-0.015,0.057-0.033,0.087c-0.021,0.026-0.057,0.042-0.104,0.057
				c-0.048,0.018-0.108,0.033-0.186,0.039c-0.081,0.009-0.177,0.015-0.303,0.015c-0.123,0-0.225-0.006-0.299-0.015
				c-0.078-0.006-0.144-0.021-0.192-0.039c-0.048-0.015-0.081-0.03-0.102-0.057c-0.021-0.03-0.03-0.058-0.03-0.087v-6.503
				c0-0.032,0.009-0.06,0.03-0.09c0.021-0.023,0.054-0.048,0.102-0.065c0.048-0.019,0.114-0.03,0.192-0.039
				c0.075-0.015,0.177-0.021,0.299-0.021c0.126,0,0.222,0.007,0.303,0.021c0.078,0.009,0.138,0.021,0.186,0.039
				c0.048,0.018,0.083,0.042,0.104,0.065c0.018,0.03,0.033,0.058,0.033,0.09v3.868l1.3-1.752c0.027-0.039,0.057-0.075,0.087-0.105
				c0.033-0.026,0.075-0.051,0.135-0.071c0.054-0.013,0.117-0.024,0.201-0.03c0.081-0.012,0.186-0.012,0.309-0.012
				c0.123,0,0.222,0,0.309,0.012c0.087,0.006,0.153,0.018,0.204,0.03c0.054,0.021,0.087,0.038,0.105,0.068
				c0.024,0.024,0.033,0.051,0.033,0.09c0,0.048-0.012,0.102-0.039,0.159c-0.024,0.054-0.06,0.11-0.108,0.174l-1.291,1.465
				l1.495,2.308c0.033,0.068,0.066,0.123,0.081,0.174C154.652,113.585,154.667,113.627,154.667,113.666z"/>
			<path fill-rule="evenodd" clip-rule="evenodd" fill="#4F8196" d="M158.086,107.571c0,0.096-0.006,0.171-0.012,0.23
				c-0.009,0.06-0.015,0.102-0.03,0.138c-0.015,0.027-0.027,0.045-0.045,0.06c-0.015,0.01-0.03,0.019-0.057,0.019
				c-0.021,0-0.045-0.009-0.075-0.019c-0.024-0.015-0.063-0.023-0.102-0.038c-0.045-0.013-0.09-0.021-0.146-0.036
				c-0.054-0.013-0.123-0.019-0.198-0.019c-0.087,0-0.165,0.016-0.231,0.045c-0.066,0.024-0.117,0.069-0.156,0.129
				c-0.045,0.061-0.078,0.145-0.096,0.24c-0.018,0.099-0.036,0.213-0.036,0.356v0.407h0.809c0.03,0,0.057,0.006,0.081,0.024
				c0.03,0.018,0.051,0.045,0.063,0.084c0.015,0.039,0.033,0.09,0.039,0.155c0.009,0.061,0.012,0.141,0.012,0.24
				c0,0.183-0.015,0.309-0.051,0.39c-0.03,0.074-0.081,0.113-0.144,0.113h-0.809v3.572c0,0.029-0.006,0.057-0.024,0.087
				c-0.021,0.026-0.051,0.042-0.099,0.057c-0.045,0.018-0.111,0.033-0.191,0.039c-0.084,0.009-0.186,0.015-0.3,0.015
				c-0.123,0-0.222-0.006-0.306-0.015c-0.075-0.006-0.141-0.021-0.192-0.039c-0.042-0.015-0.081-0.03-0.102-0.057
				c-0.015-0.03-0.024-0.058-0.024-0.087v-3.572h-0.551c-0.063,0-0.111-0.039-0.146-0.113c-0.027-0.081-0.042-0.207-0.042-0.39
				c0-0.1,0.003-0.18,0.009-0.24c0.009-0.065,0.024-0.116,0.033-0.155c0.021-0.039,0.042-0.066,0.06-0.084
				c0.027-0.019,0.06-0.024,0.093-0.024h0.545v-0.368c0-0.303,0.03-0.566,0.09-0.791c0.06-0.222,0.153-0.411,0.275-0.563
				c0.129-0.149,0.294-0.261,0.482-0.342c0.207-0.075,0.435-0.113,0.701-0.113c0.126,0,0.255,0.012,0.366,0.038
				c0.117,0.021,0.204,0.042,0.275,0.069c0.06,0.021,0.108,0.045,0.129,0.069c0.027,0.021,0.045,0.051,0.054,0.09
				c0.018,0.042,0.027,0.093,0.036,0.158C158.08,107.397,158.083,107.476,158.086,107.571z"/>
			<path fill-rule="evenodd" clip-rule="evenodd" fill="#4F8196" d="M162.383,113.675c0,0.045-0.012,0.084-0.045,0.11
				c-0.036,0.024-0.09,0.042-0.159,0.055c-0.069,0.015-0.173,0.021-0.312,0.021c-0.15,0-0.261-0.006-0.327-0.021
				c-0.069-0.013-0.114-0.03-0.144-0.055c-0.027-0.026-0.039-0.065-0.039-0.11v-0.348c-0.183,0.191-0.39,0.345-0.626,0.452
				c-0.228,0.111-0.485,0.162-0.77,0.162c-0.233,0-0.446-0.03-0.647-0.096c-0.195-0.058-0.366-0.145-0.509-0.267
				c-0.144-0.117-0.252-0.27-0.327-0.447c-0.084-0.18-0.123-0.386-0.123-0.623c0-0.261,0.048-0.477,0.15-0.668
				c0.102-0.188,0.251-0.348,0.443-0.471c0.207-0.126,0.453-0.219,0.752-0.275c0.297-0.057,0.642-0.09,1.031-0.09h0.432v-0.264
				c0-0.141-0.015-0.261-0.042-0.362c-0.03-0.105-0.075-0.195-0.141-0.261c-0.06-0.069-0.15-0.12-0.258-0.153
				c-0.102-0.036-0.237-0.051-0.396-0.051c-0.207,0-0.396,0.021-0.56,0.069c-0.159,0.045-0.303,0.096-0.426,0.152
				c-0.126,0.054-0.234,0.108-0.321,0.153c-0.081,0.048-0.146,0.068-0.201,0.068c-0.036,0-0.066-0.012-0.099-0.029
				c-0.027-0.03-0.048-0.061-0.069-0.105c-0.018-0.042-0.03-0.093-0.039-0.155c-0.009-0.063-0.015-0.132-0.015-0.207
				c0-0.102,0.009-0.183,0.024-0.246c0.018-0.057,0.051-0.11,0.096-0.155c0.045-0.051,0.129-0.103,0.236-0.156
				c0.12-0.062,0.255-0.116,0.405-0.165c0.159-0.048,0.33-0.09,0.509-0.116c0.183-0.036,0.372-0.051,0.566-0.051
				c0.348,0,0.638,0.032,0.887,0.102c0.246,0.065,0.45,0.168,0.605,0.314c0.156,0.135,0.276,0.317,0.351,0.536
				c0.072,0.222,0.105,0.482,0.105,0.785V113.675z M161.163,111.787h-0.47c-0.207,0-0.375,0.015-0.519,0.045
				c-0.141,0.026-0.255,0.071-0.345,0.135c-0.09,0.054-0.159,0.132-0.198,0.216c-0.042,0.084-0.06,0.18-0.06,0.287
				c0,0.184,0.06,0.33,0.17,0.435c0.12,0.103,0.282,0.159,0.492,0.159c0.177,0,0.333-0.045,0.479-0.132
				c0.146-0.093,0.299-0.222,0.449-0.396V111.787z"/>
			<path fill-rule="evenodd" clip-rule="evenodd" fill="#4F8196" d="M166.73,112.416c0,0.249-0.051,0.474-0.144,0.662
				c-0.09,0.189-0.228,0.354-0.396,0.479c-0.17,0.126-0.375,0.225-0.608,0.288c-0.237,0.062-0.489,0.096-0.761,0.096
				c-0.168,0-0.324-0.012-0.474-0.036c-0.149-0.023-0.285-0.051-0.401-0.09c-0.12-0.039-0.216-0.084-0.296-0.123
				c-0.078-0.036-0.138-0.074-0.174-0.107c-0.036-0.033-0.066-0.087-0.084-0.162c-0.021-0.072-0.027-0.186-0.027-0.329
				c0-0.094,0-0.171,0.006-0.229c0.006-0.06,0.018-0.104,0.03-0.141c0.015-0.033,0.033-0.057,0.054-0.068
				c0.015-0.013,0.042-0.019,0.072-0.019c0.033,0,0.09,0.021,0.156,0.063c0.072,0.039,0.165,0.084,0.267,0.132
				c0.105,0.054,0.231,0.102,0.366,0.138c0.144,0.048,0.303,0.065,0.479,0.065c0.114,0,0.209-0.009,0.299-0.029
				c0.087-0.027,0.165-0.061,0.225-0.103c0.066-0.045,0.117-0.096,0.149-0.164c0.033-0.066,0.051-0.142,0.051-0.226
				c0-0.099-0.033-0.188-0.093-0.254c-0.06-0.069-0.144-0.132-0.246-0.187c-0.099-0.054-0.212-0.102-0.341-0.149
				c-0.126-0.045-0.252-0.096-0.39-0.153c-0.132-0.054-0.264-0.119-0.39-0.191c-0.123-0.072-0.24-0.162-0.341-0.27
				c-0.099-0.104-0.18-0.228-0.243-0.381c-0.06-0.146-0.087-0.326-0.087-0.533c0-0.213,0.039-0.401,0.123-0.578
				s0.198-0.33,0.354-0.452c0.156-0.126,0.342-0.222,0.563-0.294c0.222-0.069,0.477-0.102,0.752-0.102
				c0.138,0,0.276,0.009,0.402,0.029c0.132,0.021,0.249,0.042,0.354,0.072c0.108,0.027,0.195,0.062,0.27,0.099
				c0.069,0.03,0.123,0.063,0.15,0.09c0.036,0.021,0.06,0.048,0.072,0.078c0.009,0.021,0.024,0.051,0.03,0.087
				c0.006,0.033,0.009,0.075,0.012,0.126c0.006,0.048,0.009,0.113,0.009,0.186c0,0.093-0.003,0.165-0.009,0.222
				c-0.003,0.057-0.009,0.099-0.021,0.132c-0.012,0.036-0.024,0.054-0.042,0.069c-0.024,0.009-0.048,0.015-0.075,0.015
				s-0.078-0.015-0.135-0.048c-0.066-0.036-0.144-0.075-0.24-0.114c-0.09-0.042-0.198-0.077-0.324-0.11
				c-0.123-0.036-0.264-0.051-0.419-0.051c-0.117,0-0.21,0.009-0.294,0.032c-0.081,0.024-0.149,0.058-0.201,0.1
				c-0.054,0.042-0.096,0.093-0.12,0.152c-0.03,0.054-0.039,0.117-0.039,0.186c0,0.103,0.03,0.184,0.09,0.252
				c0.063,0.072,0.15,0.132,0.249,0.186c0.104,0.052,0.219,0.105,0.347,0.147c0.132,0.048,0.264,0.099,0.399,0.152
				c0.132,0.058,0.264,0.12,0.392,0.188c0.129,0.072,0.246,0.162,0.351,0.268c0.105,0.11,0.186,0.233,0.246,0.383
				C166.697,112.042,166.73,112.212,166.73,112.416z"/>
			<path fill-rule="evenodd" clip-rule="evenodd" fill="#4F8196" d="M170.275,113.226c0,0.144-0.012,0.257-0.033,0.338
				c-0.012,0.075-0.039,0.126-0.066,0.162c-0.033,0.03-0.075,0.06-0.138,0.081c-0.051,0.026-0.123,0.048-0.201,0.06
				c-0.072,0.024-0.162,0.039-0.252,0.045c-0.09,0.016-0.177,0.016-0.27,0.016c-0.249,0-0.467-0.03-0.644-0.094
				c-0.18-0.062-0.33-0.158-0.447-0.284c-0.123-0.135-0.207-0.3-0.264-0.494c-0.06-0.201-0.087-0.432-0.087-0.701v-2.263h-0.53
				c-0.06,0-0.108-0.039-0.144-0.113c-0.03-0.081-0.045-0.207-0.045-0.39c0-0.1,0.003-0.18,0.009-0.24
				c0.009-0.065,0.021-0.116,0.036-0.155c0.021-0.039,0.039-0.066,0.063-0.084c0.024-0.019,0.057-0.024,0.09-0.024h0.521v-0.985
				c0-0.03,0.009-0.063,0.024-0.09c0.021-0.024,0.057-0.045,0.102-0.063c0.048-0.021,0.117-0.033,0.192-0.039
				c0.081-0.009,0.183-0.015,0.302-0.015c0.12,0,0.222,0.006,0.303,0.015c0.081,0.006,0.147,0.019,0.189,0.039
				c0.045,0.019,0.081,0.039,0.102,0.063c0.021,0.026,0.027,0.06,0.027,0.09v0.985h0.965c0.027,0,0.054,0.006,0.081,0.024
				c0.027,0.018,0.048,0.045,0.063,0.084c0.015,0.039,0.024,0.09,0.033,0.155c0.012,0.061,0.018,0.141,0.018,0.24
				c0,0.183-0.018,0.309-0.051,0.39c-0.033,0.074-0.081,0.113-0.144,0.113h-0.965v2.073c0,0.237,0.039,0.42,0.114,0.543
				c0.078,0.116,0.213,0.18,0.404,0.18c0.069,0,0.129-0.012,0.177-0.019c0.054-0.012,0.099-0.023,0.138-0.038
				c0.045-0.019,0.081-0.03,0.108-0.039c0.03-0.016,0.054-0.021,0.078-0.021c0.021,0,0.039,0.006,0.057,0.021
				c0.018,0.009,0.033,0.032,0.042,0.068c0.009,0.036,0.015,0.081,0.024,0.141C170.269,113.058,170.275,113.132,170.275,113.226z"/>
			<path fill-rule="evenodd" clip-rule="evenodd" fill="#4F8196" d="M172.42,113.663c0,0.029-0.012,0.057-0.03,0.087
				c-0.021,0.026-0.054,0.042-0.105,0.057c-0.045,0.018-0.108,0.033-0.188,0.039c-0.078,0.009-0.18,0.015-0.297,0.015
				c-0.126,0-0.225-0.006-0.303-0.015c-0.081-0.006-0.146-0.021-0.195-0.039c-0.045-0.015-0.081-0.03-0.096-0.057
				c-0.024-0.03-0.033-0.058-0.033-0.087v-4.402c0-0.029,0.009-0.06,0.033-0.084c0.015-0.026,0.051-0.045,0.096-0.065
				c0.048-0.019,0.114-0.033,0.195-0.042c0.078-0.012,0.177-0.012,0.303-0.012c0.117,0,0.219,0,0.297,0.012
				c0.081,0.009,0.144,0.023,0.188,0.042c0.051,0.021,0.084,0.039,0.105,0.065c0.018,0.024,0.03,0.055,0.03,0.084V113.663z
				 M172.511,107.76c0,0.246-0.048,0.426-0.153,0.519c-0.102,0.099-0.291,0.144-0.563,0.144c-0.285,0-0.474-0.045-0.572-0.141
				c-0.09-0.093-0.144-0.255-0.144-0.501c0-0.248,0.054-0.422,0.15-0.518c0.102-0.1,0.293-0.147,0.572-0.147
				s0.464,0.048,0.566,0.145C172.462,107.353,172.511,107.521,172.511,107.76z"/>
			<path fill-rule="evenodd" clip-rule="evenodd" fill="#4F8196" d="M177.871,113.663c0,0.029-0.009,0.057-0.033,0.087
				c-0.015,0.026-0.048,0.042-0.093,0.057c-0.048,0.018-0.114,0.033-0.198,0.039c-0.075,0.009-0.174,0.015-0.293,0.015
				c-0.123,0-0.228-0.006-0.306-0.015c-0.081-0.006-0.144-0.021-0.189-0.039c-0.048-0.015-0.081-0.03-0.096-0.057
				c-0.024-0.03-0.03-0.058-0.03-0.087v-2.523c0-0.21-0.018-0.378-0.051-0.497c-0.03-0.123-0.075-0.228-0.135-0.314
				c-0.06-0.084-0.135-0.156-0.23-0.201c-0.093-0.051-0.204-0.075-0.327-0.075c-0.159,0-0.321,0.058-0.486,0.171
				c-0.159,0.117-0.326,0.285-0.5,0.507v2.934c0,0.029-0.009,0.057-0.027,0.087c-0.024,0.026-0.051,0.042-0.107,0.057
				c-0.045,0.018-0.108,0.033-0.186,0.039c-0.078,0.009-0.18,0.015-0.3,0.015c-0.123,0-0.222-0.006-0.302-0.015
				c-0.078-0.006-0.144-0.021-0.192-0.039c-0.048-0.015-0.081-0.03-0.102-0.057c-0.018-0.03-0.027-0.058-0.027-0.087v-4.411
				c0-0.036,0.003-0.06,0.021-0.084c0.018-0.03,0.048-0.048,0.093-0.068c0.042-0.013,0.096-0.024,0.165-0.03
				c0.063-0.012,0.15-0.012,0.254-0.012c0.105,0,0.195,0,0.258,0.012c0.072,0.006,0.126,0.018,0.162,0.03
				c0.036,0.021,0.066,0.038,0.087,0.068c0.012,0.024,0.021,0.048,0.021,0.084v0.507c0.243-0.261,0.498-0.456,0.743-0.591
				c0.255-0.132,0.516-0.197,0.791-0.197c0.3,0,0.548,0.051,0.755,0.149c0.209,0.096,0.372,0.23,0.503,0.401
				c0.125,0.171,0.215,0.369,0.275,0.597c0.054,0.228,0.081,0.497,0.081,0.817V113.663z"/>
			<path fill-rule="evenodd" clip-rule="evenodd" fill="#4F8196" d="M180.337,113.663c0,0.029-0.012,0.057-0.03,0.087
				c-0.021,0.026-0.054,0.042-0.102,0.057c-0.045,0.018-0.108,0.033-0.188,0.039c-0.078,0.009-0.183,0.015-0.3,0.015
				c-0.123,0-0.228-0.006-0.306-0.015c-0.075-0.006-0.138-0.021-0.192-0.039c-0.045-0.015-0.078-0.03-0.099-0.057
				c-0.018-0.03-0.027-0.058-0.027-0.087v-4.402c0-0.029,0.009-0.06,0.027-0.084c0.021-0.026,0.054-0.045,0.099-0.065
				c0.054-0.019,0.117-0.033,0.192-0.042c0.078-0.012,0.183-0.012,0.306-0.012c0.117,0,0.222,0,0.3,0.012
				c0.081,0.009,0.144,0.023,0.188,0.042c0.048,0.021,0.081,0.039,0.102,0.065c0.018,0.024,0.03,0.055,0.03,0.084V113.663z
				 M180.436,107.76c0,0.246-0.06,0.426-0.159,0.519c-0.099,0.099-0.291,0.144-0.569,0.144c-0.279,0-0.468-0.045-0.566-0.141
				c-0.096-0.093-0.144-0.255-0.144-0.501c0-0.248,0.048-0.422,0.15-0.518c0.102-0.1,0.293-0.147,0.569-0.147
				c0.279,0,0.464,0.048,0.566,0.145C180.385,107.353,180.436,107.521,180.436,107.76z"/>
			<path fill-rule="evenodd" clip-rule="evenodd" fill="#4F8196" d="M184.188,113.226c0,0.144-0.006,0.257-0.024,0.338
				c-0.024,0.075-0.045,0.126-0.075,0.162c-0.03,0.03-0.075,0.06-0.132,0.081c-0.06,0.026-0.125,0.048-0.201,0.06
				c-0.078,0.024-0.162,0.039-0.254,0.045c-0.087,0.016-0.177,0.016-0.273,0.016c-0.246,0-0.458-0.03-0.641-0.094
				c-0.183-0.062-0.333-0.158-0.453-0.284c-0.117-0.135-0.204-0.3-0.261-0.494c-0.054-0.201-0.081-0.432-0.081-0.701v-2.263h-0.53
				c-0.063,0-0.114-0.039-0.144-0.113c-0.033-0.081-0.048-0.207-0.048-0.39c0-0.1,0.003-0.18,0.009-0.24
				c0.006-0.065,0.018-0.116,0.039-0.155c0.018-0.039,0.033-0.066,0.06-0.084c0.027-0.019,0.054-0.024,0.09-0.024h0.524v-0.985
				c0-0.03,0.006-0.063,0.024-0.09c0.021-0.024,0.051-0.045,0.102-0.063c0.045-0.021,0.111-0.033,0.188-0.039
				c0.084-0.009,0.183-0.015,0.3-0.015c0.126,0,0.225,0.006,0.303,0.015c0.083,0.006,0.146,0.019,0.191,0.039
				c0.051,0.019,0.075,0.039,0.102,0.063c0.018,0.026,0.03,0.06,0.03,0.09v0.985h0.959c0.033,0,0.06,0.006,0.084,0.024
				c0.024,0.018,0.048,0.045,0.063,0.084c0.018,0.039,0.027,0.09,0.033,0.155c0.012,0.061,0.015,0.141,0.015,0.24
				c0,0.183-0.015,0.309-0.048,0.39c-0.036,0.074-0.081,0.113-0.141,0.113h-0.965v2.073c0,0.237,0.039,0.42,0.114,0.543
				c0.072,0.116,0.207,0.18,0.404,0.18c0.063,0,0.123-0.012,0.18-0.019c0.054-0.012,0.096-0.023,0.138-0.038
				c0.042-0.019,0.075-0.03,0.099-0.039c0.033-0.016,0.06-0.021,0.081-0.021c0.024,0,0.039,0.006,0.054,0.021
				c0.021,0.009,0.036,0.032,0.045,0.068c0.015,0.036,0.018,0.081,0.024,0.141C184.185,113.058,184.188,113.132,184.188,113.226z"/>
			<path fill-rule="evenodd" clip-rule="evenodd" fill="#4F8196" d="M188.847,113.675c0,0.045-0.018,0.084-0.051,0.11
				c-0.033,0.024-0.084,0.042-0.159,0.055c-0.069,0.015-0.174,0.021-0.312,0.021c-0.147,0-0.258-0.006-0.327-0.021
				c-0.063-0.013-0.111-0.03-0.141-0.055c-0.03-0.026-0.042-0.065-0.042-0.11v-0.348c-0.177,0.191-0.389,0.345-0.623,0.452
				c-0.228,0.111-0.485,0.162-0.77,0.162c-0.234,0-0.453-0.03-0.645-0.096c-0.198-0.058-0.368-0.145-0.509-0.267
				c-0.146-0.117-0.258-0.27-0.333-0.447c-0.078-0.18-0.12-0.386-0.12-0.623c0-0.261,0.048-0.477,0.149-0.668
				c0.102-0.188,0.249-0.348,0.45-0.471c0.201-0.126,0.449-0.219,0.746-0.275c0.293-0.057,0.641-0.09,1.031-0.09h0.432v-0.264
				c0-0.141-0.018-0.261-0.045-0.362c-0.024-0.105-0.072-0.195-0.138-0.261c-0.066-0.069-0.15-0.12-0.254-0.153
				c-0.111-0.036-0.237-0.051-0.396-0.051c-0.21,0-0.396,0.021-0.561,0.069c-0.165,0.045-0.303,0.096-0.432,0.152
				c-0.125,0.054-0.23,0.108-0.317,0.153c-0.081,0.048-0.15,0.068-0.201,0.068c-0.036,0-0.069-0.012-0.099-0.029
				c-0.024-0.03-0.048-0.061-0.069-0.105c-0.018-0.042-0.027-0.093-0.042-0.155c-0.006-0.063-0.012-0.132-0.012-0.207
				c0-0.102,0.009-0.183,0.027-0.246c0.012-0.057,0.045-0.11,0.09-0.155c0.048-0.051,0.132-0.103,0.243-0.156
				c0.114-0.062,0.249-0.116,0.405-0.165c0.159-0.048,0.32-0.09,0.503-0.116c0.186-0.036,0.378-0.051,0.569-0.051
				c0.348,0,0.642,0.032,0.884,0.102c0.249,0.065,0.452,0.168,0.611,0.314c0.159,0.135,0.275,0.317,0.344,0.536
				c0.075,0.222,0.111,0.482,0.111,0.785V113.675z M187.625,111.787h-0.471c-0.204,0-0.377,0.015-0.519,0.045
				c-0.144,0.026-0.257,0.071-0.347,0.135c-0.09,0.054-0.153,0.132-0.195,0.216s-0.06,0.18-0.06,0.287
				c0,0.184,0.057,0.33,0.171,0.435c0.12,0.103,0.285,0.159,0.488,0.159c0.177,0,0.335-0.045,0.482-0.132
				c0.15-0.093,0.297-0.222,0.45-0.396V111.787z"/>
			<path fill-rule="evenodd" clip-rule="evenodd" fill="#4F8196" d="M191.328,113.663c0,0.029-0.009,0.057-0.024,0.087
				c-0.021,0.026-0.057,0.042-0.104,0.057c-0.045,0.018-0.111,0.033-0.186,0.039c-0.084,0.009-0.183,0.015-0.309,0.015
				c-0.12,0-0.219-0.006-0.3-0.015c-0.075-0.006-0.138-0.021-0.186-0.039c-0.054-0.015-0.084-0.03-0.105-0.057
				c-0.018-0.03-0.027-0.058-0.027-0.087v-6.503c0-0.032,0.009-0.06,0.027-0.09c0.021-0.023,0.051-0.048,0.105-0.065
				c0.048-0.019,0.111-0.03,0.186-0.039c0.081-0.015,0.18-0.021,0.3-0.021c0.126,0,0.225,0.007,0.309,0.021
				c0.075,0.009,0.141,0.021,0.186,0.039c0.048,0.018,0.083,0.042,0.104,0.065c0.015,0.03,0.024,0.058,0.024,0.09V113.663z"/>
			<path fill-rule="evenodd" clip-rule="evenodd" fill="#4F8196" d="M195.13,113.827l-0.537,1.564
				c-0.027,0.081-0.111,0.141-0.24,0.177c-0.132,0.036-0.326,0.057-0.581,0.057c-0.132,0-0.237-0.009-0.314-0.021
				c-0.078-0.009-0.141-0.027-0.18-0.057c-0.039-0.024-0.06-0.055-0.062-0.097c-0.006-0.039,0.012-0.093,0.03-0.144l0.59-1.48
				c-0.042-0.021-0.084-0.048-0.123-0.087c-0.033-0.039-0.057-0.087-0.072-0.135l-1.519-4.054c-0.042-0.114-0.063-0.201-0.063-0.264
				c0-0.057,0.018-0.105,0.057-0.138c0.039-0.039,0.108-0.063,0.201-0.078c0.093-0.015,0.219-0.015,0.375-0.015
				c0.144,0,0.254,0,0.335,0.006s0.147,0.015,0.192,0.032c0.045,0.024,0.081,0.055,0.104,0.097c0.027,0.042,0.045,0.096,0.072,0.174
				l1.037,2.951h0.015l0.947-3.012c0.021-0.087,0.045-0.141,0.075-0.168c0.033-0.029,0.081-0.051,0.159-0.065
				c0.075-0.015,0.201-0.015,0.381-0.015c0.141,0,0.258,0,0.351,0.015s0.168,0.039,0.207,0.078c0.048,0.032,0.066,0.084,0.069,0.144
				c0,0.06-0.012,0.132-0.039,0.216L195.13,113.827z"/>
			<path fill-rule="evenodd" clip-rule="evenodd" fill="#4F8196" d="M198.828,113.117c0,0.306-0.051,0.513-0.159,0.614
				c-0.108,0.108-0.299,0.162-0.575,0.162c-0.279,0-0.47-0.051-0.572-0.153c-0.108-0.104-0.159-0.303-0.159-0.596
				c0-0.309,0.051-0.519,0.159-0.62c0.105-0.105,0.299-0.156,0.584-0.159c0.27,0,0.458,0.054,0.569,0.159
				C198.777,112.626,198.828,112.823,198.828,113.117z"/>
			<path fill-rule="evenodd" clip-rule="evenodd" fill="#4F8196" d="M203.41,112.958c0,0.087-0.003,0.159-0.01,0.216
				c-0.009,0.061-0.012,0.105-0.021,0.15c-0.009,0.036-0.015,0.068-0.03,0.09c-0.012,0.026-0.032,0.06-0.074,0.099
				c-0.042,0.036-0.111,0.084-0.204,0.138s-0.204,0.1-0.323,0.145c-0.123,0.045-0.258,0.077-0.402,0.102
				c-0.141,0.03-0.287,0.039-0.44,0.039c-0.341,0-0.641-0.051-0.901-0.156c-0.264-0.104-0.482-0.261-0.659-0.461
				c-0.177-0.21-0.314-0.465-0.404-0.759c-0.091-0.299-0.136-0.638-0.136-1.019c0-0.443,0.055-0.824,0.162-1.145
				c0.111-0.32,0.267-0.587,0.468-0.8c0.194-0.21,0.426-0.365,0.701-0.468c0.267-0.104,0.566-0.152,0.89-0.152
				c0.132,0,0.261,0.009,0.387,0.032c0.126,0.024,0.246,0.055,0.356,0.091c0.108,0.045,0.21,0.087,0.294,0.138
				c0.09,0.045,0.149,0.09,0.188,0.129c0.036,0.032,0.06,0.065,0.069,0.093c0.018,0.023,0.029,0.054,0.039,0.093
				c0.012,0.039,0.018,0.09,0.021,0.149c0.006,0.058,0.009,0.126,0.009,0.207c0,0.191-0.018,0.326-0.051,0.404
				s-0.072,0.117-0.129,0.117c-0.054,0-0.11-0.024-0.18-0.072c-0.06-0.045-0.132-0.099-0.216-0.149
				c-0.087-0.061-0.188-0.111-0.312-0.156c-0.117-0.045-0.261-0.068-0.423-0.068c-0.32,0-0.572,0.122-0.746,0.374
				c-0.167,0.246-0.251,0.611-0.251,1.094c0,0.24,0.023,0.446,0.065,0.63c0.036,0.18,0.104,0.329,0.186,0.455
				c0.087,0.12,0.189,0.21,0.315,0.275c0.131,0.057,0.278,0.087,0.443,0.087c0.17,0,0.32-0.023,0.44-0.075
				c0.126-0.054,0.236-0.11,0.329-0.174c0.09-0.062,0.165-0.113,0.233-0.164c0.061-0.055,0.108-0.081,0.156-0.081
				c0.03,0,0.054,0.009,0.069,0.026c0.026,0.016,0.039,0.049,0.051,0.094c0.009,0.042,0.018,0.099,0.029,0.167
				C203.407,112.761,203.41,112.851,203.41,112.958z"/>
			<path fill-rule="evenodd" clip-rule="evenodd" fill="#4F8196" d="M208.77,111.409c0,0.378-0.051,0.72-0.156,1.031
				c-0.096,0.312-0.242,0.578-0.449,0.8c-0.2,0.222-0.452,0.398-0.752,0.519c-0.303,0.126-0.656,0.183-1.063,0.183
				c-0.39,0-0.731-0.051-1.022-0.162c-0.287-0.107-0.53-0.267-0.725-0.477c-0.195-0.206-0.33-0.464-0.426-0.767
				c-0.093-0.297-0.135-0.65-0.135-1.034c0-0.377,0.048-0.722,0.149-1.03c0.097-0.312,0.252-0.578,0.453-0.8
				c0.203-0.226,0.452-0.396,0.752-0.519c0.306-0.123,0.659-0.183,1.061-0.183c0.396,0,0.737,0.054,1.034,0.164
				c0.287,0.105,0.527,0.261,0.71,0.465c0.194,0.21,0.336,0.461,0.429,0.767S208.77,111.017,208.77,111.409z M207.491,111.463
				c0-0.219-0.021-0.419-0.061-0.596c-0.032-0.188-0.087-0.348-0.171-0.482c-0.083-0.135-0.191-0.243-0.332-0.317
				c-0.135-0.078-0.306-0.111-0.513-0.111c-0.188,0-0.345,0.033-0.488,0.099c-0.135,0.069-0.249,0.168-0.339,0.3
				c-0.087,0.126-0.152,0.285-0.2,0.468c-0.042,0.183-0.063,0.393-0.063,0.626c0,0.216,0.016,0.414,0.051,0.6
				c0.036,0.183,0.097,0.345,0.174,0.477c0.081,0.135,0.195,0.236,0.333,0.314c0.138,0.074,0.306,0.107,0.513,0.107
				c0.186,0,0.351-0.033,0.488-0.096c0.141-0.069,0.252-0.168,0.342-0.297c0.087-0.132,0.155-0.284,0.2-0.467
				C207.463,111.903,207.491,111.694,207.491,111.463z"/>
			<path fill-rule="evenodd" clip-rule="evenodd" fill="#4F8196" d="M216.764,113.663c0,0.029-0.012,0.057-0.026,0.087
				c-0.024,0.026-0.058,0.042-0.103,0.057c-0.045,0.018-0.104,0.033-0.188,0.039c-0.081,0.009-0.177,0.015-0.3,0.015
				c-0.126,0-0.228-0.006-0.306-0.015c-0.081-0.006-0.146-0.021-0.194-0.039c-0.045-0.015-0.078-0.03-0.097-0.057
				c-0.018-0.03-0.026-0.058-0.026-0.087v-2.616c0-0.149-0.019-0.285-0.042-0.404c-0.03-0.123-0.075-0.228-0.132-0.314
				c-0.057-0.084-0.126-0.156-0.216-0.201c-0.087-0.051-0.191-0.075-0.312-0.075c-0.15,0-0.3,0.058-0.452,0.171
				c-0.153,0.117-0.315,0.285-0.492,0.507v2.934c0,0.029-0.009,0.057-0.029,0.087c-0.021,0.026-0.058,0.042-0.103,0.057
				c-0.048,0.018-0.116,0.033-0.191,0.039c-0.078,0.009-0.174,0.015-0.294,0.015c-0.126,0-0.225-0.006-0.3-0.015
				c-0.083-0.006-0.149-0.021-0.194-0.039c-0.045-0.015-0.084-0.03-0.099-0.057c-0.024-0.03-0.033-0.058-0.033-0.087v-2.616
				c0-0.149-0.015-0.285-0.042-0.404c-0.027-0.123-0.065-0.228-0.126-0.314c-0.054-0.084-0.129-0.156-0.216-0.201
				c-0.09-0.051-0.194-0.075-0.312-0.075c-0.149,0-0.306,0.058-0.455,0.171c-0.15,0.117-0.312,0.285-0.488,0.507v2.934
				c0,0.029-0.016,0.057-0.03,0.087c-0.018,0.026-0.054,0.042-0.104,0.057c-0.046,0.018-0.108,0.033-0.189,0.039
				c-0.078,0.009-0.177,0.015-0.3,0.015c-0.122,0-0.225-0.006-0.299-0.015c-0.081-0.006-0.142-0.021-0.195-0.039
				c-0.045-0.015-0.081-0.03-0.099-0.057c-0.021-0.03-0.027-0.058-0.027-0.087v-4.411c0-0.036,0.006-0.06,0.021-0.084
				c0.015-0.03,0.048-0.048,0.093-0.068c0.039-0.013,0.093-0.024,0.162-0.03c0.065-0.012,0.155-0.012,0.254-0.012
				c0.108,0,0.195,0,0.264,0.012c0.069,0.006,0.12,0.018,0.162,0.03c0.033,0.021,0.062,0.038,0.075,0.068
				c0.018,0.024,0.026,0.048,0.026,0.084v0.507c0.243-0.261,0.488-0.456,0.731-0.591c0.246-0.132,0.494-0.197,0.761-0.197
				c0.177,0,0.342,0.021,0.489,0.06c0.141,0.033,0.272,0.09,0.386,0.162c0.114,0.068,0.21,0.155,0.297,0.251
				c0.081,0.1,0.146,0.21,0.207,0.336c0.135-0.144,0.258-0.267,0.384-0.371c0.128-0.103,0.257-0.181,0.377-0.246
				c0.12-0.066,0.252-0.114,0.372-0.141c0.122-0.036,0.248-0.051,0.377-0.051c0.294,0,0.54,0.051,0.743,0.149
				c0.204,0.096,0.362,0.23,0.485,0.401s0.213,0.369,0.264,0.597c0.055,0.228,0.081,0.467,0.081,0.722V113.663z"/>
		</g>
	</g>
	<g>
		<path fill="#4F8196" d="M133.333,76.109L133.333,76.109C133.327,76.154,133.33,76.131,133.333,76.109z"/>
		<path fill="#4F8196" d="M293.988,54.895c-0.084-1.738-0.746-5.316-3.533-4.941c-3.054,0.411-3.29,3.464-3.29,3.464h-0.006
			c-0.401,12.477-10.526,21.26-17.406,25.808c1.285-5.583,2.034-10.937,2.235-15.992c0.135-3.757-0.779-6.709-2.712-8.768
			c-1.837-1.957-4.471-2.99-7.809-3.08c-0.203-0.006-0.407-0.009-0.608-0.009c-4.306,0-9.708,1.531-13.076,8.103
			c-0.356-1.798-1.088-3.368-2.182-4.687c-1.594-1.924-3.865-2.939-6.567-2.939c-0.351,0-0.717,0.018-1.088,0.051
			c-2.25,0.21-4.83,1.699-8.396,4.854l-5.382,4.875c0.045-0.249,0.09-0.503,0.135-0.758c1.972-11.104,2.996-18.263,3.138-21.906
			c0.257-8.288-3.908-13.193-11.432-13.454c-0.204-0.009-0.41-0.012-0.614-0.012c-5.097,0-12.01,2.178-15.989,12.561l-1.438,3.754
			c-0.216,0.597-0.833,2.628,1.061,1.924l4.384-1.654c0.701-0.264,1.408-0.398,2.157-0.408c0.09,0.045,0.354,0.201,0.788,0.662
			c1.108,1.16,1.204,3.452,1.078,5.214c-0.814,5.436-1.597,10.832-2.318,16.031c-0.776,5.333-1.385,9.888-1.808,13.568
			c-0.021,0.018-0.045,0.033-0.065,0.051c-2.727,2.125-3.856,2.184-3.977,2.184c-0.141,0-0.239-0.012-0.305-0.021
			c-0.06-0.171-0.171-0.605-0.135-1.499c0.192-4.377,0.71-8.342,1.514-11.686c0.314-1.135,0.91-2.987,1.771-5.507l0.438-1.271
			l-0.629-1.189c-0.986-1.858-2.949-3.329-6.002-4.495c-2.649-1.013-5.648-1.525-8.947-1.525c-1.42,0-2.876,0.114-4.312,0.341
			c-8.222,1.271-14.967,5.25-20.046,11.827c-3.245,4.198-5.321,8.638-6.178,13.22c-2.379,1.534-4.489,2.311-6.278,2.311
			c-1.1,0-1.585-0.18-1.741-0.255c-0.012-0.057-0.018-0.15-0.015-0.291c0.111-3.626,0.687-8.336,1.708-14.029h4.618
			c2.127,0,3.709-1.408,3.901-3.404l0.875-4.177c0.336-1.681-0.33-2.801-0.758-3.323c-0.432-0.527-1.423-1.411-3.206-1.411h-2.963
			c0.683-3.248,1.246-5.951,1.705-8.147c1.621-7.419-1.87-8.495-2.921-8.653c-0.162-0.015-0.317-0.042-0.491-0.042
			c-1.525,0-3.253,0.386-5.227,1.159c0.001-0.003,0.004-0.006,0.004-0.006c-6.766,2.143-9.086,6.682-9.882,9.553l-1.023,6.137
			h-1.531c-2.056,0.003-3.633,1.306-3.969,3.257l-0.809,3.875c-0.186-1.864-0.766-3.512-1.735-4.92
			c-1.058-1.534-3.08-3.362-6.724-3.362c-0.334,0-0.684,0.018-1.06,0.051c-2.172,0.21-4.719,1.699-8.283,4.852l-5.871,5.373
			c-5.711-2.579-13.224-0.992-15.944-0.273c-0.003,0.003-0.003,0-0.007,0.003c-1.043,0.3-0.345-0.929-0.345-0.929h-0.001
			c3.179-5.807,15.264-30.479-8.95-30.479c-11.551,0-18.708,4.621-23.15,10.526c-0.484-5.798-4.114-10.526-14.706-10.526
			c-32.036,0-30.354,35.541-30.354,35.541s1.819,26.035,6.691,47.783c0.123,0.474,0.695,2.073,2.792,1.741
			c5.659-0.839,20.669-3.604,33.29-10.602c0.542,2.981,1.124,5.957,1.774,8.86c0.123,0.474,0.695,2.073,2.792,1.741
			c8.486-1.259,37.996-6.841,48.93-24.556c0.361,0.842,0.795,1.643,1.378,2.35c1.192,1.44,3.41,3.161,7.221,3.161
			c5.007,0,9.998-2.011,14.858-5.99c1.568,3.854,5.328,5.99,10.814,5.99c5.101,0,10.53-2.056,16.139-6.11
			c1.531,2.745,4.54,5.702,10.365,5.805l0.434,0.006c2.97,0,6.239-0.773,9.729-2.302c1.312-0.578,2.529-1.204,3.646-1.872
			c0.351,0.691,0.791,1.315,1.318,1.863c1.654,1.732,4.03,2.61,7.075,2.61c4.45,0,8.881-1.589,13.229-4.737
			c0.297,0.557,0.65,1.084,1.055,1.576c1.189,1.44,3.41,3.161,7.222,3.161c5.046,0,10.07-2.041,14.961-6.077
			c0.297,0.626,0.65,1.205,1.058,1.735c1.857,2.376,4.665,3.58,8.348,3.58c0.192,0,0.384-0.003,0.578-0.009
			c-0.89,0.561-1.692,1.103-2.412,1.627c-5.345,3.848-8.267,8.189-8.687,12.891c-0.374,4.021,0.504,7.228,2.602,9.531
			c2.244,2.463,5.756,3.713,10.442,3.713c5.866,0,11.446-3.416,16.582-10.158c3.664-4.82,6.918-11.155,9.688-18.838
			C289.771,83.18,294.266,66.382,293.988,54.895z M245.601,77.697c0.042-0.773,0.294-2.676,1.262-7.368
			c0.075-0.372,0.145-0.725,0.21-1.066l3.146-1.352c0.683-0.296,1.366-0.446,2.112-0.456c0.11,0.144,0.165,0.27,0.146,0.54
			l-0.006,0.12c-0.048,1.888-1.15,4.075-3.275,6.508c-1.633,1.876-2.819,2.736-3.596,3.128
			C245.601,77.733,245.601,77.715,245.601,77.697z M226.482,71.321h0.003c0,0,0.006,0.009,0.018,0.024l0.006,0.006
			c0.103,0.123,0.543,0.548,1.315-0.03l1.049-0.792c-0.233,0.815-0.536,1.852-0.926,3.176c-0.114,0.381-0.222,0.752-0.32,1.115
			c-0.896,0.884-1.918,1.81-3.054,2.754c-1.657,1.378-2.598,1.962-3.05,2.199c-0.042-0.228-0.078-0.587-0.066-1.126
			c0.003-0.45,0.198-2.451,1.702-11.228L226.482,71.321z M128.344,63.566l0.033-0.15c0,0,0.054-0.509,0.067-0.683
			c0.177,0.527,0.439,0.923,0.644,1.175c0.432,0.527,1.422,1.411,3.212,1.414h0.47c-0.64,3.809-1.163,7.158-1.562,10.005
			c-0.779,0.749-1.624,1.501-2.52,2.248c-1.662,1.384-2.601,1.965-3.053,2.205c-0.036-0.191-0.067-0.47-0.067-0.866
			C126.556,72.744,127.489,67.581,128.344,63.566z M25.79,105.327c-1.128,0.233-1.489-0.456-1.606-0.866
			c-3.78-19.135-5.353-39.954-5.474-41.629c-0.027-1.025-0.224-14.59,7.457-22.587c3.835-3.994,9.034-5.987,15.878-6.08
			c3.53,0,7.837,1.912,8.976,4.725c1.849,4.569-2.947,13.256-5.417,16.516l-5.007,6.607c0,0-6.868,9.124,5.215,5.831h0.001
			l7.019-2.298c0.014-0.006,3.569-1.126,7.455-1.126c2.174,0,5.07,0.359,6.522,2.073c1.564,1.849,1.955,5.678,1.101,10.787
			C64.87,95.229,38.688,102.711,25.79,105.327z M105.765,77.28c-3.039,17.948-29.215,25.428-42.114,28.047
			c-0.006,0-0.009-0.004-0.015,0c-1.04,0.215-1.428-0.351-1.575-0.762c-0.288-1.45-0.523-2.912-0.785-4.375
			c6.12-4.806,10.819-11.018,12.173-19.021c3.215-19.216-8.817-21.089-16.853-20.319c0.181-4.249,1.278-14.203,7.427-20.606
			c3.835-3.994,9.034-5.987,15.878-6.08c3.53,0,7.837,1.912,8.976,4.725c1.849,4.569-2.947,13.256-5.417,16.516l-5.007,6.607
			c0,0-6.868,9.124,5.215,5.831h0.001l7.019-2.298c0.014-0.006,3.569-1.126,7.455-1.126c2.174,0,5.07,0.359,6.522,2.073
			C106.228,68.342,106.619,72.171,105.765,77.28z M281.052,78.617c-4.021,3.65-9.304,7.117-16.208,10.155
			c-0.057,0.165-0.12,0.339-0.006,0.003c-0.737,0.354-1.441,0.762-2.221,1.103c-2.763,7.962-6.729,16.253-10.421,21.113
			c-0.53,0.698-1.063,1.351-1.601,1.965c-3.104,2.658-6.283,3.995-9.537,3.995c-7.239,0-10.551-3.281-9.942-9.844
			c0.198-2.235,1.16-4.384,2.841-6.451c0,0,5.702-7.351,20.181-12.055c0,0,1.681-3.401,2.14-7.572
			c-1.492,1.42-3.054,2.673-4.687,3.754c-3.938,2.64-7.878,4.093-11.814,4.363c-3.329,0.27-5.705-0.504-7.135-2.335
			c-1.105-1.426-1.603-3.458-1.522-6.067c-0.91,1.028-1.905,2.017-2.966,2.973v-0.003c-0.013,0.009-0.024,0.021-0.033,0.033
			c-0.123,0.108-0.23,0.219-0.354,0.327c-4.53,3.926-9.064,5.885-13.595,5.885c-2.101,0-3.706-0.674-4.821-2.028
			c-1.114-1.352-1.639-3.11-1.573-5.274c-0.491,0.482-0.991,0.956-1.519,1.417c-4.537,3.926-9.067,5.885-13.598,5.885
			c-4.398,0-6.493-2.262-6.29-6.796c-1.762,1.69-4.096,3.177-7.005,4.462c-3.245,1.42-6.188,2.098-8.827,2.031
			c-3.856-0.065-6.529-1.656-8.013-4.77c-0.449-0.923-0.776-1.93-0.992-3.014c-0.857,0.731-1.771,1.465-2.763,2.202
			c-5.276,3.926-10.215,5.885-14.815,5.888c-5.614-0.003-8.457-2.438-8.521-7.308c-0.014-0.599,0.01-1.345,0.064-2.22
			c-0.905,1.052-1.907,2.056-2.97,3.032c0.001-0.021,0.001-0.042,0.003-0.063c-0.141,0.162-0.295,0.315-0.439,0.474
			c-0.073,0.066-0.138,0.135-0.214,0.201c-4.528,3.923-9.063,5.882-13.593,5.882c-2.098,0-3.705-0.677-4.82-2.028
			c-1.118-1.352-1.641-3.113-1.575-5.277c0.066-2.232,0.761-5.681,2.083-10.35c1.318-4.668,1.978-7.17,1.978-7.509
			c0-1.759-0.609-2.637-1.828-2.64c-0.404,0.003-1.557,0.713-3.449,2.13l-2.201-2.58c1.131-1.025,2.263-2.049,3.392-3.074
			c2.908-2.571,5.074-3.922,6.495-4.057c2.232-0.204,3.872,0.456,4.922,1.978c1.047,1.522,1.437,3.5,1.166,5.936
			c-0.879,4.126-1.828,9.37-2.841,15.728c-0.067,2.91,0.98,4.363,3.146,4.363c0.947,0,2.638-1.016,5.071-3.044
			c1.32-1.097,2.502-2.409,3.506-3.425c0.006-0.039,0.003-0.021,0,0c1.092-0.932,2.068-1.837,2.933-2.709
			c0.523-3.868,1.293-8.722,2.312-14.592l-4.159,0.003c-0.745-0.003-1.049-0.338-0.912-1.019l0.44-2.104l5.139-0.027l0.875-5.747
			l1.157-6.937c0.049-0.296,0.162-0.593,0.302-0.89c0.513-0.339,1.071-0.674,1.701-1.01c2.841-1.486,5.14-2.232,6.9-2.232
			c0.944,0,1.352,0.272,1.22,0.812c-0.611,2.976-1.726,8.318-3.351,16.031h6.797c0.743,0,1.049,0.341,0.917,1.016l-0.44,2.104
			l-5.52,0.003c-0.998-0.015-2.485,0.009-2.485,0.009l-0.485,2.96c-1.356,7.035-2.099,12.716-2.234,17.043
			c-0.067,2.505,1.555,3.754,4.872,3.754c2.502,0,5.276-1.016,8.321-3.044c0.285-0.189,0.542-0.387,0.818-0.578
			c2.083-1.576,2.967-2.97,2.967-2.97c0.599-4.524,2.517-8.899,5.777-13.118c0.38-0.488,0.782-0.938,1.181-1.396
			c3.898-3.347,8.528-5.457,13.912-6.29c1.286-0.201,2.571-0.306,3.856-0.306c2.906,0,5.513,0.44,7.812,1.321
			c2.301,0.878,3.757,1.894,4.363,3.042c-0.878,2.574-1.486,4.467-1.825,5.684c-0.878,3.652-1.42,7.779-1.621,12.378
			c-0.138,3.182,1.046,4.768,3.548,4.771c1.489,0,3.452-0.947,5.888-2.844c0.381-0.285,0.743-0.575,1.103-0.869
			c0,0,2.724-2.131,2.967-2.967c0.426-3.88,1.072-8.794,1.938-14.76c0.746-5.342,1.522-10.718,2.334-16.132
			c0.272-3.518-0.371-6.089-1.927-7.71c-1.013-1.082-1.995-1.624-2.942-1.624c-1.15,0-2.265,0.201-3.347,0.608
			c0.803-2.095,1.759-3.872,2.855-5.343c2.196-1.585,4.782-2.337,7.772-2.241c5.816,0.204,8.624,3.62,8.42,10.248
			c-0.135,3.449-1.165,10.604-3.092,21.46c-1.927,10.859-2.892,16.962-2.892,18.317c-0.069,2.91,0.979,4.363,3.143,4.363
			c0.947,0,2.638-1.016,5.073-3.044c1.48-1.234,2.76-2.412,3.845-3.539c1.088-0.944,2.121-2.092,2.969-2.97
			c0.162-0.59,0.333-1.198,0.521-1.84c1.217-4.123,1.825-6.253,1.825-6.391c0.065-1.756-0.542-2.637-1.828-2.637
			c-0.407,0-1.558,0.71-3.448,2.13l-2.203-2.583c1.133-1.025,2.263-2.049,3.396-3.074c2.906-2.571,5.105-3.922,6.595-4.06
			c2.163-0.201,3.82,0.39,4.968,1.777c1.154,1.387,1.729,3.197,1.729,5.433c0,1.282-0.372,3.784-1.118,7.506
			c-0.812,3.925-1.252,6.529-1.318,7.812c-0.068,2.436,0.614,3.652,2.047,3.656c0.188,0,0.387-0.027,0.584-0.054
			c0.013,0,0.021,0,0.033-0.003c0.959-0.303,1.852-0.671,2.685-1.088c5.259-2.627,8.066-7.215,9.438-10.322
			c0.647-1.462,0.978-2.592,1.094-3.039c0.013-0.069,0.027-0.135,0.039-0.201c0.072-0.422,0.126-0.839,0.138-1.252
			c0.066-1.013-0.206-1.912-0.827-2.688c-0.617-0.779-1.408-1.166-2.366-1.166c-1.169,0-2.305,0.237-3.401,0.71
			c0.629-2.325,1.483-4.261,2.562-5.819c1.895-1.261,4.175-1.854,6.851-1.768c5.207,0.138,7.709,3.011,7.509,8.626
			c-0.273,6.955-1.621,14.452-4.055,22.485c0.776-0.356,9.676-4.561,16.744-12.306c3.395-3.11,6.682-10.466,8.908-15.063
			C288.693,68.648,286.278,72.834,281.052,78.617z"/>
		<path fill="#4F8196" d="M236.846,107.718c1.231,5.217,12.576-8.507,15.32-14.179C252.167,93.539,235.618,102.504,236.846,107.718z
			"/>
		<path fill="#4F8196" d="M187.004,60.677c-2.703-1.857-8.135,1.346-12.126,7.152c-3.994,5.81-5.04,12.025-2.337,13.885
			c2.706,1.861,8.135-1.345,12.129-7.155C188.661,68.753,189.71,62.538,187.004,60.677z M182.974,68.124
			c-0.102,1.804-1.169,4.189-3.089,6.9c-1.669,2.364-3.305,3.755-4.528,3.851c-0.042-0.204-0.081-0.536-0.069-1.046
			c0.033-1.094,0.558-3.074,2.876-6.307c1.187-1.663,2.937-3.638,4.827-4.087C182.992,67.629,182.986,67.857,182.974,68.124z"/>
		<path fill="#4F8196" d="M264.844,88.771c0,0-0.003,0.003-0.006,0.003C264.841,88.774,264.844,88.771,264.844,88.771
			c0.03-0.084,0.057-0.159,0.063-0.171C264.898,88.622,264.872,88.693,264.844,88.771z"/>
	</g>
	<path fill="#4F8196" d="M108.113,33.497l-13.668-9.693c-0.001-0.003-0.001-0.003-0.001-0.003c-1.51-0.977-1.662-2.229-1.638-2.823
		l1.215-9.42c0.154-1.189-0.633-2.298-1.808-2.547l-7.287-1.534c-0.626-0.129-1.294,0.006-1.819,0.386
		c-0.526,0.377-0.868,0.962-0.941,1.606l-0.493,4.309c-0.085,0.836-0.654,0.5-0.816,0.387l-0.03-0.021
		c-0.004-0.003-0.015-0.012-0.015-0.012L61.483,0.423c-0.707-0.5-1.632-0.56-2.398-0.162L1.715,30.267
		c-0.727,0.38-1.196,1.118-1.231,1.936L0,43.146c0.02,0.183,0.178,1.034,1.491,0.303l-0.001,0.006L58.576,9.316
		c1.028-0.618,2.324-0.576,3.311,0.104l44.889,30.824l0.004-0.009c0,0,0.874,0.692,1.224-0.356l1.005-3.937
		C109.246,35.02,108.889,34.048,108.113,33.497z"/>
</g>
</svg>
