<?xml version="1.0" standalone="no"?>
<!DOCTYPE svg PUBLIC "-//W3C//DTD SVG 1.1//EN" "http://www.w3.org/Graphics/SVG/1.1/DTD/svg11.dtd" >
<svg xmlns="http://www.w3.org/2000/svg">
<metadata></metadata>
<defs>
<font id="aller_displayregular" horiz-adv-x="973" >
<font-face units-per-em="2048" ascent="1638" descent="-410" />
<missing-glyph horiz-adv-x="445" />
<glyph horiz-adv-x="2048" />
<glyph horiz-adv-x="2048" />
<glyph unicode="&#xd;" horiz-adv-x="1013" />
<glyph unicode=" "  horiz-adv-x="445" />
<glyph unicode="&#x09;" horiz-adv-x="445" />
<glyph unicode="&#xa0;" horiz-adv-x="445" />
<glyph unicode="!" horiz-adv-x="611" d="M122 174q0 39 4 80.5t10 88.5q46 7 87.5 11t82.5 4q40 0 82 -4t88 -11q6 -47 10.5 -88.5t4.5 -80.5q0 -38 -4.5 -81t-10.5 -89q-46 -8 -88 -12t-82 -4q-41 0 -82.5 4t-87.5 12q-6 46 -10 89t-4 81zM126 1458q48 8 93.5 10t86.5 2q40 0 85 -2t96 -10l-19 -945 q-50 -10 -88.5 -14t-73.5 -4q-62 0 -162 18z" />
<glyph unicode="&#x22;" horiz-adv-x="923" d="M81 868v585q35 8 79.5 12.5t79.5 4.5q34 0 78.5 -4t78.5 -13v-585q-35 -8 -79.5 -12.5t-77.5 -4.5q-35 0 -79.5 4t-79.5 13zM527 868v585q35 8 79.5 12.5t79.5 4.5q34 0 78.5 -4t78.5 -13v-585q-35 -8 -79.5 -12.5t-77.5 -4.5q-35 0 -79.5 4t-79.5 13z" />
<glyph unicode="#" horiz-adv-x="1416" d="M91 519q0 30 3 59.5t7 62.5h234l17 222h-212q-12 63 -12 120q0 31 3 59t9 61h233l24 292q41 8 72.5 10t66.5 2q32 0 64.5 -2t68.5 -10l-25 -292h201l25 292q41 8 72 10t64 2t65 -2t70 -10l-24 -292h197q6 -33 9 -60t3 -56q0 -60 -12 -124h-217l-18 -222h198 q4 -33 7 -61.5t3 -56.5q0 -29 -3 -59t-7 -62h-219l-26 -340q-39 -8 -71 -10t-65 -2q-35 0 -67 2t-69 10l27 340h-201l-27 -340q-40 -8 -71.5 -10t-65.5 -2q-31 0 -63 2t-73 10l28 340h-213q-4 33 -7 61t-3 56zM606 641h201l19 222h-201z" />
<glyph unicode="$" horiz-adv-x="1186" d="M81 62q8 74 27.5 149t47.5 160q95 -40 172.5 -59.5t147.5 -19.5q101 0 156 33t55 105q0 62 -47.5 95.5t-116.5 62.5l-107 45q-61 26 -115.5 58.5t-94.5 78t-63 107.5t-23 147q0 178 96 285t266 136v184q33 9 65.5 12t54.5 3q23 0 56 -3t64 -12v-178q71 -8 143 -26 t153 -46q-14 -136 -83 -288q-70 31 -136.5 51t-171.5 20q-27 0 -52.5 -3.5t-46.5 -14t-34.5 -30t-13.5 -52.5q0 -58 41.5 -88t90.5 -47l114 -43q69 -27 130 -59t107.5 -81t73.5 -120t27 -174q0 -164 -88 -282t-254 -164v-240q-31 -10 -64 -12.5t-56 -2.5t-55 2.5t-65 12.5 v213q-58 0 -107.5 5.5t-97.5 15.5t-94.5 26.5t-101.5 37.5z" />
<glyph unicode="%" horiz-adv-x="2059" d="M67 1024q0 83 23.5 161t71 139t120 97.5t174.5 36.5q99 0 172.5 -36.5t122 -97.5t71.5 -139t23 -161q0 -84 -23 -161.5t-71.5 -138.5t-122 -97.5t-172.5 -36.5q-101 0 -174 36.5t-120.5 97.5t-71 138.5t-23.5 161.5zM345 1024q0 -91 26 -148t85 -57t85 57t26 148 q0 93 -26 148t-85 55q-58 0 -84.5 -55t-26.5 -148zM457 4l837 1433q35 6 74 9t76 3q33 0 69.5 -1t90.5 -11l-837 -1433q-35 -6 -74.5 -9t-75.5 -3q-32 0 -69 1t-91 11zM1214 412q0 83 23.5 161t71 139t120 97.5t174.5 36.5q99 0 172.5 -36.5t122 -97.5t71.5 -139t23 -161 q0 -84 -23 -161.5t-71.5 -138.5t-122 -97.5t-172.5 -36.5q-101 0 -174 36.5t-120.5 97.5t-71 138.5t-23.5 161.5zM1492 412q0 -91 26 -148t85 -57t85 57t26 148q0 93 -26 148t-85 55q-58 0 -84.5 -55t-26.5 -148z" />
<glyph unicode="&#x26;" horiz-adv-x="1467" d="M77 428q0 65 16.5 123.5t43.5 107.5t63 87.5t73 64.5q-56 46 -97.5 118.5t-41.5 169.5q0 95 35.5 167t98.5 120t146 72t178 24q60 0 137.5 -9t164.5 -41q4 -76 -17.5 -140.5t-61.5 -123.5q-77 29 -125.5 35t-83.5 6q-73 0 -105.5 -36.5t-32.5 -83.5q0 -52 32 -89t104 -37 h335l214 272q33 9 100 3v-275h188q10 -38 12 -70t2 -61q0 -35 -2 -66.5t-12 -74.5h-188v-198q0 -128 -43.5 -224.5t-124.5 -161t-197 -97.5t-257 -33q-105 0 -204.5 25t-178 78.5t-125 139.5t-46.5 208zM445 482q0 -95 53 -152t163 -57q81 0 131.5 25t80 64.5t41 90 t11.5 104.5v134h-288q-90 0 -141 -58.5t-51 -150.5z" />
<glyph unicode="'" horiz-adv-x="478" d="M81 868v585q35 8 79.5 12.5t79.5 4.5q34 0 78.5 -4t78.5 -13v-585q-35 -8 -79.5 -12.5t-77.5 -4.5q-35 0 -79.5 4t-79.5 13z" />
<glyph unicode="(" horiz-adv-x="743" d="M101 619q0 162 18.5 302.5t51 259.5t74 216t88.5 170q28 10 74.5 14.5t87.5 4.5q39 0 91.5 -6.5t96.5 -16.5q-25 -42 -64 -126.5t-77.5 -206t-66 -276.5t-27.5 -335t27.5 -335.5t66 -277.5t78 -206t63.5 -127q-44 -10 -96.5 -15.5t-91.5 -5.5q-41 0 -87.5 3.5t-74.5 13.5 q-47 74 -88.5 171.5t-74 215.5t-51 259t-18.5 304z" />
<glyph unicode=")" horiz-adv-x="743" d="M60 -327q25 43 64.5 127t78.5 206t66 277t27 336q0 180 -27 335t-66 276.5t-78.5 206t-64.5 126.5q45 10 98 16.5t91 6.5q41 0 87.5 -4.5t75.5 -14.5q46 -73 88 -170t74 -216t50.5 -259.5t18.5 -302.5q0 -163 -18.5 -304t-50.5 -259t-74 -215.5t-88 -171.5 q-29 -10 -75.5 -13.5t-87.5 -3.5q-38 0 -91 5.5t-98 15.5z" />
<glyph unicode="*" horiz-adv-x="940" d="M33 1058q4 51 22 99t38 87l255 -56l23 265q29 4 52 7.5t41 3.5q23 0 48.5 -3t52.5 -8l25 -265l253 59q29 -46 43 -95t23 -90l-248 -105l146 -231q-35 -35 -75.5 -64t-87.5 -52l-174 199l-174 -201q-45 23 -85.5 52t-74.5 64l142 231zM327 967q36 -23 71.5 -48t69.5 -56 q74 63 142 104q-20 45 -33.5 88.5t-23.5 83.5q-26 -3 -47.5 -3h-41.5q-34 0 -77 5q-10 -46 -25.5 -89.5t-34.5 -84.5z" />
<glyph unicode="+" horiz-adv-x="1173" d="M130 716q0 34 4 69.5t10 75.5h298v323q38 8 72.5 12t71.5 4q35 0 70 -4t76 -12v-323h296q8 -40 12 -74.5t4 -68.5q0 -35 -3.5 -70.5t-12.5 -75.5h-296v-323q-41 -7 -75 -11t-69 -4q-65 0 -146 15v323h-298q-6 41 -10 74t-4 70z" />
<glyph unicode="," horiz-adv-x="611" d="M49 -217l139 542q45 10 84.5 15t72.5 5q32 0 79.5 -5t100.5 -19l-154 -542q-48 -12 -86.5 -15.5t-69.5 -3.5q-33 0 -70 4.5t-96 18.5z" />
<glyph unicode="-" horiz-adv-x="747" d="M85 553q0 70 18 155h543q10 -43 13.5 -80.5t3.5 -72.5q0 -34 -3 -72t-14 -81h-543q-18 84 -18 151z" />
<glyph unicode="." horiz-adv-x="599" d="M112 176q0 41 4 83.5t12 88.5q46 6 88.5 10.5t83.5 4.5t83.5 -4.5t88.5 -10.5q8 -46 12.5 -88.5t4.5 -83.5q0 -40 -4.5 -83t-12.5 -89q-46 -8 -88.5 -12t-83.5 -4t-83.5 4t-88.5 12q-8 46 -12 89t-4 83z" />
<glyph unicode="/" horiz-adv-x="842" d="M10 4l491 1449q43 8 81.5 12.5t78.5 4.5q35 0 77 -3t96 -14l-491 -1449q-43 -8 -81.5 -12t-79.5 -4q-34 0 -77 3t-95 13z" />
<glyph unicode="0" horiz-adv-x="1211" d="M77 655q0 146 32.5 271.5t97 218t165 145t238.5 52.5q135 0 234.5 -52.5t164.5 -145t96 -218t31 -271.5q0 -145 -33 -269.5t-98 -215.5t-166 -143t-237 -52t-235.5 52t-163 143t-95 215t-31.5 270zM436 655q0 -188 45.5 -283.5t124.5 -95.5q77 0 121.5 95t44.5 284 q0 191 -44.5 286.5t-121.5 95.5q-81 0 -125.5 -96t-44.5 -286z" />
<glyph unicode="1" horiz-adv-x="1086" d="M77 1072l594 254h87v-1022h260q18 -79 19 -150q0 -75 -19 -154h-868q-17 79 -18 154q0 72 18 150h264v576l-219 -85q-18 27 -36.5 61t-34.5 70.5t-28.5 74.5t-18.5 71z" />
<glyph unicode="2" horiz-adv-x="1070" d="M33 58l360 476q93 125 139 211.5t46 154.5q0 62 -45.5 100.5t-126.5 38.5q-77 0 -144 -28t-120 -58q-33 72 -57.5 144.5t-28.5 149.5q70 39 169.5 67t224.5 28q103 0 191.5 -24t153 -74t101.5 -125t37 -179q0 -73 -18.5 -137.5t-46.5 -123t-64 -111.5t-70 -102l-115 -162 h354q18 -85 18 -148q0 -71 -18 -156h-917z" />
<glyph unicode="3" horiz-adv-x="1091" d="M20 -61q4 75 29.5 152t59.5 138q77 -27 148.5 -44t149.5 -17q120 0 190 48.5t70 147.5q0 43 -18 75.5t-49 54t-69.5 32t-80.5 10.5q-33 0 -68 -2.5t-82 -14.5l-44 66l249 433h-408q-18 79 -18 153q0 73 18 153h857l37 -57l-288 -497q146 -27 227.5 -127.5t81.5 -257.5 q0 -126 -45.5 -223.5t-126 -163t-188.5 -99.5t-232 -34q-57 0 -106 3.5t-96.5 12.5t-95 22.5t-102.5 35.5z" />
<glyph unicode="4" horiz-adv-x="1271" d="M54 188l546 1168q79 -10 155.5 -35.5t146.5 -80.5l-368 -812h200v226q44 10 85.5 13.5t82.5 3.5q38 0 80 -3.5t84 -13.5v-226h108q18 -80 18 -151t-18 -149h-108v-240q-42 -10 -84 -13t-80 -3q-41 0 -82.5 3t-85.5 13v240h-645z" />
<glyph unicode="5" horiz-adv-x="1091" d="M27 -65q2 38 11 79.5t21 81.5t25 75t28 64q79 -29 144 -44t125 -15q73 0 123.5 16.5t81.5 41.5t44 58.5t13 69.5q0 77 -54.5 124t-174.5 47q-49 0 -105 -11t-116 -40l-53 35l30 807h741q18 -86 18 -149q0 -71 -18 -155h-429l-4 -211q18 4 35 4h38q99 0 182.5 -29 t142.5 -83.5t91.5 -135.5t32.5 -186q0 -126 -42.5 -221.5t-123 -160t-194 -97.5t-253.5 -33q-27 0 -66 4.5t-88 11.5t-102.5 20.5t-103.5 31.5z" />
<glyph unicode="6" horiz-adv-x="1207" d="M101 565q0 171 46.5 326t145 279t251.5 205t364 99q16 -16 30 -57.5t14 -100.5q0 -49 -5.5 -87.5t-15.5 -62.5q-80 -6 -150.5 -29.5t-129.5 -61.5t-102.5 -89t-66.5 -114l6 -4q23 29 83 52.5t145 23.5q87 0 162.5 -26t133.5 -82t92 -143t34 -211t-41 -218t-110.5 -157.5 t-163 -96.5t-198.5 -33q-256 0 -390 146t-134 442zM453 476q0 -108 46.5 -162.5t118.5 -54.5q73 0 124 51t51 156q0 110 -47.5 159.5t-118.5 49.5q-77 0 -125.5 -50.5t-48.5 -148.5z" />
<glyph unicode="7" horiz-adv-x="1114" d="M51 1175q0 62 18 149h985l31 -55l-578 -1418q-85 20 -157 47t-153 81l426 1039h-554q-10 42 -14 82.5t-4 74.5z" />
<glyph unicode="8" horiz-adv-x="1177" d="M75 404q0 134 63 225t154 143q-79 53 -118.5 128t-39.5 166q0 87 35.5 159.5t96.5 124t144 80t178 28.5q97 0 180 -28.5t144 -80t96 -124t35 -159.5q0 -91 -42 -165.5t-119 -128.5q93 -50 157 -142t64 -226q0 -114 -43.5 -194t-117 -131.5t-165.5 -76.5t-189 -25 t-189.5 25t-164.5 76.5t-115.5 131.5t-43.5 194zM414 418q0 -72 44.5 -118.5t129.5 -46.5q89 0 132.5 46.5t43.5 118.5q0 77 -50.5 129.5t-127.5 79.5q-77 -27 -124.5 -79.5t-47.5 -129.5zM454 1068q0 -62 37.5 -105.5t96.5 -66.5q62 23 99 65.5t37 106.5q0 51 -34 88.5 t-100 37.5q-67 0 -101.5 -37.5t-34.5 -88.5z" />
<glyph unicode="9" horiz-adv-x="1207" d="M73 839q0 124 40.5 218t110.5 158t163.5 96.5t198.5 32.5q255 0 389 -146t134 -442q0 -170 -46.5 -326.5t-144.5 -279t-251.5 -204t-364.5 -99.5q-16 16 -30.5 57.5t-14.5 101.5q0 48 6.5 87t16.5 62q79 6 150 30t130 61t102.5 89t65.5 114l-6 4q-23 -28 -82.5 -52 t-144.5 -24q-87 0 -163.5 26.5t-134 82t-91 143t-33.5 210.5zM418 855q0 -110 47.5 -159.5t118.5 -49.5q77 0 125.5 50.5t48.5 148.5q0 108 -46.5 162.5t-119.5 54.5t-123.5 -51t-50.5 -156z" />
<glyph unicode=":" horiz-adv-x="599" d="M112 176q0 41 4 83.5t12 88.5q46 6 88.5 10.5t83.5 4.5t83.5 -4.5t88.5 -10.5q8 -46 12.5 -88.5t4.5 -83.5q0 -40 -4.5 -83t-12.5 -89q-46 -8 -88.5 -12t-83.5 -4t-83.5 4t-88.5 12q-8 46 -12 89t-4 83zM112 861q0 41 4 83.5t12 88.5q46 6 88.5 10.5t83.5 4.5t83.5 -4.5 t88.5 -10.5q8 -46 12.5 -88.5t4.5 -83.5q0 -40 -4.5 -83t-12.5 -89q-46 -8 -88.5 -12t-83.5 -4t-83.5 4t-88.5 12q-8 46 -12 89t-4 83z" />
<glyph unicode=";" horiz-adv-x="648" d="M37 -217l139 542q45 10 84.5 15t72.5 5q32 0 79.5 -5t100.5 -19l-154 -542q-48 -12 -86.5 -15.5t-69.5 -3.5q-33 0 -70 4.5t-96 18.5zM161 861q0 41 4 83.5t12 88.5q46 6 88.5 10.5t83.5 4.5t83.5 -4.5t88.5 -10.5q8 -46 12.5 -88.5t4.5 -83.5q0 -40 -4.5 -83t-12.5 -89 q-46 -8 -88.5 -12t-83.5 -4t-83.5 4t-88.5 12q-8 46 -12 89t-4 83z" />
<glyph unicode="&#x3c;" horiz-adv-x="1173" d="M148 722q0 75 20 148l842 343q8 -35 12 -87t4 -80q0 -34 -1 -69t-11 -75l-527 -186l527 -176q10 -41 11 -77.5t1 -71.5q0 -14 -1 -36t-3 -46.5t-5 -47.5t-7 -42l-842 342q-20 83 -20 161z" />
<glyph unicode="=" horiz-adv-x="1173" d="M130 497q0 34 4 69.5t10 75.5h884q8 -40 12 -74.5t4 -68.5q0 -35 -3.5 -70.5t-12.5 -75.5h-884q-6 41 -10 74t-4 70zM130 933q0 34 4 69.5t10 75.5h884q8 -40 12 -74.5t4 -68.5q0 -35 -3.5 -70.5t-12.5 -75.5h-884q-6 41 -10 74t-4 70z" />
<glyph unicode="&#x3e;" horiz-adv-x="1173" d="M148 391q0 35 1 71.5t11 77.5l527 176l-527 186q-10 40 -11 75t-1 69q0 29 4 80.5t12 86.5l842 -343q20 -73 20 -148q0 -78 -20 -161l-842 -342q-4 18 -7 41.5t-5 48t-3 46.5t-1 36z" />
<glyph unicode="?" horiz-adv-x="970" d="M67 1385q57 20 104.5 34.5t91 22t86 12t89.5 4.5q245 0 369 -111.5t124 -307.5q0 -90 -31.5 -157t-77.5 -113.5t-96.5 -77t-90.5 -48.5v-185q-45 -6 -87.5 -9.5t-77.5 -3.5q-36 0 -78 3.5t-82 9.5v382q52 5 103 18.5t91 36t64 55.5t24 80q0 69 -50.5 104.5t-135.5 35.5 q-39 0 -69.5 -3t-59.5 -10.5t-62 -17.5t-71 -24q-12 26 -25.5 61t-23.5 71t-18 71.5t-10 66.5zM276 176q0 41 4 83.5t12 88.5q47 6 89.5 10.5t82.5 4.5q41 0 83.5 -4.5t89.5 -10.5q7 -46 11 -88.5t4 -83.5q0 -40 -4 -83t-11 -89q-47 -8 -89.5 -12t-83.5 -4q-40 0 -82.5 4 t-89.5 12q-8 46 -12 89t-4 83z" />
<glyph unicode="@" horiz-adv-x="1990" d="M65 448q0 118 28.5 239.5t87.5 236.5t147 215.5t207.5 176t271.5 119t338 43.5q165 0 308 -43.5t247.5 -130.5t165.5 -217t61 -302q0 -126 -42 -248.5t-119 -219t-185.5 -156.5t-242.5 -60q-143 0 -221 71q-57 -28 -119.5 -49.5t-159.5 -21.5q-66 0 -124.5 20.5 t-103.5 62t-70 106t-25 155.5q0 135 45.5 249.5t124.5 197.5t183.5 128.5t222.5 45.5q87 0 177 -14.5t175 -45.5l-125 -663q18 -6 50 -6q69 0 123 41.5t90.5 106t55.5 144t19 156.5q0 215 -136.5 336t-397.5 121q-182 0 -328 -65.5t-245 -176t-151.5 -252.5t-52.5 -294 q0 -133 41.5 -231.5t112 -162.5t166 -94.5t203.5 -30.5q101 0 190 14t169 45q50 -116 77 -215q-81 -40 -210 -61.5t-258 -21.5q-159 0 -299 46.5t-244.5 139.5t-166 234t-61.5 332zM813 489q0 -77 32.5 -111.5t87.5 -34.5q30 0 56.5 2.5t54.5 12.5l78 455q-16 2 -28.5 3 t-29.5 1q-58 0 -104.5 -27.5t-79.5 -73t-50 -105.5t-17 -122z" />
<glyph unicode="A" horiz-adv-x="1300" d="M10 8l454 1447q53 6 98.5 10.5t92.5 4.5q39 0 84.5 -4t103.5 -11l449 -1449q-116 -18 -203 -18q-41 0 -81.5 4t-86.5 12l-78 282q-56 -16 -108 -24.5t-102 -8.5q-47 0 -95.5 7t-101.5 22l-75 -278q-46 -8 -84.5 -12t-75.5 -4t-84.5 5t-106.5 15zM509 553q35 -9 65 -15 t63 -6q34 0 67.5 5t69.5 14l-130 523z" />
<glyph unicode="B" horiz-adv-x="1209" d="M122 4v1449q77 12 168 20.5t213 8.5q116 0 216 -19.5t175 -65t118.5 -121.5t43.5 -191q0 -95 -42.5 -173t-107.5 -121q46 -18 90 -47.5t77.5 -73t53.5 -104.5t20 -140q0 -134 -48.5 -221t-133.5 -138t-203 -71.5t-255 -20.5q-110 0 -197 8.5t-188 20.5zM472 271 q14 -2 36 -3t55 -1q39 0 78.5 8.5t72 28t52 52.5t19.5 84q0 97 -64 134.5t-166 37.5h-83v-341zM472 900h58q87 0 135.5 35.5t48.5 122.5q0 43 -17.5 71t-43.5 44.5t-59 22.5t-62 6h-30t-30 -2v-300z" />
<glyph unicode="C" horiz-adv-x="1234" d="M83 726q0 162 46.5 301t134.5 240t218 158t294 57q97 0 184.5 -14.5t194.5 -56.5q-4 -83 -30 -161t-55 -137q-40 14 -73.5 24t-64 16t-60.5 9.5t-65 3.5q-164 0 -254.5 -111t-90.5 -329q0 -430 361 -430q65 0 123 12.5t141 39.5q67 -145 89 -299q-58 -23 -109 -37 t-97.5 -21t-92 -10.5t-94.5 -3.5q-172 0 -303.5 56t-219.5 155.5t-132.5 237t-44.5 300.5z" />
<glyph unicode="D" horiz-adv-x="1387" d="M122 6v1447q30 4 77 9.5t101 9.5t112 7t113 3q383 0 582 -191.5t199 -570.5q0 -385 -203 -565t-600 -180q-101 0 -195.5 9.5t-185.5 21.5zM480 294q14 -2 33 -2h38q80 0 149.5 19.5t120.5 68t80.5 131.5t29.5 213q0 127 -30.5 212.5t-80.5 135.5t-116.5 71t-140.5 21 q-40 0 -58 -1t-25 -1v-868z" />
<glyph unicode="E" horiz-adv-x="1068" d="M122 0v1458h855q8 -44 12.5 -83t4.5 -73q0 -67 -17 -161h-497v-222h392q18 -89 18 -159q0 -71 -18 -158h-392v-288h509q18 -85 19 -154q0 -75 -19 -160h-867z" />
<glyph unicode="F" horiz-adv-x="1033" d="M122 6v1452h855q8 -44 12.5 -83t4.5 -73q0 -67 -17 -161h-497v-247h392q18 -91 18 -158q0 -70 -18 -160h-392v-570q-108 -18 -178 -18q-75 0 -180 18z" />
<glyph unicode="G" horiz-adv-x="1335" d="M83 726q0 162 46.5 301t134.5 240t218 158t294 57q97 0 185.5 -14.5t193.5 -58.5q-4 -83 -30 -162t-55 -134q-40 14 -73.5 24t-64 16t-60.5 9.5t-65 3.5q-164 0 -253.5 -111t-89.5 -329q0 -217 87.5 -323.5t259.5 -106.5q38 0 69 6v487q55 8 97.5 12t78.5 4q35 0 83.5 -4 t95.5 -12v-739q-120 -44 -236.5 -58.5t-199.5 -14.5q-178 0 -312.5 56t-224.5 155.5t-134.5 237t-44.5 300.5z" />
<glyph unicode="H" horiz-adv-x="1319" d="M122 6v1447q54 8 98.5 12.5t79.5 4.5q37 0 82.5 -4t97.5 -13v-536h360v536q54 8 97.5 12.5t80.5 4.5q36 0 81.5 -4t98.5 -13v-1447q-107 -18 -178 -18q-76 0 -180 18v592h-360v-592q-108 -18 -178 -18q-75 0 -180 18z" />
<glyph unicode="I" horiz-adv-x="601" d="M122 6v1447q54 8 98.5 12.5t79.5 4.5q37 0 82.5 -4t97.5 -13v-1447q-107 -18 -178 -18q-75 0 -180 18z" />
<glyph unicode="J" horiz-adv-x="832" d="M31 75q0 117 40 233q18 -4 54.5 -10t77.5 -6q25 0 53 3t51.5 18.5t39.5 45.5t16 86v696h-221q-18 86 -18 161q0 71 18 156h580v-1054q0 -116 -37 -198t-99.5 -132.5t-147 -74.5t-181.5 -24q-58 0 -117 9.5t-105 23.5q-2 16 -3 32t-1 35z" />
<glyph unicode="K" horiz-adv-x="1283" d="M122 6v1447q54 8 98.5 12.5t79.5 4.5q37 0 82.5 -4t97.5 -13v-1447q-108 -18 -178 -18q-75 0 -180 18zM509 736l342 717q61 10 106 13.5t91 3.5q23 0 51.5 -1t55.5 -4t52.5 -6.5t43.5 -5.5l-347 -699l379 -748q-35 -8 -92 -13t-104 -5q-58 0 -113 5t-94 13z" />
<glyph unicode="L" horiz-adv-x="994" d="M122 0v1453q54 8 98.5 12.5t79.5 4.5q37 0 82.5 -4t97.5 -13v-1134h468q10 -51 13.5 -88.5t3.5 -68.5q0 -34 -3 -72t-14 -90h-826z" />
<glyph unicode="M" horiz-adv-x="1623" d="M105 6l59 1447q43 6 92.5 11.5t91.5 5.5q41 0 88.5 -5t88.5 -12l288 -753l298 753q40 6 82 11.5t82 5.5q43 0 87.5 -5t86.5 -12l70 -1447q-33 -6 -72.5 -12t-104.5 -6q-71 0 -168 18l-29 839l-222 -553q-37 -6 -73.5 -10t-66.5 -4q-31 0 -63.5 3t-67.5 11l-198 546 l-22 -832q-86 -18 -163 -18q-71 0 -164 18z" />
<glyph unicode="N" horiz-adv-x="1335" d="M122 6v1447q44 8 81 12.5t70 4.5q37 0 76.5 -5t68.5 -12l470 -794v794q52 8 95 12.5t77 4.5q35 0 73.5 -4t81.5 -13l-2 -1447q-20 -6 -59 -12t-84 -6q-50 0 -90.5 7t-58.5 11l-473 791v-791q-89 -18 -162 -18t-164 18z" />
<glyph unicode="O" horiz-adv-x="1441" d="M83 724q0 162 37.5 301t115.5 240t198.5 159t287.5 58q166 0 286 -58t197.5 -159t115 -240t37.5 -301q0 -163 -37.5 -299.5t-115 -237t-197.5 -156.5t-286 -56q-167 0 -287.5 56t-198.5 156.5t-115.5 237t-37.5 299.5zM460 724q0 -221 64 -329.5t198 -108.5 q259 0 259 438q0 441 -257 442q-264 0 -264 -442z" />
<glyph unicode="P" horiz-adv-x="1186" d="M122 6v1447q46 6 142.5 17.5t242.5 11.5q108 0 217.5 -20.5t197.5 -76t142.5 -156.5t54.5 -264q0 -143 -43.5 -238.5t-115.5 -152.5t-164 -81.5t-190 -24.5q-39 0 -78 3t-56 7v-472q-52 -10 -94.5 -14t-79.5 -4q-71 0 -176 18zM472 768q10 -4 35 -6t50 -2q87 0 142 50.5 t55 154.5q0 61 -17 102.5t-47.5 66.5t-71 35.5t-84.5 10.5h-28.5t-33.5 -2v-410z" />
<glyph unicode="Q" horiz-adv-x="1441" d="M83 724q0 162 37.5 301t115.5 240t198.5 159t287.5 58q166 0 286 -58t197.5 -159t115 -240t37.5 -301q0 -163 -37.5 -299.5t-115 -237t-197.5 -156.5t-286 -56q-167 0 -287.5 56t-198.5 156.5t-115.5 237t-37.5 299.5zM460 724q0 -221 64 -329.5t198 -108.5 q259 0 259 438q0 441 -257 442q-264 0 -264 -442zM643 -284.5q0 17.5 1 31.5q10 99 58 206l670 -109q-2 -78 -14 -152.5t-38 -149.5l-677 115v58.5z" />
<glyph unicode="R" horiz-adv-x="1248" d="M122 6v1447q99 10 183 19.5t177 9.5q112 0 223.5 -21.5t198.5 -73.5t142 -144t55 -231q0 -75 -17.5 -135t-44.5 -106.5t-61 -81t-65 -58.5l316 -625q-49 -8 -107 -12t-104 -4q-41 0 -94.5 4t-93.5 12l-288 663l17 10q25 12 54.5 40.5t54.5 68.5t42.5 88.5t17.5 100.5 q0 101 -56.5 148t-139.5 47q-20 0 -35 -2t-19 -4v-1160q-108 -18 -176 -18q-75 0 -180 18z" />
<glyph unicode="S" horiz-adv-x="1143" d="M58 58q8 72 29 152t49 163q186 -81 324 -81q103 0 161 31t58 109q0 32 -12 55.5t-32 40t-46 27t-51 21.5l-114 43q-74 26 -133.5 62.5t-102 86t-66 114t-23.5 152.5q0 107 36.5 190.5t102.5 141.5t159.5 87t208.5 29q103 0 199.5 -20.5t206.5 -58.5q-8 -66 -29.5 -143.5 t-53.5 -146.5q-53 23 -124 47t-176 24q-33 0 -62 -6t-52.5 -19.5t-38 -36.5t-14.5 -58q0 -58 39 -87t91 -48l97 -39q85 -35 153.5 -70t117 -85t74.5 -120t26 -169q0 -107 -37.5 -193.5t-110 -148t-179 -95.5t-244.5 -34q-126 0 -222.5 20.5t-208.5 62.5z" />
<glyph unicode="T" horiz-adv-x="1130" d="M31 1302q0 67 18 156h1036q8 -44 12 -83t4 -73q0 -67 -16 -161h-339v-1135q-107 -18 -179 -18q-75 0 -180 18v1135h-338q-18 88 -18 161z" />
<glyph unicode="U" horiz-adv-x="1341" d="M114 625v828q58 8 100.5 11.5t81.5 3.5q35 0 76.5 -3t99.5 -12v-786q0 -101 8.5 -172t30 -115.5t59.5 -64t101 -19.5t102.5 19.5t60.5 64t28.5 115t7.5 172.5v786q61 8 102.5 11.5t75.5 3.5q37 0 79.5 -3t101.5 -12v-828q0 -151 -25.5 -270t-88.5 -203.5t-171 -129.5 t-273 -45q-164 0 -272.5 45t-171.5 129.5t-88 203.5t-25 270z" />
<glyph unicode="V" horiz-adv-x="1321" d="M10 1453q35 6 91.5 11.5t109.5 5.5q42 0 92.5 -5t89.5 -12l272 -981l277 981q47 8 95 12.5t101 4.5q34 0 84.5 -5t89.5 -12l-467 -1449q-52 -8 -97.5 -12t-88.5 -4q-40 0 -82.5 4t-102.5 12z" />
<glyph unicode="W" horiz-adv-x="1816" d="M6 1451q56 10 109 14.5t94 4.5q39 0 80.5 -3t93.5 -14l168 -926q51 222 102 465t99 461q37 6 81.5 11.5t91.5 5.5q40 0 82.5 -5t73.5 -12l211 -936l168 936q53 10 89.5 13.5t74.5 3.5q40 0 85 -3t102 -14l-349 -1447q-30 -6 -78 -12t-105 -6q-56 0 -110 7t-72 11 l-193 839l-204 -839q-18 -4 -68 -11t-107 -7t-101.5 6t-75.5 12z" />
<glyph unicode="X" horiz-adv-x="1306" d="M25 6l294 752l-240 695q53 10 102.5 13.5t102.5 3.5q35 0 89.5 -5t86.5 -12l192 -703l197 703q33 8 87.5 12.5t89.5 4.5q52 0 101 -3t102 -14l-238 -695l292 -752q-103 -18 -204 -18q-35 0 -89.5 5t-87.5 13l-250 724l-246 -724q-33 -8 -88 -13t-89 -5q-101 0 -204 18z " />
<glyph unicode="Y" horiz-adv-x="1260" d="M0 1453q35 6 93.5 11.5t111.5 5.5q43 0 94 -5t90 -12l250 -563l239 563q47 8 97.5 12.5t103.5 4.5q35 0 89.5 -5t92.5 -12l-452 -930v-517q-108 -18 -178 -18q-76 0 -181 18v517q-52 110 -110 228.5l-116 237t-115 237t-109 227.5z" />
<glyph unicode="Z" horiz-adv-x="1169" d="M41 54l559 1087h-497q-10 45 -13 83.5t-3 73.5t3 75t13 85h988l31 -59l-557 -1085h489q18 -84 18 -154q0 -75 -18 -160h-977z" />
<glyph unicode="[" horiz-adv-x="696" d="M101 -341v1914h518q10 -40 14 -73.5t4 -67.5q0 -63 -18 -149h-183v-1333h183q10 -43 14 -77.5t4 -69.5t-4 -68t-14 -76h-518z" />
<glyph unicode="\" horiz-adv-x="842" d="M10 1453q52 10 95 13.5t77 3.5q41 0 79.5 -4t81.5 -13l491 -1449q-53 -10 -96 -13t-77 -3q-40 0 -78.5 4t-81.5 12z" />
<glyph unicode="]" horiz-adv-x="696" d="M60 -197q0 35 4.5 69.5t14.5 77.5h182v1333h-182q-18 85 -19 149q0 34 4.5 67.5t14.5 73.5h517v-1914h-517q-10 43 -14.5 76t-4.5 68z" />
<glyph unicode="^" horiz-adv-x="1112" d="M81 741l329 712q27 6 72 11.5t77 5.5q33 0 78.5 -5t74.5 -12l320 -712q-86 -18 -160 -19q-50 0 -92 5t-76 14l-151 372l-143 -372q-35 -8 -76.5 -13.5t-91.5 -5.5q-76 0 -161 19z" />
<glyph unicode="_" horiz-adv-x="1013" d="M0 -130q0 23 4 52t14 74h980q10 -43 13 -73.5t3 -60.5q0 -22 -4 -49.5t-14 -75.5h-980q-10 42 -13 73.5t-3 59.5z" />
<glyph unicode="`" d="M191 1437q37 6 86.5 9t101.5 3q108 0 186 -12l218 -249q-35 -8 -72.5 -10t-75.5 -2q-88 0 -148 12z" />
<glyph unicode="a" horiz-adv-x="1060" d="M60 343q0 99 43 164t110 103t148 53.5t158 15.5h124q-2 37 -20.5 61t-47 37.5t-63 18.5t-70.5 5q-49 0 -114 -11.5t-133 -35.5q-18 35 -31.5 63t-20.5 57.5t-10 61t-3 72.5q97 32 193.5 48t173.5 16q105 0 190 -25t145 -77.5t92.5 -135t32.5 -195.5v-594 q-77 -23 -186.5 -45.5t-230.5 -22.5q-105 0 -194 19.5t-151.5 62t-98.5 113t-36 171.5zM358 348q0 -40 18.5 -63.5t46 -35t59 -16t58.5 -4.5q17 0 52 4.5t51 8.5v222h-116q-72 0 -120.5 -30t-48.5 -86z" />
<glyph unicode="b" horiz-adv-x="1138" d="M114 2v1042q40 6 92.5 11t107.5 9t106.5 6t90.5 2q253 0 379 -71.5t126 -224.5q0 -77 -36 -130.5t-96 -92.5q85 -30 140 -86.5t55 -160.5q0 -186 -138 -258.5t-407 -72.5q-72 0 -186 5.5t-234 21.5zM452 225q6 0 32.5 -2t70.5 -2q86 0 122.5 28.5t36.5 79.5q0 19 -7 38.5 t-25.5 34t-51 23.5t-85.5 9h-93v-209zM452 646h99q78 0 104 34t26 70q0 35 -27 64t-101 29q-22 0 -51.5 -0.5t-49.5 -2.5v-194z" />
<glyph unicode="c" horiz-adv-x="954" d="M62 523q0 121 35 222.5t101.5 173.5t164 112.5t223.5 40.5q43 0 81.5 -2t75.5 -8t76.5 -18t89.5 -30q1 -14 1 -27q0 -57 -14 -111q-16 -68 -51 -132q-34 12 -61.5 19t-51.5 11t-47.5 5t-49.5 1q-97 0 -161 -57.5t-64 -199.5q0 -76 19 -125.5t50.5 -77.5t73 -40.5 t88.5 -12.5q58 0 102 10.5t102 32.5q35 -55 55.5 -122.5t20.5 -154.5q-93 -37 -170.5 -47.5t-154.5 -10.5q-130 0 -229.5 38.5t-167 111t-102.5 172.5t-35 226z" />
<glyph unicode="d" horiz-adv-x="1151" d="M114 2v1042q85 10 180 19t178 9q165 0 281.5 -38t191.5 -108.5t109.5 -169.5t34.5 -220q0 -128 -35.5 -231.5t-112 -177t-196.5 -113t-291 -39.5q-99 0 -177 7.5t-163 19.5zM456 265q8 0 21.5 -2t39.5 -2q114 0 169.5 64t55.5 211q0 129 -54.5 189t-155.5 60 q-25 0 -45.5 -2.5t-30.5 -4.5v-513z" />
<glyph unicode="e" horiz-adv-x="1089" d="M62 517q0 116 33 217.5t97.5 176t162 118t227.5 43.5q108 0 191.5 -36t142.5 -100t91 -154.5t32 -195.5q0 -54 -5.5 -97.5t-9.5 -72.5h-616q23 -83 78.5 -118t146.5 -35q58 0 131.5 14.5t144.5 43.5q29 -53 49.5 -126t22.5 -152q-180 -68 -369 -68q-146 0 -250.5 40.5 t-170 113t-97.5 171.5t-32 217zM404 648h324q-4 72 -44 119.5t-115 47.5q-65 0 -111 -40.5t-54 -126.5z" />
<glyph unicode="f" horiz-adv-x="934" d="M114 4v1044h774q10 -40 13 -74.5t3 -67.5t-3 -68t-13 -76h-432v-162h349q10 -41 13 -75t3 -67q0 -32 -3 -68t-13 -76h-349v-310q-42 -10 -86.5 -13t-83.5 -3q-40 0 -84 3t-88 13z" />
<glyph unicode="g" horiz-adv-x="1086" d="M62 532q0 112 36 211t105.5 171.5t173 115t240.5 42.5q71 0 155.5 -16t186.5 -56q-2 -35 -8.5 -65.5t-15 -61.5t-22 -67t-31.5 -80q-69 28 -128 41t-102 13q-67 0 -113 -19.5t-74.5 -54.5t-41.5 -80.5t-13 -93.5q0 -136 58.5 -200.5t172.5 -64.5h36v298q51 10 90.5 14.5 t75.5 4.5q72 0 169 -19v-515q-59 -22 -164.5 -48.5t-245.5 -26.5q-146 0 -248.5 43.5t-167 119t-94.5 177t-30 217.5z" />
<glyph unicode="h" horiz-adv-x="1211" d="M114 2v1046q44 10 88 14t84 4q39 0 83.5 -4t86.5 -14v-357h300v357q45 10 88.5 14t84.5 4q38 0 82.5 -4t87.5 -14v-1046q-53 -8 -95.5 -12t-76.5 -4q-35 0 -77.5 4t-93.5 12v385h-300v-385q-52 -8 -94.5 -12t-77.5 -4t-77.5 4t-92.5 12z" />
<glyph unicode="i" horiz-adv-x="569" d="M114 2v1046q44 10 88 14t84 4q39 0 83.5 -4t86.5 -14v-1046q-52 -8 -94.5 -12t-77.5 -4t-77.5 4t-92.5 12z" />
<glyph unicode="j" horiz-adv-x="764" d="M20 73q0 53 10.5 105.5t27.5 109.5q8 -2 24.5 -5t36 -5t36.5 -4.5t27 -2.5q23 0 48 3.5t46.5 18.5t35 45.5t13.5 85.5v338h-203q-10 41 -13.5 76.5t-3.5 67.5q0 33 3.5 67.5t13.5 74.5h545v-644q0 -116 -33.5 -198t-93.5 -132.5t-139.5 -74.5t-173.5 -24q-31 0 -86.5 7.5 t-115.5 27.5q-2 16 -3.5 31t-1.5 32z" />
<glyph unicode="k" horiz-adv-x="1141" d="M114 4v1044q44 10 88 14t84 4q39 0 83.5 -4t86.5 -14v-1044q-52 -10 -94.5 -13t-75.5 -3q-35 0 -77.5 3t-94.5 13zM489 547l239 501q36 8 89 12t94 4q52 0 105.5 -4t86.5 -12l-252 -487l281 -557q-37 -8 -92 -12t-96 -4q-52 0 -103.5 4t-82.5 12z" />
<glyph unicode="l" horiz-adv-x="885" d="M114 0l2 1048q44 10 88 14t84 4q39 0 83.5 -4t86.5 -14l-2 -762h384q9 -40 12 -75t3 -67q0 -33 -3 -68t-12 -76h-726z" />
<glyph unicode="m" horiz-adv-x="1706" d="M114 2v996q71 25 170 47.5t252 22.5q83 0 163.5 -13t149.5 -53q53 27 124 46.5t161 19.5q79 0 163 -14.5t152 -64t111.5 -140.5t43.5 -241v-606q-53 -10 -95.5 -13t-74.5 -3q-35 0 -77.5 3t-95.5 13v570q0 108 -36.5 154t-119.5 46q-29 0 -56 -6t-37 -10q18 -71 18 -162 v-592q-53 -10 -95.5 -13t-75.5 -3q-34 0 -76 3t-96 13v570q0 108 -34 154t-117 46q-23 0 -48.5 -4t-31.5 -8v-758q-52 -10 -94.5 -13t-75.5 -3q-35 0 -77.5 3t-94.5 13z" />
<glyph unicode="n" horiz-adv-x="1145" d="M114 2v996q71 25 172 47.5t254 22.5q89 0 178 -14.5t161 -64t117.5 -140.5t45.5 -241v-606q-52 -10 -95 -13t-75 -3q-34 0 -77 3t-95 13v570q0 108 -40.5 154t-123.5 46q-23 0 -48.5 -4t-31.5 -8v-758q-52 -10 -94.5 -13t-75.5 -3q-35 0 -77.5 3t-94.5 13z" />
<glyph unicode="o" horiz-adv-x="1169" d="M62 519q0 124 34 226t99.5 175.5t163 112.5t225.5 39q130 0 227.5 -39t163 -112.5t99 -175.5t33.5 -226q0 -122 -33.5 -222t-99 -172.5t-163 -111t-227.5 -38.5q-128 0 -225.5 38.5t-163 111t-99.5 172.5t-34 222zM410 519q0 -128 42.5 -197t131.5 -69t132.5 69t43.5 197 q0 129 -43.5 198.5t-132.5 69.5t-131.5 -69.5t-42.5 -198.5z" />
<glyph unicode="p" horiz-adv-x="1045" d="M114 2v1042q93 14 191.5 21t189.5 7q93 0 182 -16.5t160.5 -63t115 -126t43.5 -207.5q0 -115 -39.5 -194.5t-104.5 -128t-147 -69.5t-167 -21q-35 0 -59.5 1.5t-30.5 3.5v-249q-52 -10 -94 -13t-74 -3q-34 0 -74 3t-92 13zM448 507q10 -2 25.5 -3t25.5 -1 q71 0 116.5 35.5t45.5 120.5q0 74 -46 113t-112 39h-23.5t-31.5 -2v-302z" />
<glyph unicode="q" horiz-adv-x="1169" d="M62 519q0 124 34 226t99.5 175.5t163 112.5t225.5 39q130 0 227.5 -39t163 -112.5t99 -175.5t33.5 -226q0 -122 -33.5 -222t-99 -172.5t-163 -111t-227.5 -38.5q-128 0 -225.5 38.5t-163 111t-99.5 172.5t-34 222zM410 519q0 -128 42.5 -197t131.5 -69t132.5 69t43.5 197 q0 129 -43.5 198.5t-132.5 69.5t-131.5 -69.5t-42.5 -198.5zM519 -282q2 58 13.5 122.5t30.5 118.5l554 -79q-2 -58 -13 -122t-32 -119z" />
<glyph unicode="r" horiz-adv-x="1112" d="M114 2v1042q95 12 197.5 20t193.5 8q245 0 368 -92t123 -258q0 -63 -14.5 -110t-34.5 -80t-42.5 -53.5t-36.5 -32.5l231 -442q-41 -8 -90.5 -12t-95.5 -4q-57 0 -110 4t-87 12l-225 478l28 17q71 41 97.5 86.5t26.5 97.5q0 53 -31.5 86.5t-100.5 33.5q-39 0 -59 -4v-797 q-52 -10 -95 -13t-75 -3q-34 0 -75 3t-93 13z" />
<glyph unicode="s" horiz-adv-x="952" d="M49 39q9 137 75 280q65 -31 136 -46.5t142 -15.5q25 0 50.5 2t46 9.5t33.5 19.5t13 33q0 26 -26 39t-61 23l-137 39q-108 30 -179 103t-71 199q0 79 32.5 144t91 110.5t139 69.5t177.5 24q77 0 168 -16t180 -46q-4 -66 -26 -139.5t-50 -129.5q-54 22 -131.5 40t-142.5 18 q-95 0 -95 -53q0 -22 22 -34t51 -21l132 -34q60 -15 109.5 -39t85 -60.5t56 -89t20.5 -127.5q0 -78 -31 -144.5t-93 -115t-152.5 -77.5t-207.5 -29q-97 0 -180.5 14.5t-176.5 49.5z" />
<glyph unicode="t" horiz-adv-x="1035" d="M31 906q0 33 3 67.5t13 74.5h942q10 -40 13.5 -74.5t3.5 -67.5t-3 -68t-14 -76h-300v-760q-52 -8 -95 -12t-77 -4q-35 0 -77.5 4t-93.5 12v760h-299q-10 41 -13 76.5t-3 67.5z" />
<glyph unicode="u" horiz-adv-x="1145" d="M103 456v592q45 10 89 14t84 4q39 0 83.5 -4t86.5 -14v-564q0 -122 40.5 -166.5t123.5 -44.5q34 0 52.5 2.5t26.5 4.5v768q45 10 88.5 14t83.5 4q39 0 83.5 -4t87.5 -14v-999q-35 -12 -82.5 -24.5t-101 -23.5t-110.5 -17.5t-111 -6.5q-103 0 -198.5 16.5t-168 66.5 t-115 144t-42.5 252z" />
<glyph unicode="v" horiz-adv-x="1136" d="M10 1048q23 4 80.5 8t124.5 4q52 0 105 -4t69 -8l185 -628q47 156 90.5 316t87.5 312q16 4 67 8t104 4q67 0 124.5 -4t80.5 -8l-398 -1044q-43 -10 -86.5 -13t-84.5 -3q-40 0 -82.5 3t-77.5 13z" />
<glyph unicode="w" horiz-adv-x="1619" d="M12 1048q23 4 78.5 8t122.5 4q52 0 102 -4t66 -8l132 -620l146 620q35 10 76 13t82 3q40 0 81.5 -3t84.5 -13l145 -603l125 603q16 4 62.5 8t100.5 4q67 0 118.5 -4t73.5 -8l-329 -1044q-35 -10 -75 -13t-80 -3q-41 0 -82.5 3t-86.5 13l-148 568q-39 -135 -78.5 -285.5 t-76.5 -282.5q-42 -10 -83.5 -13t-81.5 -3q-41 0 -81.5 3t-74.5 13z" />
<glyph unicode="x" horiz-adv-x="1086" d="M10 4l224 541l-184 503q23 4 74.5 8t119.5 4q52 0 99.5 -4t64.5 -8l136 -487l133 487q16 4 64 8t101 4q67 0 119.5 -4t75.5 -8l-184 -503l223 -543q-23 -4 -70 -9t-108 -5q-58 0 -105 5t-63 9l-186 519l-188 -519q-15 -4 -60 -9t-97 -5q-67 0 -116.5 6t-72.5 10z" />
<glyph unicode="y" horiz-adv-x="1143" d="M10 1048q23 4 78.5 8t122.5 4q52 0 103 -4t67 -8l199 -400l198 400q16 4 62 8t99 4q67 0 119.5 -4t75.5 -8l-392 -679v-367q-52 -8 -95 -12t-78 -4q-34 0 -76.5 4t-93.5 12v367z" />
<glyph unicode="z" horiz-adv-x="975" d="M14 60l424 710h-347q-10 45 -13 78.5t-3 64.5q0 30 3 61.5t13 73.5h826l20 -65l-426 -705h387q14 -83 15 -142q0 -31 -3.5 -62t-11.5 -74h-851z" />
<glyph unicode="{" horiz-adv-x="871" d="M91 586v93q51 25 84.5 50t53.5 57.5t28 73t10 93.5l6 202q4 103 25 186t67.5 139t124 87t199.5 31h39.5t54.5 -4q18 -83 18 -141q0 -60 -18 -141h-63q-41 0 -65 -14.5t-36.5 -43.5t-15.5 -73.5t-3 -108.5q0 -110 -8 -182.5t-24.5 -121t-40.5 -80t-57 -55.5 q33 -25 57 -56.5t40.5 -81t24.5 -122.5t8 -182q0 -62 3 -107t15.5 -74.5t36.5 -44t65 -14.5h63q18 -83 18 -142q0 -58 -18 -140q-35 -4 -54 -4h-40q-122 0 -199.5 31t-124 87.5t-67 138.5t-25.5 186l-6 204q-2 52 -10 93t-28 72.5t-53.5 57.5t-84.5 51z" />
<glyph unicode="|" horiz-adv-x="706" d="M186 -335v1904q51 8 92 12.5t74 4.5q35 0 77.5 -4.5t91.5 -12.5v-1904q-101 -17 -167 -17q-69 0 -168 17z" />
<glyph unicode="}" horiz-adv-x="871" d="M71 -191q0 58 18 142h63q41 0 65.5 14.5t36 44t14.5 74t3 107.5q0 110 8.5 182.5t25 122t40.5 81t57 56.5q-33 24 -57 55.5t-40.5 80t-25 121.5t-8.5 182q0 63 -3 108t-14.5 74t-36 43.5t-65.5 14.5h-63q-18 81 -18 141q0 57 18 141q35 4 54 4h39q122 0 200 -31 t124.5 -87t67 -138.5t24.5 -186.5l6 -202q2 -52 10.5 -93t28.5 -73.5t53.5 -57.5t83.5 -50v-93q-50 -25 -83.5 -51t-53.5 -57.5t-28.5 -72t-10.5 -93.5l-6 -204q-4 -103 -24.5 -185.5t-67 -139t-124.5 -87.5t-200 -31h-39t-54 4q-18 82 -18 140z" />
<glyph unicode="~" horiz-adv-x="944" d="M4 863q48 57 125.5 99t174.5 42q46 0 89 -12.5t87 -28.5q39 -12 77.5 -24t79.5 -12q17 0 33.5 3t36 12t41.5 24t51 42q52 -51 88 -111.5t53 -118.5q-50 -58 -127 -97.5t-174 -39.5q-49 0 -94.5 12t-90.5 28q-40 12 -76.5 23.5t-71.5 11.5q-18 0 -35.5 -2t-35.5 -10.5 t-39.5 -24.5t-51.5 -42q-49 50 -86.5 108t-53.5 118z" />
<glyph unicode="&#xa1;" horiz-adv-x="611" d="M122 1283q0 39 4 81.5t10 88.5q46 8 87.5 12.5t82.5 4.5q40 0 82 -4t88 -13q6 -46 10.5 -88.5t4.5 -81.5t-4.5 -80t-10.5 -88q-46 -8 -88 -12t-82 -4q-41 0 -82.5 4t-87.5 12q-6 46 -10 87.5t-4 80.5zM126 0l18 944q99 18 162 19q60 0 162 -19l19 -944q-48 -8 -94.5 -10 t-86.5 -2q-41 0 -85.5 2t-94.5 10z" />
<glyph unicode="&#xa2;" horiz-adv-x="944" d="M62 523q0 99 26 188.5t75.5 160t124.5 120.5t172 68v223q16 6 50 11.5t64 5.5q29 0 62 -5t53 -12v-217q49 -4 98 -16.5t111 -37.5q4 -70 -12 -137.5t-50 -132.5q-35 12 -62.5 19t-50.5 11t-47 6t-49 2q-97 0 -157 -65t-60 -192q0 -136 64 -196t155 -60q58 0 102.5 11.5 t104.5 33.5q34 -55 54.5 -122.5t20.5 -154.5q-63 -25 -116.5 -38t-105.5 -17v-216q-20 -6 -53.5 -10.5t-61.5 -4.5q-30 0 -64 4.5t-50 10.5v224q-99 18 -173 66.5t-123.5 119t-75.5 159.5t-26 190z" />
<glyph unicode="&#xa3;" horiz-adv-x="1179" d="M114 700q0 29 3 59t11 77h123q-3 36 -5 78.5t-2 83.5q0 85 29 167t90 147t154 105.5t221 40.5q107 0 189.5 -18t161.5 -53q-4 -58 -22.5 -133.5t-58.5 -158.5q-47 23 -102 42.5t-132 19.5q-50 0 -84.5 -16.5t-56 -43.5t-30.5 -58t-9 -62q0 -38 4 -76t8 -65h294 q8 -49 11.5 -80.5t3.5 -64.5q0 -29 -3 -59t-12 -77h-254q2 -6 2 -12.5v-12.5q0 -53 -7.5 -110t-30.5 -108h469q10 -49 12 -87.5t2 -66.5q0 -32 -2 -70t-12 -88h-931l-18 62q32 27 63.5 66.5t55.5 92t38.5 115.5t14.5 134q0 39 -6 85h-168q-8 49 -11 81.5t-3 63.5z" />
<glyph unicode="&#xa5;" horiz-adv-x="1189" d="M4 1434q29 3 86.5 7t110.5 4q43 0 94 -4t82 -7l225 -488l215 488q46 7 93 9t100 2q34 0 87.5 -3t88.5 -8l-331 -621h254q4 -16 7 -41.5t3 -53.5q0 -63 -10 -93h-337v-126h337q4 -16 7 -41.5t3 -53.5q0 -62 -10 -94h-337v-306q-52 -10 -96.5 -13t-81.5 -3q-35 0 -81.5 3 t-98.5 13v306h-304q-10 31 -11 94q0 29 3 53.5t8 41.5h304v126h-304q-10 30 -11 93q0 28 3 53.5t8 41.5h221z" />
<glyph unicode="&#xa7;" horiz-adv-x="1157" d="M110 704q0 141 124 235q-41 34 -55.5 80.5t-14.5 97.5q0 160 125 250.5t342 90.5q93 0 178 -14t176 -49q-4 -65 -27 -137t-52 -126q-18 7 -47 17t-66 20.5t-78.5 17.5t-79.5 7q-70 0 -98 -17.5t-28 -44.5q0 -20 21 -35.5t50 -24.5l239 -68q133 -41 183 -113t50 -157 q0 -72 -30.5 -131t-94.5 -108q40 -35 55.5 -81.5t15.5 -97.5q0 -81 -38.5 -143.5t-106.5 -106t-160.5 -67.5t-199.5 -24q-93 0 -186.5 15.5t-184.5 50.5q4 65 29 137.5t58 129.5q46 -23 125.5 -44.5t176.5 -21.5q79 0 110 14.5t31 39.5q0 29 -24 42.5t-59 24.5l-211 63 q-137 42 -192.5 118.5t-55.5 159.5zM412 746q0 -22 19 -43.5t66 -35.5l215 -59q32 33 32 77q0 25 -18 49t-83 42l-197 54q-13 -16 -23.5 -39t-10.5 -45z" />
<glyph unicode="&#xa8;" d="M105 1310q0 60 13 122q30 5 70.5 8t68.5 3q29 0 69.5 -3t72.5 -8q12 -61 13 -122q0 -61 -13 -122q-33 -6 -73 -9t-69 -3q-28 0 -68.5 3t-70.5 9q-13 61 -13 122zM561 1310q0 60 13 122q31 5 71 8t69 3q28 0 68.5 -3t72.5 -8q12 -61 13 -122q0 -61 -13 -122 q-32 -6 -72.5 -9t-68.5 -3q-29 0 -69.5 3t-70.5 9q-13 61 -13 122z" />
<glyph unicode="&#xa9;" horiz-adv-x="1625" d="M60 728q0 160 55 299t153.5 239t237 158t307.5 58q168 0 307 -57t237 -158t153 -239t55 -300q0 -163 -55 -300.5t-153 -238t-237 -158.5t-307 -58q-169 0 -307.5 58t-237 158.5t-153.5 238t-55 300.5zM257 728q0 -120 39 -224.5t110.5 -180t174 -119.5t232.5 -44 q129 0 231.5 44t175 119.5t110.5 180t38 224.5q0 119 -38 223.5t-110.5 181t-175 120t-231.5 43.5q-130 0 -232.5 -43.5t-174 -120t-110.5 -181t-39 -223.5zM420 730q0 85 27 162t78 135t125 92t167 34q73 0 128 -7.5t125 -36.5q0 -55 -12 -119.5t-40 -121.5 q-41 16 -82.5 25t-76.5 9q-71 0 -114 -45.5t-43 -126.5q0 -89 44.5 -132t118.5 -43q77 0 155 39q8 -16 19 -43.5t19 -61t14.5 -70t6.5 -69.5q-71 -28 -132 -36t-121 -8q-97 0 -172.5 31.5t-127.5 88t-79 135t-27 169.5z" />
<glyph unicode="&#xaa;" horiz-adv-x="865" d="M49 894q0 79 33.5 130.5t86 82.5t117 43t130.5 12h38.5t34.5 -3q-4 49 -34.5 70.5t-102.5 21.5q-85 0 -194 -34q-30 48 -43.5 96.5t-13.5 95.5q73 23 149.5 36t136.5 13q170 0 264.5 -80t94.5 -256v-451q-54 -18 -141.5 -35t-182.5 -17q-83 0 -152 13.5t-118 47.5 t-76 85.5t-27 128.5zM298 902q0 -27 14.5 -42t33.5 -21.5t41.5 -7.5t38.5 -1t32 1t31 3v153q-16 2 -31.5 2h-41.5q-55 0 -86.5 -20.5t-31.5 -66.5z" />
<glyph unicode="&#xab;" horiz-adv-x="1323" d="M60 540l317 449q31 8 76.5 13.5t93.5 5.5q97 0 194 -19l-313 -449l313 -451q-96 -18 -194 -18q-48 0 -93.5 5t-76.5 13zM602 540l317 449q31 8 76.5 13.5t93.5 5.5q97 0 194 -19l-313 -449l313 -451q-96 -18 -194 -18q-48 0 -93.5 5t-76.5 13z" />
<glyph unicode="&#xac;" horiz-adv-x="1173" d="M134 714q0 34 4 70.5t12 76.5h890v-606q-40 -7 -74.5 -11t-69.5 -4q-65 0 -146 15v317h-600q-7 41 -11.5 74t-4.5 68z" />
<glyph unicode="&#xad;" horiz-adv-x="747" d="M85 553q0 70 18 155h543q10 -43 13.5 -80.5t3.5 -72.5q0 -34 -3 -72t-14 -81h-543q-18 84 -18 151z" />
<glyph unicode="&#xae;" horiz-adv-x="1625" d="M60 728q0 160 55 299t153.5 239t237 158t307.5 58q168 0 307 -57t237 -158t153 -239t55 -300q0 -163 -55 -300.5t-153 -238t-237 -158.5t-307 -58q-169 0 -307.5 58t-237 158.5t-153.5 238t-55 300.5zM257 728q0 -120 39 -224.5t110.5 -180t174 -119.5t232.5 -44 q129 0 231.5 44t175 119.5t110.5 180t38 224.5q0 119 -38 223.5t-110.5 181t-175 120t-231.5 43.5q-130 0 -232.5 -43.5t-174 -120t-110.5 -181t-39 -223.5zM503 354v784q62 9 119 15t124 6q199 0 298 -71.5t99 -199.5q0 -81 -31 -131.5t-72 -83.5l138 -317q-40 -4 -78 -7 t-78 -3q-31 0 -56.5 1t-54.5 7l-139 358l37 29q23 15 52 51t29 76q0 41 -25 65t-80 24h-41v-603q-34 -6 -61.5 -7.5t-55.5 -1.5q-27 0 -58 1.5t-66 7.5z" />
<glyph unicode="&#xaf;" d="M166 1333q0 26 3 55.5t11 56.5h613q14 -54 14 -112q0 -25 -3 -55.5t-11 -58.5h-613q-8 28 -11 57.5t-3 56.5z" />
<glyph unicode="&#xb0;" horiz-adv-x="784" d="M56 1145q0 70 27 129t72.5 103.5t106.5 69.5t129 25q69 0 131 -25t107.5 -69.5t72 -103.5t26.5 -129q0 -67 -26.5 -125.5t-72 -102t-107.5 -69t-131 -25.5t-129.5 25.5t-106 69t-72.5 102t-27 125.5zM276 1145q0 -50 35 -84.5t80 -34.5t81.5 34.5t36.5 84.5 q0 53 -36.5 88.5t-81.5 35.5t-80 -35.5t-35 -88.5z" />
<glyph unicode="&#xb1;" horiz-adv-x="1173" d="M130 122q0 34 4 69.5t10 75.5h298v305h-298q-6 41 -10 74t-4 70q0 34 4 69.5t10 75.5h298v323q38 8 72.5 12t71.5 4q35 0 70 -4t76 -12v-323h296q8 -40 12 -74.5t4 -68.5q0 -35 -3.5 -70.5t-12.5 -75.5h-296v-305h296q8 -40 12 -74.5t4 -68.5q0 -35 -3.5 -70.5 t-12.5 -76.5h-884q-6 41 -10 74.5t-4 70.5z" />
<glyph unicode="&#xb4;" d="M191 1188l217 249q79 12 186 12q52 0 102 -3t87 -9l-296 -249q-60 -12 -148 -12q-39 0 -76.5 2t-71.5 10z" />
<glyph unicode="&#xb5;" horiz-adv-x="1157" d="M114 -456v1504q44 10 89 14t85 4q39 0 83.5 -4t86.5 -14v-564q0 -122 41 -166.5t124 -44.5q34 0 52 2.5t27 4.5v768q44 10 88 14t84 4q39 0 83.5 -4t86.5 -14v-999q-71 -25 -168 -48.5t-211 -23.5q-91 0 -142 18.5t-67 35.5v-487q-42 -10 -86.5 -14t-83.5 -4q-40 0 -84 4 t-88 14z" />
<glyph unicode="&#xb6;" horiz-adv-x="1256" d="M81 1024q0 241 172.5 343.5t518.5 102.5v-1482q-91 0 -159 4t-86 8v621q-85 2 -165 25t-142 69.5t-100.5 123t-38.5 185.5zM880 -12v1482q41 0 111.5 -2t134.5 -10v-1458q-18 -4 -86.5 -8t-159.5 -4z" />
<glyph unicode="&#xb7;" horiz-adv-x="599" d="M112 655q0 41 4 83t12 90q46 6 88.5 10t83.5 4t83.5 -4t88.5 -10q8 -47 12.5 -90t4.5 -83t-4.5 -82.5t-12.5 -90.5q-46 -8 -88.5 -12t-83.5 -4t-83.5 4t-88.5 12q-8 47 -12 90t-4 83z" />
<glyph unicode="&#xb8;" d="M231 -462q0 22 10 63t32 72q39 -12 70.5 -16.5t70.5 -4.5q52 0 72.5 18t20.5 42q0 25 -20.5 39.5t-60.5 14.5q-20 0 -45 -3t-75 -18l-41 40l171 267h170l-99 -153q112 -4 174.5 -52t62.5 -125q0 -105 -88.5 -159t-237.5 -54q-47 0 -97 6.5t-90 22.5z" />
<glyph unicode="&#xba;" horiz-adv-x="885" d="M45 1028q0 83 23 160t71.5 137t123 96.5t177.5 36.5t179 -36.5t125 -96.5t73.5 -137t24.5 -160q0 -84 -24.5 -160.5t-73.5 -135.5t-124.5 -95.5t-179.5 -36.5q-103 0 -177.5 36.5t-123 95.5t-71.5 135.5t-23 160.5zM327 1028q0 -95 27 -147.5t86 -52.5q60 0 88.5 52.5 t28.5 147.5q0 97 -28 149t-89 52q-59 0 -86 -51.5t-27 -149.5z" />
<glyph unicode="&#xbb;" horiz-adv-x="1321" d="M43 89l311 451l-311 449q93 18 193 19q48 0 93.5 -5t76.5 -14l316 -449l-316 -451q-31 -8 -76.5 -13t-93.5 -5q-99 0 -193 18zM583 89l311 451l-311 449q93 18 193 19q48 0 93.5 -5t76.5 -14l316 -449l-316 -451q-31 -8 -76.5 -13t-93.5 -5q-99 0 -193 18z" />
<glyph unicode="&#xbf;" horiz-adv-x="970" d="M41 408q0 89 31 155t77 113.5t96.5 78t91.5 48.5v184q44 6 86.5 10.5t77.5 4.5q37 0 78.5 -4t81.5 -11v-381q-52 -6 -103 -19t-90.5 -35t-64 -56t-24.5 -80q0 -70 50.5 -105t135.5 -35q39 0 69.5 3t60 10t61 17.5t72.5 24.5q12 -27 24.5 -61t23 -71t18.5 -72.5t10 -66.5 q-114 -40 -195.5 -56t-174.5 -16q-246 0 -369.5 111.5t-123.5 308.5zM319 1269q0 41 4 83.5t12 88.5q46 8 88.5 12.5t83.5 4.5q40 0 83 -4.5t89 -12.5q8 -46 12 -88.5t4 -83.5q0 -40 -4 -83t-12 -89q-46 -6 -89 -10t-83 -4q-41 0 -83.5 4t-88.5 10q-8 46 -12 89t-4 83z" />
<glyph unicode="&#xc0;" horiz-adv-x="1300" d="M10 8l454 1447q53 6 98.5 10.5t92.5 4.5q39 0 84.5 -4t103.5 -11l449 -1449q-116 -18 -203 -18q-41 0 -81.5 4t-86.5 12l-78 282q-56 -16 -108 -24.5t-102 -8.5q-47 0 -95.5 7t-101.5 22l-75 -278q-46 -8 -84.5 -12t-75.5 -4t-84.5 5t-106.5 15zM234 1832q37 6 86.5 9 t101.5 3q108 0 186 -12l218 -249q-35 -8 -72.5 -10t-75.5 -2q-88 0 -148 12zM509 553q35 -9 65 -15t63 -6q34 0 67.5 5t69.5 14l-130 523z" />
<glyph unicode="&#xc1;" horiz-adv-x="1300" d="M10 8l454 1447q53 6 98.5 10.5t92.5 4.5q39 0 84.5 -4t103.5 -11l449 -1449q-116 -18 -203 -18q-41 0 -81.5 4t-86.5 12l-78 282q-56 -16 -108 -24.5t-102 -8.5q-47 0 -95.5 7t-101.5 22l-75 -278q-46 -8 -84.5 -12t-75.5 -4t-84.5 5t-106.5 15zM509 553q35 -9 65 -15 t63 -6q34 0 67.5 5t69.5 14l-130 523zM535 1583q35 -8 72.5 -10t75.5 -2q88 0 148 12l296 249q-37 6 -86.5 9t-101.5 3q-108 0 -186 -12z" />
<glyph unicode="&#xc2;" horiz-adv-x="1300" d="M10 8l454 1447q53 6 98.5 10.5t92.5 4.5q39 0 84.5 -4t103.5 -11l449 -1449q-116 -18 -203 -18q-41 0 -81.5 4t-86.5 12l-78 282q-56 -16 -108 -24.5t-102 -8.5q-47 0 -95.5 7t-101.5 22l-75 -278q-46 -8 -84.5 -12t-75.5 -4t-84.5 5t-106.5 15zM249 1583l258 249 q32 6 74.5 8t69.5 2t69 -2t75 -8l257 -249q-27 -8 -67.5 -11t-79.5 -3t-77.5 2t-77.5 12l-99 97l-100 -97q-39 -10 -77.5 -12t-75.5 -2q-41 0 -81.5 3t-67.5 11zM509 553q35 -9 65 -15t63 -6q34 0 67.5 5t69.5 14l-130 523z" />
<glyph unicode="&#xc3;" horiz-adv-x="1300" d="M10 8l454 1447q53 6 98.5 10.5t92.5 4.5q39 0 84.5 -4t103.5 -11l449 -1449q-116 -18 -203 -18q-41 0 -81.5 4t-86.5 12l-78 282q-56 -16 -108 -24.5t-102 -8.5q-47 0 -95.5 7t-101.5 22l-75 -278q-46 -8 -84.5 -12t-75.5 -4t-84.5 5t-106.5 15zM263 1763 q39 45 98.5 77.5t137.5 32.5q40 0 75.5 -11.5t73.5 -25.5q35 -13 72.5 -24.5t78.5 -11.5q40 0 71.5 11.5t73.5 51.5q33 -34 56 -81t38 -95q-36 -47 -97 -78.5t-133 -31.5q-44 0 -84.5 12.5t-77.5 24.5q-38 14 -73.5 25t-71.5 11q-41 0 -74.5 -12t-69.5 -51 q-33 35 -56.5 81.5t-37.5 94.5zM509 553q35 -9 65 -15t63 -6q34 0 67.5 5t69.5 14l-130 523z" />
<glyph unicode="&#xc4;" horiz-adv-x="1300" d="M10 8l454 1447q53 6 98.5 10.5t92.5 4.5q39 0 84.5 -4t103.5 -11l449 -1449q-116 -18 -203 -18q-41 0 -81.5 4t-86.5 12l-78 282q-56 -16 -108 -24.5t-102 -8.5q-47 0 -95.5 7t-101.5 22l-75 -278q-46 -8 -84.5 -12t-75.5 -4t-84.5 5t-106.5 15zM269 1705q0 60 13 122 q30 5 70.5 8t68.5 3q29 0 69.5 -3t72.5 -8q12 -61 13 -122q0 -61 -13 -122q-33 -6 -73 -9t-69 -3q-28 0 -68.5 3t-70.5 9q-13 61 -13 122zM509 553q35 -9 65 -15t63 -6q34 0 67.5 5t69.5 14l-130 523zM725 1705q0 60 13 122q31 5 71 8t69 3q28 0 68.5 -3t72.5 -8 q12 -61 13 -122q0 -61 -13 -122q-32 -6 -72.5 -9t-68.5 -3q-29 0 -69.5 3t-70.5 9q-13 61 -13 122z" />
<glyph unicode="&#xc5;" horiz-adv-x="1300" d="M10 8l454 1445q-62 64 -62 161q0 110 72.5 170.5t180.5 60.5t181 -60.5t73 -170.5q0 -99 -66 -161l449 -1447q-116 -18 -203 -18q-41 0 -81.5 4t-86.5 12l-78 282q-56 -16 -108 -24.5t-102 -8.5q-47 0 -95.5 7t-101.5 22l-75 -278q-46 -8 -84.5 -12t-75.5 -4t-84.5 5 t-106.5 15zM509 553q35 -9 65 -15t63 -6q34 0 67.5 5t69.5 14l-130 523zM553 1614q0 -45 29 -73t73 -28q43 0 72 28t29 73q0 42 -29 72t-72 30q-44 0 -73 -29t-29 -73z" />
<glyph unicode="&#xc6;" horiz-adv-x="1907" d="M0 0l787 1458h1030q8 -44 11.5 -83t3.5 -73q0 -67 -15 -161h-505v-222h400q18 -89 18 -159q0 -71 -18 -158h-400v-288h517q17 -85 18 -154q0 -75 -18 -160h-868v337q-18 -4 -68.5 -11t-109.5 -7q-67 0 -126 11t-108 26l-178 -356q-46 -8 -93 -10t-87 -2q-71 0 -113.5 3 t-77.5 9zM683 617q31 -10 70.5 -16.5t78.5 -6.5q38 0 74 4t55 10v554z" />
<glyph unicode="&#xc7;" horiz-adv-x="1234" d="M83 726q0 162 46.5 301t134.5 240t218 158t294 57q97 0 184.5 -14.5t194.5 -56.5q-4 -83 -30 -161t-55 -137q-40 14 -73.5 24t-64 16t-60.5 9.5t-65 3.5q-164 0 -254.5 -111t-90.5 -329q0 -430 361 -430q65 0 123 12.5t141 39.5q67 -145 89 -299q-58 -23 -109 -37 t-97.5 -21t-92 -10.5t-94.5 -3.5q-6 0 -11.5 1.5t-11.5 1.5l-50 -81q112 -4 174 -52t62 -125q0 -105 -88 -159t-237 -54q-47 0 -97 6.5t-90 22.5q0 22 10 63t32 72q39 -12 70.5 -16.5t70.5 -4.5q52 0 72.5 18t20.5 42q0 25 -20.5 39.5t-60.5 14.5q-20 0 -45 -3t-75 -18 l-41 40l134 211q-128 27 -225 91.5t-163 160t-98.5 217t-32.5 261.5z" />
<glyph unicode="&#xc8;" horiz-adv-x="1068" d="M122 0v1458h855q8 -44 12.5 -83t4.5 -73q0 -67 -17 -161h-497v-222h392q18 -89 18 -159q0 -71 -18 -158h-392v-288h509q18 -85 19 -154q0 -75 -19 -160h-867zM195 1832q37 6 86.5 9t101.5 3q108 0 186 -12l218 -249q-35 -8 -72.5 -10t-75.5 -2q-88 0 -148 12z" />
<glyph unicode="&#xc9;" horiz-adv-x="1068" d="M122 0v1458h855q8 -44 12.5 -83t4.5 -73q0 -67 -17 -161h-497v-222h392q18 -89 18 -159q0 -71 -18 -158h-392v-288h509q18 -85 19 -154q0 -75 -19 -160h-867zM434 1583q35 -8 72.5 -10t75.5 -2q88 0 148 12l296 249q-37 6 -86.5 9t-101.5 3q-108 0 -186 -12z" />
<glyph unicode="&#xca;" horiz-adv-x="1068" d="M122 0v1458h855q8 -44 12.5 -83t4.5 -73q0 -67 -17 -161h-497v-222h392q18 -89 18 -159q0 -71 -18 -158h-392v-288h509q18 -85 19 -154q0 -75 -19 -160h-867zM152 1583l258 249q32 6 74.5 8t69.5 2t69 -2t75 -8l257 -249q-27 -8 -67.5 -11t-79.5 -3t-77.5 2t-77.5 12 l-99 97l-100 -97q-39 -10 -77.5 -12t-75.5 -2q-41 0 -81.5 3t-67.5 11z" />
<glyph unicode="&#xcb;" horiz-adv-x="1068" d="M122 0v1458h855q8 -44 12.5 -83t4.5 -73q0 -67 -17 -161h-497v-222h392q18 -89 18 -159q0 -71 -18 -158h-392v-288h509q18 -85 19 -154q0 -75 -19 -160h-867zM170 1705q0 60 13 122q30 5 70.5 8t68.5 3q29 0 69.5 -3t72.5 -8q12 -61 13 -122q0 -61 -13 -122 q-33 -6 -73 -9t-69 -3q-28 0 -68.5 3t-70.5 9q-13 61 -13 122zM626 1705q0 60 13 122q31 5 71 8t69 3q28 0 68.5 -3t72.5 -8q12 -61 13 -122q0 -61 -13 -122q-32 -6 -72.5 -9t-68.5 -3q-29 0 -69.5 3t-70.5 9q-13 61 -13 122z" />
<glyph unicode="&#xcc;" horiz-adv-x="601" d="M-115 1832q37 6 86.5 9t101.5 3q108 0 186 -12l218 -249q-35 -8 -72.5 -10t-75.5 -2q-88 0 -148 12zM122 6v1447q54 8 98.5 12.5t79.5 4.5q37 0 82.5 -4t97.5 -13v-1447q-107 -18 -178 -18q-75 0 -180 18z" />
<glyph unicode="&#xcd;" horiz-adv-x="601" d="M122 6v1447q54 8 98.5 12.5t79.5 4.5q37 0 82.5 -4t97.5 -13v-1447q-107 -18 -178 -18q-75 0 -180 18zM170 1583q35 -8 72.5 -10t75.5 -2q88 0 148 12l296 249q-37 6 -86.5 9t-101.5 3q-108 0 -186 -12z" />
<glyph unicode="&#xce;" horiz-adv-x="601" d="M-99 1583l258 249q32 6 74.5 8t69.5 2t69 -2t75 -8l257 -249q-27 -8 -67.5 -11t-79.5 -3t-77.5 2t-77.5 12l-99 97l-100 -97q-39 -10 -77.5 -12t-75.5 -2q-41 0 -81.5 3t-67.5 11zM122 6v1447q54 8 98.5 12.5t79.5 4.5q37 0 82.5 -4t97.5 -13v-1447q-107 -18 -178 -18 q-75 0 -180 18z" />
<glyph unicode="&#xcf;" horiz-adv-x="601" d="M-79 1705q0 60 13 122q30 5 70.5 8t68.5 3q29 0 69.5 -3t72.5 -8q12 -61 13 -122q0 -61 -13 -122q-33 -6 -73 -9t-69 -3q-28 0 -68.5 3t-70.5 9q-13 61 -13 122zM122 6v1447q54 8 98.5 12.5t79.5 4.5q37 0 82.5 -4t97.5 -13v-1447q-107 -18 -178 -18q-75 0 -180 18z M377 1705q0 60 13 122q31 5 71 8t69 3q28 0 68.5 -3t72.5 -8q12 -61 13 -122q0 -61 -13 -122q-32 -6 -72.5 -9t-68.5 -3q-29 0 -69.5 3t-70.5 9q-13 61 -13 122z" />
<glyph unicode="&#xd0;" horiz-adv-x="1387" d="M-4 736q0 50 18 111h108v606q30 4 77 9.5t101 9.5t112 7t113 3q383 0 582 -191.5t199 -570.5q0 -385 -203 -565t-600 -180q-101 0 -195.5 9.5t-185.5 21.5v621h-108q-18 60 -18 109zM480 294q14 -2 33 -2h38q80 0 149.5 19.5t120.5 68t80.5 131.5t29.5 213 q0 127 -30.5 212.5t-80.5 135.5t-116.5 71t-140.5 21q-40 0 -58 -1t-25 -1v-315h189q10 -30 13 -57.5t3 -51.5q0 -25 -3 -53t-13 -58h-189v-333z" />
<glyph unicode="&#xd1;" horiz-adv-x="1335" d="M122 6v1447q44 8 81 12.5t70 4.5q37 0 76.5 -5t68.5 -12l470 -794v794q52 8 95 12.5t77 4.5q35 0 73.5 -4t81.5 -13l-2 -1447q-20 -6 -59 -12t-84 -6q-50 0 -90.5 7t-58.5 11l-473 791v-791q-89 -18 -162 -18t-164 18zM279 1763q39 45 98.5 77.5t137.5 32.5 q40 0 75.5 -11.5t73.5 -25.5q35 -13 72.5 -24.5t78.5 -11.5q40 0 71.5 11.5t73.5 51.5q33 -34 56 -81t38 -95q-36 -47 -97 -78.5t-133 -31.5q-44 0 -84.5 12.5t-77.5 24.5q-38 14 -73.5 25t-71.5 11q-41 0 -74.5 -12t-69.5 -51q-33 35 -56.5 81.5t-37.5 94.5z" />
<glyph unicode="&#xd2;" horiz-adv-x="1441" d="M83 724q0 162 37.5 301t115.5 240t198.5 159t287.5 58q166 0 286 -58t197.5 -159t115 -240t37.5 -301q0 -163 -37.5 -299.5t-115 -237t-197.5 -156.5t-286 -56q-167 0 -287.5 56t-198.5 156.5t-115.5 237t-37.5 299.5zM363 1832q37 6 86.5 9t101.5 3q108 0 186 -12 l218 -249q-35 -8 -72.5 -10t-75.5 -2q-88 0 -148 12zM460 724q0 -221 64 -329.5t198 -108.5q259 0 259 438q0 441 -257 442q-264 0 -264 -442z" />
<glyph unicode="&#xd3;" horiz-adv-x="1441" d="M83 724q0 162 37.5 301t115.5 240t198.5 159t287.5 58q166 0 286 -58t197.5 -159t115 -240t37.5 -301q0 -163 -37.5 -299.5t-115 -237t-197.5 -156.5t-286 -56q-167 0 -287.5 56t-198.5 156.5t-115.5 237t-37.5 299.5zM460 724q0 -221 64 -329.5t198 -108.5 q259 0 259 438q0 441 -257 442q-264 0 -264 -442zM596 1583q35 -8 72.5 -10t75.5 -2q88 0 148 12l296 249q-37 6 -86.5 9t-101.5 3q-108 0 -186 -12z" />
<glyph unicode="&#xd4;" horiz-adv-x="1441" d="M83 724q0 162 37.5 301t115.5 240t198.5 159t287.5 58q166 0 286 -58t197.5 -159t115 -240t37.5 -301q0 -163 -37.5 -299.5t-115 -237t-197.5 -156.5t-286 -56q-167 0 -287.5 56t-198.5 156.5t-115.5 237t-37.5 299.5zM319 1583l258 249q32 6 74.5 8t69.5 2t69 -2t75 -8 l257 -249q-27 -8 -67.5 -11t-79.5 -3t-77.5 2t-77.5 12l-99 97l-100 -97q-39 -10 -77.5 -12t-75.5 -2q-41 0 -81.5 3t-67.5 11zM460 724q0 -221 64 -329.5t198 -108.5q259 0 259 438q0 441 -257 442q-264 0 -264 -442z" />
<glyph unicode="&#xd5;" horiz-adv-x="1441" d="M83 724q0 162 37.5 301t115.5 240t198.5 159t287.5 58q166 0 286 -58t197.5 -159t115 -240t37.5 -301q0 -163 -37.5 -299.5t-115 -237t-197.5 -156.5t-286 -56q-167 0 -287.5 56t-198.5 156.5t-115.5 237t-37.5 299.5zM333 1763q39 45 98.5 77.5t137.5 32.5 q40 0 75.5 -11.5t73.5 -25.5q35 -13 72.5 -24.5t78.5 -11.5q40 0 71.5 11.5t73.5 51.5q33 -34 56 -81t38 -95q-36 -47 -97 -78.5t-133 -31.5q-44 0 -84.5 12.5t-77.5 24.5q-38 14 -73.5 25t-71.5 11q-41 0 -74.5 -12t-69.5 -51q-33 35 -56.5 81.5t-37.5 94.5zM460 724 q0 -221 64 -329.5t198 -108.5q259 0 259 438q0 441 -257 442q-264 0 -264 -442z" />
<glyph unicode="&#xd6;" horiz-adv-x="1441" d="M83 724q0 162 37.5 301t115.5 240t198.5 159t287.5 58q166 0 286 -58t197.5 -159t115 -240t37.5 -301q0 -163 -37.5 -299.5t-115 -237t-197.5 -156.5t-286 -56q-167 0 -287.5 56t-198.5 156.5t-115.5 237t-37.5 299.5zM339 1705q0 60 13 122q30 5 70.5 8t68.5 3 q29 0 69.5 -3t72.5 -8q12 -61 13 -122q0 -61 -13 -122q-33 -6 -73 -9t-69 -3q-28 0 -68.5 3t-70.5 9q-13 61 -13 122zM460 724q0 -221 64 -329.5t198 -108.5q259 0 259 438q0 441 -257 442q-264 0 -264 -442zM795 1705q0 60 13 122q31 5 71 8t69 3q28 0 68.5 -3t72.5 -8 q12 -61 13 -122q0 -61 -13 -122q-32 -6 -72.5 -9t-68.5 -3q-29 0 -69.5 3t-70.5 9q-13 61 -13 122z" />
<glyph unicode="&#xd8;" horiz-adv-x="1473" d="M83 0l157 211q-72 97 -104.5 227.5t-32.5 285.5q0 162 37.5 301t116 240t199 159t286.5 58q112 0 203.5 -27t161.5 -76l59 79q14 4 41.5 6t61.5 2q35 0 67 -2t55 -6l-154 -207q71 -101 106.5 -235t35.5 -292q0 -163 -37.5 -299.5t-116 -237t-197.5 -156.5t-286 -56 q-226 0 -373 106l-61 -81q-14 -4 -41 -6t-62 -2t-67.5 2t-54.5 6zM480 724q0 -97 13 -173l409 552q-62 62 -158 63q-264 -1 -264 -442zM572 354q63 -69 170 -68q260 0 260 438q0 101 -17 189z" />
<glyph unicode="&#xd9;" horiz-adv-x="1341" d="M114 625v828q58 8 100.5 11.5t81.5 3.5q35 0 76.5 -3t99.5 -12v-786q0 -101 8.5 -172t30 -115.5t59.5 -64t101 -19.5t102.5 19.5t60.5 64t28.5 115t7.5 172.5v786q61 8 102.5 11.5t75.5 3.5q37 0 79.5 -3t101.5 -12v-828q0 -151 -25.5 -270t-88.5 -203.5t-171 -129.5 t-273 -45q-164 0 -272.5 45t-171.5 129.5t-88 203.5t-25 270zM253 1832q37 6 86.5 9t101.5 3q108 0 186 -12l218 -249q-35 -8 -72.5 -10t-75.5 -2q-88 0 -148 12z" />
<glyph unicode="&#xda;" horiz-adv-x="1341" d="M114 625v828q58 8 100.5 11.5t81.5 3.5q35 0 76.5 -3t99.5 -12v-786q0 -101 8.5 -172t30 -115.5t59.5 -64t101 -19.5t102.5 19.5t60.5 64t28.5 115t7.5 172.5v786q61 8 102.5 11.5t75.5 3.5q37 0 79.5 -3t101.5 -12v-828q0 -151 -25.5 -270t-88.5 -203.5t-171 -129.5 t-273 -45q-164 0 -272.5 45t-171.5 129.5t-88 203.5t-25 270zM547 1583q35 -8 72.5 -10t75.5 -2q88 0 148 12l296 249q-37 6 -86.5 9t-101.5 3q-108 0 -186 -12z" />
<glyph unicode="&#xdb;" horiz-adv-x="1341" d="M114 625v828q58 8 100.5 11.5t81.5 3.5q35 0 76.5 -3t99.5 -12v-786q0 -101 8.5 -172t30 -115.5t59.5 -64t101 -19.5t102.5 19.5t60.5 64t28.5 115t7.5 172.5v786q61 8 102.5 11.5t75.5 3.5q37 0 79.5 -3t101.5 -12v-828q0 -151 -25.5 -270t-88.5 -203.5t-171 -129.5 t-273 -45q-164 0 -272.5 45t-171.5 129.5t-88 203.5t-25 270zM269 1583l258 249q32 6 74.5 8t69.5 2t69 -2t75 -8l257 -249q-27 -8 -67.5 -11t-79.5 -3t-77.5 2t-77.5 12l-99 97l-100 -97q-39 -10 -77.5 -12t-75.5 -2q-41 0 -81.5 3t-67.5 11z" />
<glyph unicode="&#xdc;" horiz-adv-x="1341" d="M114 625v828q58 8 100.5 11.5t81.5 3.5q35 0 76.5 -3t99.5 -12v-786q0 -101 8.5 -172t30 -115.5t59.5 -64t101 -19.5t102.5 19.5t60.5 64t28.5 115t7.5 172.5v786q61 8 102.5 11.5t75.5 3.5q37 0 79.5 -3t101.5 -12v-828q0 -151 -25.5 -270t-88.5 -203.5t-171 -129.5 t-273 -45q-164 0 -272.5 45t-171.5 129.5t-88 203.5t-25 270zM289 1705q0 60 13 122q30 5 70.5 8t68.5 3q29 0 69.5 -3t72.5 -8q12 -61 13 -122q0 -61 -13 -122q-33 -6 -73 -9t-69 -3q-28 0 -68.5 3t-70.5 9q-13 61 -13 122zM745 1705q0 60 13 122q31 5 71 8t69 3 q28 0 68.5 -3t72.5 -8q12 -61 13 -122q0 -61 -13 -122q-32 -6 -72.5 -9t-68.5 -3q-29 0 -69.5 3t-70.5 9q-13 61 -13 122z" />
<glyph unicode="&#xdd;" horiz-adv-x="1260" d="M0 1453q35 6 93.5 11.5t111.5 5.5q43 0 94 -5t90 -12l250 -563l239 563q47 8 97.5 12.5t103.5 4.5q35 0 89.5 -5t92.5 -12l-452 -930v-517q-108 -18 -178 -18q-76 0 -181 18v517q-52 110 -110 228.5l-116 237t-115 237t-109 227.5zM515 1583q35 -8 72.5 -10t75.5 -2 q88 0 148 12l296 249q-37 6 -86.5 9t-101.5 3q-108 0 -186 -12z" />
<glyph unicode="&#xde;" horiz-adv-x="1189" d="M122 6v1445q105 18 178 19q69 0 176 -19v-202h58q99 0 203.5 -18t190.5 -73t141 -154.5t55 -261.5q0 -143 -45 -238.5t-119 -154.5t-169.5 -83t-196.5 -24q-29 0 -65 3t-53 6v-245q-108 -18 -176 -18q-73 0 -178 18zM476 545q10 -3 33 -5t48 -2q87 0 142 48.5t55 151.5 q0 60 -17 101t-47.5 65.5t-71 34t-84.5 9.5h-26.5t-31.5 -2v-401z" />
<glyph unicode="&#xdf;" horiz-adv-x="1905" d="M49 39q9 137 75 280q65 -31 136 -46.5t142 -15.5q25 0 50.5 2t46 9.5t33.5 19.5t13 33q0 26 -26 39t-61 23l-137 39q-108 30 -179 103t-71 199q0 79 32.5 144t91 110.5t139 69.5t177.5 24q77 0 168 -16t180 -46q-4 -66 -26 -139.5t-50 -129.5q-54 22 -131.5 40t-142.5 18 q-95 0 -95 -53q0 -22 22 -34t51 -21l132 -34q60 -15 109.5 -39t85 -60.5t56 -89t20.5 -127.5q0 -78 -31 -144.5t-93 -115t-152.5 -77.5t-207.5 -29q-97 0 -180.5 14.5t-176.5 49.5zM1002 39q9 137 75 280q65 -31 136 -46.5t142 -15.5q25 0 50.5 2t46 9.5t33.5 19.5t13 33 q0 26 -26 39t-61 23l-137 39q-108 30 -179 103t-71 199q0 79 32.5 144t91 110.5t139 69.5t177.5 24q77 0 168 -16t180 -46q-4 -66 -26 -139.5t-50 -129.5q-54 22 -131.5 40t-142.5 18q-95 0 -95 -53q0 -22 22 -34t51 -21l132 -34q60 -15 109.5 -39t85 -60.5t56 -89 t20.5 -127.5q0 -78 -31 -144.5t-93 -115t-152.5 -77.5t-207.5 -29q-97 0 -180.5 14.5t-176.5 49.5z" />
<glyph unicode="&#xe0;" horiz-adv-x="1060" d="M60 343q0 99 43 164t110 103t148 53.5t158 15.5h124q-2 37 -20.5 61t-47 37.5t-63 18.5t-70.5 5q-49 0 -114 -11.5t-133 -35.5q-18 35 -31.5 63t-20.5 57.5t-10 61t-3 72.5q97 32 193.5 48t173.5 16q105 0 190 -25t145 -77.5t92.5 -135t32.5 -195.5v-594 q-77 -23 -186.5 -45.5t-230.5 -22.5q-105 0 -194 19.5t-151.5 62t-98.5 113t-36 171.5zM154 1437q37 6 86.5 9t101.5 3q108 0 186 -12l218 -249q-35 -8 -72.5 -10t-75.5 -2q-88 0 -148 12zM358 348q0 -40 18.5 -63.5t46 -35t59 -16t58.5 -4.5q17 0 52 4.5t51 8.5v222h-116 q-72 0 -120.5 -30t-48.5 -86z" />
<glyph unicode="&#xe1;" horiz-adv-x="1060" d="M60 343q0 99 43 164t110 103t148 53.5t158 15.5h124q-2 37 -20.5 61t-47 37.5t-63 18.5t-70.5 5q-49 0 -114 -11.5t-133 -35.5q-18 35 -31.5 63t-20.5 57.5t-10 61t-3 72.5q97 32 193.5 48t173.5 16q105 0 190 -25t145 -77.5t92.5 -135t32.5 -195.5v-594 q-77 -23 -186.5 -45.5t-230.5 -22.5q-105 0 -194 19.5t-151.5 62t-98.5 113t-36 171.5zM358 348q0 -40 18.5 -63.5t46 -35t59 -16t58.5 -4.5q17 0 52 4.5t51 8.5v222h-116q-72 0 -120.5 -30t-48.5 -86zM362 1188q35 -8 72.5 -10t75.5 -2q88 0 148 12l296 249q-37 6 -86.5 9 t-101.5 3q-108 0 -186 -12z" />
<glyph unicode="&#xe2;" horiz-adv-x="1060" d="M60 343q0 99 43 164t110 103t148 53.5t158 15.5h124q-2 37 -20.5 61t-47 37.5t-63 18.5t-70.5 5q-49 0 -114 -11.5t-133 -35.5q-18 35 -31.5 63t-20.5 57.5t-10 61t-3 72.5q97 32 193.5 48t173.5 16q105 0 190 -25t145 -77.5t92.5 -135t32.5 -195.5v-594 q-77 -23 -186.5 -45.5t-230.5 -22.5q-105 0 -194 19.5t-151.5 62t-98.5 113t-36 171.5zM112 1188l258 249q32 6 74.5 8t69.5 2t69 -2t75 -8l257 -249q-27 -8 -67.5 -11t-79.5 -3t-77.5 2t-77.5 12l-99 97l-100 -97q-39 -10 -77.5 -12t-75.5 -2q-41 0 -81.5 3t-67.5 11z M358 348q0 -40 18.5 -63.5t46 -35t59 -16t58.5 -4.5q17 0 52 4.5t51 8.5v222h-116q-72 0 -120.5 -30t-48.5 -86z" />
<glyph unicode="&#xe3;" horiz-adv-x="1060" d="M60 343q0 99 43 164t110 103t148 53.5t158 15.5h124q-2 37 -20.5 61t-47 37.5t-63 18.5t-70.5 5q-49 0 -114 -11.5t-133 -35.5q-18 35 -31.5 63t-20.5 57.5t-10 61t-3 72.5q97 32 193.5 48t173.5 16q105 0 190 -25t145 -77.5t92.5 -135t32.5 -195.5v-594 q-77 -23 -186.5 -45.5t-230.5 -22.5q-105 0 -194 19.5t-151.5 62t-98.5 113t-36 171.5zM132 1368q39 45 98.5 77.5t137.5 32.5q40 0 75.5 -11.5t73.5 -25.5q35 -13 72.5 -24.5t78.5 -11.5q40 0 71.5 11.5t73.5 51.5q33 -34 56 -81t38 -95q-36 -47 -97 -78.5t-133 -31.5 q-44 0 -84.5 12.5t-77.5 24.5q-38 14 -73.5 25t-71.5 11q-41 0 -74.5 -12t-69.5 -51q-33 35 -56.5 81.5t-37.5 94.5zM358 348q0 -40 18.5 -63.5t46 -35t59 -16t58.5 -4.5q17 0 52 4.5t51 8.5v222h-116q-72 0 -120.5 -30t-48.5 -86z" />
<glyph unicode="&#xe4;" horiz-adv-x="1060" d="M60 343q0 99 43 164t110 103t148 53.5t158 15.5h124q-2 37 -20.5 61t-47 37.5t-63 18.5t-70.5 5q-49 0 -114 -11.5t-133 -35.5q-18 35 -31.5 63t-20.5 57.5t-10 61t-3 72.5q97 32 193.5 48t173.5 16q105 0 190 -25t145 -77.5t92.5 -135t32.5 -195.5v-594 q-77 -23 -186.5 -45.5t-230.5 -22.5q-105 0 -194 19.5t-151.5 62t-98.5 113t-36 171.5zM148 1310q0 60 13 122q30 5 70.5 8t68.5 3q29 0 69.5 -3t72.5 -8q12 -61 13 -122q0 -61 -13 -122q-33 -6 -73 -9t-69 -3q-28 0 -68.5 3t-70.5 9q-13 61 -13 122zM358 348 q0 -40 18.5 -63.5t46 -35t59 -16t58.5 -4.5q17 0 52 4.5t51 8.5v222h-116q-72 0 -120.5 -30t-48.5 -86zM604 1310q0 60 13 122q31 5 71 8t69 3q28 0 68.5 -3t72.5 -8q12 -61 13 -122q0 -61 -13 -122q-32 -6 -72.5 -9t-68.5 -3q-29 0 -69.5 3t-70.5 9q-13 61 -13 122z" />
<glyph unicode="&#xe5;" horiz-adv-x="1060" d="M60 343q0 99 43 164t110 103t148 53.5t158 15.5h124q-2 37 -20.5 61t-47 37.5t-63 18.5t-70.5 5q-49 0 -114 -11.5t-133 -35.5q-18 35 -31.5 63t-20.5 57.5t-10 61t-3 72.5q97 32 193.5 48t173.5 16q105 0 190 -25t145 -77.5t92.5 -135t32.5 -195.5v-594 q-77 -23 -186.5 -45.5t-230.5 -22.5q-105 0 -194 19.5t-151.5 62t-98.5 113t-36 171.5zM296 1389q0 110 72.5 170.5t180.5 60.5t181 -61t73 -170q0 -110 -73.5 -171t-180.5 -61q-108 0 -180.5 61t-72.5 171zM358 348q0 -40 18.5 -63.5t46 -35t59 -16t58.5 -4.5q17 0 52 4.5 t51 8.5v222h-116q-72 0 -120.5 -30t-48.5 -86zM447 1389q0 -45 29 -73.5t73 -28.5q43 0 72 28.5t29 73.5q0 43 -29 72t-72 29q-44 0 -73 -28t-29 -73z" />
<glyph unicode="&#xe6;" horiz-adv-x="1643" d="M60 339q0 99 43 162.5t110 101.5t148 52t158 14h124q0 41 -17.5 67t-47 40.5t-65 19.5t-71.5 5q-49 0 -114 -11.5t-133 -35.5q-18 35 -31.5 63t-20.5 57.5t-10 61t-3 72.5q97 32 193.5 48t173.5 16q101 0 183 -23t141 -72q60 45 139 70t176 25q107 0 191 -36t143 -100 t90.5 -154.5t31.5 -195.5q0 -54 -4.5 -88t-8.5 -62h-622q16 -95 78 -134t151 -39q58 0 131.5 14.5t144.5 43.5q29 -53 50 -126t22 -152q-180 -68 -368 -68q-120 0 -193 22.5t-122 47.5q-52 -29 -134 -48.5t-192 -19.5q-101 0 -185.5 18.5t-147 61t-97.5 112t-35 170.5z M358 345q0 -41 18.5 -63.5t46 -34t59 -15t58.5 -3.5q44 0 78.5 8.5t46.5 13.5q-22 53 -33 102t-13 101h-92q-72 0 -120.5 -27.5t-48.5 -81.5zM957 655h324q-8 72 -45 116t-112 44q-66 0 -110.5 -38.5t-56.5 -121.5z" />
<glyph unicode="&#xe7;" horiz-adv-x="954" d="M62 523q0 121 35 222.5t101.5 173.5t164 112.5t223.5 40.5q43 0 81.5 -2t75.5 -8t76.5 -18t89.5 -30q4 -70 -12.5 -137.5t-51.5 -132.5q-34 12 -61.5 19t-51.5 11t-47.5 5t-49.5 1q-97 0 -161 -57.5t-64 -199.5q0 -76 19 -125.5t50.5 -77.5t73 -40.5t88.5 -12.5 q58 0 102 10.5t102 32.5q35 -55 55.5 -122.5t20.5 -154.5q-93 -37 -170.5 -47.5t-154.5 -10.5q-130 0 -229.5 38.5t-167 111t-102.5 172.5t-35 226zM241 -462q0 22 10 63t32 72q39 -12 70.5 -16.5t70.5 -4.5q52 0 72.5 18t20.5 42q0 25 -20.5 39.5t-60.5 14.5q-20 0 -45 -3 t-75 -18l-41 40l171 267h170l-99 -153q112 -4 174.5 -52t62.5 -125q0 -105 -88.5 -159t-237.5 -54q-47 0 -97 6.5t-90 22.5z" />
<glyph unicode="&#xe8;" horiz-adv-x="1089" d="M62 517q0 116 33 217.5t97.5 176t162 118t227.5 43.5q108 0 191.5 -36t142.5 -100t91 -154.5t32 -195.5q0 -54 -5.5 -97.5t-9.5 -72.5h-616q23 -83 78.5 -118t146.5 -35q58 0 131.5 14.5t144.5 43.5q29 -53 49.5 -126t22.5 -152q-180 -68 -369 -68q-146 0 -250.5 40.5 t-170 113t-97.5 171.5t-32 217zM189 1437q37 6 86.5 9t101.5 3q108 0 186 -12l218 -249q-35 -8 -72.5 -10t-75.5 -2q-88 0 -148 12zM404 648h324q-4 72 -44 119.5t-115 47.5q-65 0 -111 -40.5t-54 -126.5z" />
<glyph unicode="&#xe9;" horiz-adv-x="1089" d="M62 517q0 116 33 217.5t97.5 176t162 118t227.5 43.5q108 0 191.5 -36t142.5 -100t91 -154.5t32 -195.5q0 -54 -5.5 -97.5t-9.5 -72.5h-616q23 -83 78.5 -118t146.5 -35q58 0 131.5 14.5t144.5 43.5q29 -53 49.5 -126t22.5 -152q-180 -68 -369 -68q-146 0 -250.5 40.5 t-170 113t-97.5 171.5t-32 217zM404 648h324q-4 72 -44 119.5t-115 47.5q-65 0 -111 -40.5t-54 -126.5zM434 1188q35 -8 72.5 -10t75.5 -2q88 0 148 12l296 249q-37 6 -86.5 9t-101.5 3q-108 0 -186 -12z" />
<glyph unicode="&#xea;" horiz-adv-x="1089" d="M62 517q0 116 33 217.5t97.5 176t162 118t227.5 43.5q108 0 191.5 -36t142.5 -100t91 -154.5t32 -195.5q0 -54 -5.5 -97.5t-9.5 -72.5h-616q23 -83 78.5 -118t146.5 -35q58 0 131.5 14.5t144.5 43.5q29 -53 49.5 -126t22.5 -152q-180 -68 -369 -68q-146 0 -250.5 40.5 t-170 113t-97.5 171.5t-32 217zM178 1188l258 249q32 6 74.5 8t69.5 2t69 -2t75 -8l257 -249q-27 -8 -67.5 -11t-79.5 -3t-77.5 2t-77.5 12l-99 97l-100 -97q-39 -10 -77.5 -12t-75.5 -2q-41 0 -81.5 3t-67.5 11zM404 648h324q-4 72 -44 119.5t-115 47.5q-65 0 -111 -40.5 t-54 -126.5z" />
<glyph unicode="&#xeb;" horiz-adv-x="1089" d="M62 517q0 116 33 217.5t97.5 176t162 118t227.5 43.5q108 0 191.5 -36t142.5 -100t91 -154.5t32 -195.5q0 -54 -5.5 -97.5t-9.5 -72.5h-616q23 -83 78.5 -118t146.5 -35q58 0 131.5 14.5t144.5 43.5q29 -53 49.5 -126t22.5 -152q-180 -68 -369 -68q-146 0 -250.5 40.5 t-170 113t-97.5 171.5t-32 217zM202 1310q0 60 13 122q30 5 70.5 8t68.5 3q29 0 69.5 -3t72.5 -8q12 -61 13 -122q0 -61 -13 -122q-33 -6 -73 -9t-69 -3q-28 0 -68.5 3t-70.5 9q-13 61 -13 122zM404 648h324q-4 72 -44 119.5t-115 47.5q-65 0 -111 -40.5t-54 -126.5z M658 1310q0 60 13 122q31 5 71 8t69 3q28 0 68.5 -3t72.5 -8q12 -61 13 -122q0 -61 -13 -122q-32 -6 -72.5 -9t-68.5 -3q-29 0 -69.5 3t-70.5 9q-13 61 -13 122z" />
<glyph unicode="&#xec;" horiz-adv-x="577" d="M-101 1437q37 6 86.5 9t101.5 3q108 0 186 -12l218 -249q-35 -8 -72.5 -10t-75.5 -2q-88 0 -148 12zM118 2v1046q44 10 88 14t84 4q39 0 83.5 -4t86.5 -14v-1046q-52 -8 -94.5 -12t-77.5 -4t-77.5 4t-92.5 12z" />
<glyph unicode="&#xed;" horiz-adv-x="577" d="M118 2v1046q44 10 88 14t84 4q39 0 83.5 -4t86.5 -14v-1046q-52 -8 -94.5 -12t-77.5 -4t-77.5 4t-92.5 12zM150 1188q35 -8 72.5 -10t75.5 -2q88 0 148 12l296 249q-37 6 -86.5 9t-101.5 3q-108 0 -186 -12z" />
<glyph unicode="&#xee;" horiz-adv-x="577" d="M-112 1188l258 249q32 6 74.5 8t69.5 2t69 -2t75 -8l257 -249q-27 -8 -67.5 -11t-79.5 -3t-77.5 2t-77.5 12l-99 97l-100 -97q-39 -10 -77.5 -12t-75.5 -2q-41 0 -81.5 3t-67.5 11zM118 2v1046q44 10 88 14t84 4q39 0 83.5 -4t86.5 -14v-1046q-52 -8 -94.5 -12t-77.5 -4 t-77.5 4t-92.5 12z" />
<glyph unicode="&#xef;" horiz-adv-x="577" d="M-92 1310q0 60 13 122q30 5 70.5 8t68.5 3q29 0 69.5 -3t72.5 -8q12 -61 13 -122q0 -61 -13 -122q-33 -6 -73 -9t-69 -3q-28 0 -68.5 3t-70.5 9q-13 61 -13 122zM118 2v1046q44 10 88 14t84 4q39 0 83.5 -4t86.5 -14v-1046q-52 -8 -94.5 -12t-77.5 -4t-77.5 4t-92.5 12z M364 1310q0 60 13 122q31 5 71 8t69 3q28 0 68.5 -3t72.5 -8q12 -61 13 -122q0 -61 -13 -122q-32 -6 -72.5 -9t-68.5 -3q-29 0 -69.5 3t-70.5 9q-13 61 -13 122z" />
<glyph unicode="&#xf0;" horiz-adv-x="1151" d="M6 540q0 15 2 41.5t12 51.5h94v411q85 10 180 19t178 9q165 0 281.5 -38t191.5 -108.5t109.5 -169.5t34.5 -220q0 -128 -35.5 -231.5t-112 -177t-196.5 -113t-291 -39.5q-99 0 -177 7.5t-163 19.5v443h-94q-10 24 -12 50t-2 45zM456 265q8 0 21.5 -2t39.5 -2 q114 0 169.5 64t55.5 211q0 129 -54.5 189t-155.5 60q-25 0 -45.5 -2.5t-30.5 -4.5v-145h124q10 -25 12 -51.5t2 -41.5q0 -18 -2 -45t-12 -50h-124v-180z" />
<glyph unicode="&#xf1;" horiz-adv-x="1145" d="M114 2v996q71 25 172 47.5t254 22.5q89 0 178 -14.5t161 -64t117.5 -140.5t45.5 -241v-606q-52 -10 -95 -13t-75 -3q-34 0 -77 3t-95 13v570q0 108 -40.5 154t-123.5 46q-23 0 -48.5 -4t-31.5 -8v-758q-52 -10 -94.5 -13t-75.5 -3q-35 0 -77.5 3t-94.5 13zM180 1368 q39 45 98.5 77.5t137.5 32.5q40 0 75.5 -11.5t73.5 -25.5q35 -13 72.5 -24.5t78.5 -11.5q40 0 71.5 11.5t73.5 51.5q33 -34 56 -81t38 -95q-36 -47 -97 -78.5t-133 -31.5q-44 0 -84.5 12.5t-77.5 24.5q-38 14 -73.5 25t-71.5 11q-41 0 -74.5 -12t-69.5 -51 q-33 35 -56.5 81.5t-37.5 94.5z" />
<glyph unicode="&#xf2;" horiz-adv-x="1169" d="M62 519q0 124 34 226t99.5 175.5t163 112.5t225.5 39q130 0 227.5 -39t163 -112.5t99 -175.5t33.5 -226q0 -122 -33.5 -222t-99 -172.5t-163 -111t-227.5 -38.5q-128 0 -225.5 38.5t-163 111t-99.5 172.5t-34 222zM207 1437q37 6 86.5 9t101.5 3q108 0 186 -12l218 -249 q-35 -8 -72.5 -10t-75.5 -2q-88 0 -148 12zM410 519q0 -128 42.5 -197t131.5 -69t132.5 69t43.5 197q0 129 -43.5 198.5t-132.5 69.5t-131.5 -69.5t-42.5 -198.5z" />
<glyph unicode="&#xf3;" horiz-adv-x="1169" d="M62 519q0 124 34 226t99.5 175.5t163 112.5t225.5 39q130 0 227.5 -39t163 -112.5t99 -175.5t33.5 -226q0 -122 -33.5 -222t-99 -172.5t-163 -111t-227.5 -38.5q-128 0 -225.5 38.5t-163 111t-99.5 172.5t-34 222zM410 519q0 -128 42.5 -197t131.5 -69t132.5 69t43.5 197 q0 129 -43.5 198.5t-132.5 69.5t-131.5 -69.5t-42.5 -198.5zM434 1188q35 -8 72.5 -10t75.5 -2q88 0 148 12l296 249q-37 6 -86.5 9t-101.5 3q-108 0 -186 -12z" />
<glyph unicode="&#xf4;" horiz-adv-x="1169" d="M62 519q0 124 34 226t99.5 175.5t163 112.5t225.5 39q130 0 227.5 -39t163 -112.5t99 -175.5t33.5 -226q0 -122 -33.5 -222t-99 -172.5t-163 -111t-227.5 -38.5q-128 0 -225.5 38.5t-163 111t-99.5 172.5t-34 222zM182 1188l258 249q32 6 74.5 8t69.5 2t69 -2t75 -8 l257 -249q-27 -8 -67.5 -11t-79.5 -3t-77.5 2t-77.5 12l-99 97l-100 -97q-39 -10 -77.5 -12t-75.5 -2q-41 0 -81.5 3t-67.5 11zM410 519q0 -128 42.5 -197t131.5 -69t132.5 69t43.5 197q0 129 -43.5 198.5t-132.5 69.5t-131.5 -69.5t-42.5 -198.5z" />
<glyph unicode="&#xf5;" horiz-adv-x="1169" d="M62 519q0 124 34 226t99.5 175.5t163 112.5t225.5 39q130 0 227.5 -39t163 -112.5t99 -175.5t33.5 -226q0 -122 -33.5 -222t-99 -172.5t-163 -111t-227.5 -38.5q-128 0 -225.5 38.5t-163 111t-99.5 172.5t-34 222zM196 1368q39 45 98.5 77.5t137.5 32.5q40 0 75.5 -11.5 t73.5 -25.5q35 -13 72.5 -24.5t78.5 -11.5q40 0 71.5 11.5t73.5 51.5q33 -34 56 -81t38 -95q-36 -47 -97 -78.5t-133 -31.5q-44 0 -84.5 12.5t-77.5 24.5q-38 14 -73.5 25t-71.5 11q-41 0 -74.5 -12t-69.5 -51q-33 35 -56.5 81.5t-37.5 94.5zM410 519q0 -128 42.5 -197 t131.5 -69t132.5 69t43.5 197q0 129 -43.5 198.5t-132.5 69.5t-131.5 -69.5t-42.5 -198.5z" />
<glyph unicode="&#xf6;" horiz-adv-x="1169" d="M62 519q0 124 34 226t99.5 175.5t163 112.5t225.5 39q130 0 227.5 -39t163 -112.5t99 -175.5t33.5 -226q0 -122 -33.5 -222t-99 -172.5t-163 -111t-227.5 -38.5q-128 0 -225.5 38.5t-163 111t-99.5 172.5t-34 222zM202 1310q0 60 13 122q30 5 70.5 8t68.5 3q29 0 69.5 -3 t72.5 -8q12 -61 13 -122q0 -61 -13 -122q-33 -6 -73 -9t-69 -3q-28 0 -68.5 3t-70.5 9q-13 61 -13 122zM410 519q0 -128 42.5 -197t131.5 -69t132.5 69t43.5 197q0 129 -43.5 198.5t-132.5 69.5t-131.5 -69.5t-42.5 -198.5zM658 1310q0 60 13 122q31 5 71 8t69 3 q28 0 68.5 -3t72.5 -8q12 -61 13 -122q0 -61 -13 -122q-32 -6 -72.5 -9t-68.5 -3q-29 0 -69.5 3t-70.5 9q-13 61 -13 122z" />
<glyph unicode="&#xf7;" horiz-adv-x="1173" d="M130 744q0 35 4 70t10 76h884q8 -41 12 -75.5t4 -68.5t-3.5 -69.5t-12.5 -76.5h-884q-6 41 -10 74.5t-4 69.5zM402 1157q0 78 54.5 132.5t131.5 54.5t131.5 -54.5t54.5 -132.5q0 -77 -54.5 -131.5t-131.5 -54.5t-131.5 54.5t-54.5 131.5zM404 333q0 77 54.5 131.5 t131.5 54.5t131.5 -54.5t54.5 -131.5q0 -78 -54.5 -132.5t-131.5 -54.5t-131.5 54.5t-54.5 132.5z" />
<glyph unicode="&#xf8;" horiz-adv-x="1169" d="M60 0l116 144q-116 139 -116 375q0 124 34 226t99.5 175.5t163 112.5t225.5 39q87 0 159 -17.5t131 -52.5l39 46q32 6 101 6q34 0 59.5 -2t35.5 -4l-120 -148q118 -146 118 -381q0 -122 -33 -222t-99.5 -172.5t-163.5 -111t-227 -38.5q-168 0 -288 70l-37 -45 q-34 -6 -101 -6q-34 0 -59.5 2t-36.5 4zM399 519q0 -51 7 -93l277 342q-44 33 -101 33q-93 0 -138 -73.5t-45 -208.5zM478 271q39 -32 104 -31q93 0 138.5 72.5t45.5 206.5q0 58 -8 100z" />
<glyph unicode="&#xf9;" horiz-adv-x="1145" d="M103 456v592q45 10 89 14t84 4q39 0 83.5 -4t86.5 -14v-564q0 -122 40.5 -166.5t123.5 -44.5q34 0 52.5 2.5t26.5 4.5v768q45 10 88.5 14t83.5 4q39 0 83.5 -4t87.5 -14v-999q-35 -12 -82.5 -24.5t-101 -23.5t-110.5 -17.5t-111 -6.5q-103 0 -198.5 16.5t-168 66.5 t-115 144t-42.5 252zM179 1437q37 6 86.5 9t101.5 3q108 0 186 -12l218 -249q-35 -8 -72.5 -10t-75.5 -2q-88 0 -148 12z" />
<glyph unicode="&#xfa;" horiz-adv-x="1145" d="M103 456v592q45 10 89 14t84 4q39 0 83.5 -4t86.5 -14v-564q0 -122 40.5 -166.5t123.5 -44.5q34 0 52.5 2.5t26.5 4.5v768q45 10 88.5 14t83.5 4q39 0 83.5 -4t87.5 -14v-999q-35 -12 -82.5 -24.5t-101 -23.5t-110.5 -17.5t-111 -6.5q-103 0 -198.5 16.5t-168 66.5 t-115 144t-42.5 252zM419 1188q35 -8 72.5 -10t75.5 -2q88 0 148 12l296 249q-37 6 -86.5 9t-101.5 3q-108 0 -186 -12z" />
<glyph unicode="&#xfb;" horiz-adv-x="1145" d="M103 456v592q45 10 89 14t84 4q39 0 83.5 -4t86.5 -14v-564q0 -122 40.5 -166.5t123.5 -44.5q34 0 52.5 2.5t26.5 4.5v768q45 10 88.5 14t83.5 4q39 0 83.5 -4t87.5 -14v-999q-35 -12 -82.5 -24.5t-101 -23.5t-110.5 -17.5t-111 -6.5q-103 0 -198.5 16.5t-168 66.5 t-115 144t-42.5 252zM166 1188l258 249q32 6 74.5 8t69.5 2t69 -2t75 -8l257 -249q-27 -8 -67.5 -11t-79.5 -3t-77.5 2t-77.5 12l-99 97l-100 -97q-39 -10 -77.5 -12t-75.5 -2q-41 0 -81.5 3t-67.5 11z" />
<glyph unicode="&#xfc;" horiz-adv-x="1145" d="M103 456v592q45 10 89 14t84 4q39 0 83.5 -4t86.5 -14v-564q0 -122 40.5 -166.5t123.5 -44.5q34 0 52.5 2.5t26.5 4.5v768q45 10 88.5 14t83.5 4q39 0 83.5 -4t87.5 -14v-999q-35 -12 -82.5 -24.5t-101 -23.5t-110.5 -17.5t-111 -6.5q-103 0 -198.5 16.5t-168 66.5 t-115 144t-42.5 252zM186 1310q0 60 13 122q30 5 70.5 8t68.5 3q29 0 69.5 -3t72.5 -8q12 -61 13 -122q0 -61 -13 -122q-33 -6 -73 -9t-69 -3q-28 0 -68.5 3t-70.5 9q-13 61 -13 122zM642 1310q0 60 13 122q31 5 71 8t69 3q28 0 68.5 -3t72.5 -8q12 -61 13 -122 q0 -61 -13 -122q-32 -6 -72.5 -9t-68.5 -3q-29 0 -69.5 3t-70.5 9q-13 61 -13 122z" />
<glyph unicode="&#xfd;" horiz-adv-x="1143" d="M10 1048q23 4 78.5 8t122.5 4q52 0 103 -4t67 -8l199 -400l198 400q16 4 62 8t99 4q67 0 119.5 -4t75.5 -8l-392 -679v-367q-52 -8 -95 -12t-78 -4q-34 0 -76.5 4t-93.5 12v367zM421 1188q35 -8 72.5 -10t75.5 -2q88 0 148 12l296 249q-37 6 -86.5 9t-101.5 3 q-108 0 -186 -12z" />
<glyph unicode="&#xfe;" horiz-adv-x="1045" d="M114 2v1192q52 10 92 13.5t74 3.5q33 0 74 -3t94 -14v-162h47q93 0 182 -17t160.5 -63t115 -126t43.5 -207q0 -116 -39.5 -195t-104.5 -127.5t-147 -70t-167 -21.5q-35 0 -59.5 2t-30.5 4v-209q-52 -10 -94 -13t-74 -3q-34 0 -74 3t-92 13zM448 466q10 -2 25.5 -3 t25.5 -1q71 0 116.5 36t45.5 121q0 73 -46 112t-112 39h-23.5t-31.5 -2v-302z" />
<glyph unicode="&#xff;" horiz-adv-x="1143" d="M10 1048q23 4 78.5 8t122.5 4q52 0 103 -4t67 -8l199 -400l198 400q16 4 62 8t99 4q67 0 119.5 -4t75.5 -8l-392 -679v-367q-52 -8 -95 -12t-78 -4q-34 0 -76.5 4t-93.5 12v367zM190 1310q0 60 13 122q30 5 70.5 8t68.5 3q29 0 69.5 -3t72.5 -8q12 -61 13 -122 q0 -61 -13 -122q-33 -6 -73 -9t-69 -3q-28 0 -68.5 3t-70.5 9q-13 61 -13 122zM646 1310q0 60 13 122q31 5 71 8t69 3q28 0 68.5 -3t72.5 -8q12 -61 13 -122q0 -61 -13 -122q-32 -6 -72.5 -9t-68.5 -3q-29 0 -69.5 3t-70.5 9q-13 61 -13 122z" />
<glyph unicode="&#x152;" horiz-adv-x="1846" d="M83 726q0 162 41.5 300t124 239t206 159t287.5 58q53 0 115 -5t114 -19h785q18 -85 18 -156q0 -35 -4 -75.5t-14 -83.5h-501v-222h397q10 -47 13.5 -85.5t3.5 -73.5q0 -34 -3.5 -74t-13.5 -86h-397v-288h515q8 -43 12 -81t4 -73q0 -34 -4 -75.5t-12 -84.5h-791 q-52 -12 -121 -18.5t-116 -6.5q-164 0 -287.5 57t-206 157.5t-124 237t-41.5 299.5zM460 726q0 -221 74 -334.5t208 -113.5q55 0 91.5 4t66.5 14v861q-29 8 -66 12.5t-90 4.5q-133 0 -208.5 -115t-75.5 -333z" />
<glyph unicode="&#x153;" horiz-adv-x="1776" d="M62 519q0 124 34 226t99.5 175.5t163 112.5t225.5 39q112 0 204 -46.5t143 -116.5q19 31 51 60t74.5 52t97.5 37t123 14q207 0 327 -128.5t120 -357.5q0 -54 -5 -97.5t-10 -72.5h-616q23 -83 78.5 -118t146.5 -35q58 0 131.5 14.5t144.5 43.5q29 -53 49.5 -126t22.5 -152 q-180 -68 -368 -68q-124 0 -223.5 47t-149.5 114q-55 -72 -144.5 -116.5t-211.5 -44.5t-216 38.5t-158.5 111t-98.5 172.5t-34 222zM410 519q0 -128 42.5 -197t131.5 -69t132.5 69t43.5 197q0 129 -43.5 198.5t-132.5 69.5t-131.5 -69.5t-42.5 -198.5zM1089 648h324 q-4 74 -43 120.5t-115 46.5q-65 0 -110.5 -40.5t-55.5 -126.5z" />
<glyph unicode="&#x178;" horiz-adv-x="1260" d="M0 1453q35 6 93.5 11.5t111.5 5.5q43 0 94 -5t90 -12l250 -563l239 563q47 8 97.5 12.5t103.5 4.5q35 0 89.5 -5t92.5 -12l-452 -930v-517q-108 -18 -178 -18q-76 0 -181 18v517q-52 110 -110 228.5l-116 237t-115 237t-109 227.5zM249 1705q0 60 13 122q30 5 70.5 8 t68.5 3q29 0 69.5 -3t72.5 -8q12 -61 13 -122q0 -61 -13 -122q-33 -6 -73 -9t-69 -3q-28 0 -68.5 3t-70.5 9q-13 61 -13 122zM705 1705q0 60 13 122q31 5 71 8t69 3q28 0 68.5 -3t72.5 -8q12 -61 13 -122q0 -61 -13 -122q-32 -6 -72.5 -9t-68.5 -3q-29 0 -69.5 3t-70.5 9 q-13 61 -13 122z" />
<glyph unicode="&#x192;" horiz-adv-x="1213" d="M95 -225q4 81 17.5 150t37.5 133q16 -4 46.5 -11.5t70.5 -7.5q57 0 86.5 24t39.5 105l59 507h-156q-10 47 -12 79.5t-2 62.5q0 28 2 58.5t12 77.5h188l13 93q27 197 128 304.5t292 107.5q60 0 106.5 -6.5t112.5 -23.5q-4 -82 -18.5 -150.5t-36.5 -134.5q-16 4 -53 12.5 t-69 8.5q-48 0 -80 -24.5t-41 -105.5l-10 -81h198q10 -46 12 -77t2 -59q0 -31 -1.5 -63t-12.5 -79h-231l-61 -521q-23 -197 -127 -304t-293 -107q-61 0 -107.5 6.5t-111.5 25.5z" />
<glyph unicode="&#x2c6;" d="M85 1188l258 249q32 6 74.5 8t69.5 2t69 -2t75 -8l257 -249q-27 -8 -67.5 -11t-79.5 -3t-77.5 2t-77.5 12l-99 97l-100 -97q-39 -10 -77.5 -12t-75.5 -2q-41 0 -81.5 3t-67.5 11z" />
<glyph unicode="&#x2c7;" d="M85 1434q27 7 67.5 10t81.5 3q38 0 76 -2t77 -11l100 -98l99 98q39 9 77.5 11t77.5 2q40 0 80 -3t67 -10l-257 -250q-33 -6 -75 -8t-69 -2t-69.5 2t-74.5 8z" />
<glyph unicode="&#x2d8;" d="M99 1436q25 5 62.5 8t78.5 3q38 0 70.5 -4t62.5 -9q2 -47 29 -73t85 -26t84.5 26t28.5 73q31 5 63 9t71 4q40 0 77.5 -3t62.5 -8q-8 -84 -46.5 -136.5t-93.5 -82t-120 -40.5t-127 -11t-127.5 11t-120.5 40.5t-93 82t-47 136.5z" />
<glyph unicode="&#x2d9;" d="M329 1318q0 32 5 63.5t11 65.5q30 6 70.5 9.5t68.5 3.5q29 0 69.5 -3.5t73.5 -9.5q6 -34 11 -64.5t5 -64.5q0 -35 -5 -65t-11 -65q-33 -6 -73.5 -9t-69.5 -3t-69 3t-70 9q-6 35 -11 66t-5 64z" />
<glyph unicode="&#x2da;" d="M234 1389q0 110 72.5 170.5t180.5 60.5t181 -61t73 -170q0 -110 -73.5 -171t-180.5 -61q-108 0 -180.5 61t-72.5 171zM385 1389q0 -45 29 -73.5t73 -28.5q43 0 72 28.5t29 73.5q0 43 -29 72t-72 29q-44 0 -73 -28t-29 -73z" />
<glyph unicode="&#x2db;" d="M240 -280q0 97 68.5 186.5t196.5 145.5h229q-103 -60 -172 -126t-69 -151q0 -48 28 -67.5t67 -19.5q25 0 49 6t34 10q25 -33 36 -78.5t11 -85.5q-31 -12 -84.5 -21.5t-118.5 -9.5q-53 0 -101.5 10.5t-88 34.5t-62.5 64.5t-23 101.5z" />
<glyph unicode="&#x2dc;" d="M99 1368q39 45 98.5 77.5t137.5 32.5q40 0 75.5 -11.5t73.5 -25.5q35 -13 72.5 -24.5t78.5 -11.5q40 0 71.5 11.5t73.5 51.5q33 -34 56 -81t38 -95q-36 -47 -97 -78.5t-133 -31.5q-44 0 -84.5 12.5t-77.5 24.5q-38 14 -73.5 25t-71.5 11q-41 0 -74.5 -12t-69.5 -51 q-33 35 -56.5 81.5t-37.5 94.5z" />
<glyph unicode="&#x2dd;" d="M-12 1188l237 249q44 8 84.5 10t79.5 2q83 0 156 -12l-278 -249q-19 -4 -58 -8t-81 -4q-74 0 -140 12zM426 1188l235 249q47 8 87.5 10t79.5 2q79 0 155 -12l-277 -249q-23 -4 -60.5 -8t-82.5 -4q-75 0 -137 12z" />
<glyph unicode="&#x3a9;" horiz-adv-x="1503" d="M91 152q0 33 3 67t11 85h144q-24 39 -47.5 88.5t-42.5 110t-31 130t-12 145.5q0 153 40.5 277.5t120 213.5t198.5 137.5t277 48.5q159 0 277 -48.5t198.5 -137.5t121 -213.5t40.5 -277.5q0 -77 -12.5 -146t-31.5 -129.5t-42.5 -110t-47.5 -88.5h144q8 -51 11 -88.5 t3 -69.5q0 -31 -2 -62.5t-12 -83.5h-571l-23 54l29 45q22 37 53.5 98.5t59.5 147t47.5 192.5t19.5 235q0 197 -67 282t-195 85q-127 0 -194 -85t-67 -282q0 -128 19.5 -235t47.5 -192.5t59 -147t54 -98.5l29 -45l-23 -54h-572q-10 52 -12 87t-2 65z" />
<glyph unicode="&#x3c0;" horiz-adv-x="1560" d="M60 931q53 48 130 82.5t209 34.5h1019q8 -46 11 -77t3 -58q0 -29 -3 -66.5t-11 -86.5h-191v-334q0 -93 16 -121.5t65 -28.5q23 0 60 7t69 15q18 -45 27.5 -89.5t9.5 -105.5q0 -31 -2 -53.5t-4 -33.5q-54 -12 -109 -20t-106 -8q-191 0 -280 89t-89 290v393h-193v-758 q-52 -8 -95 -12t-77 -4q-35 0 -77.5 4t-93.5 12v772q-30 -4 -59.5 -16t-53.5 -27t-42.5 -31.5t-26.5 -28.5q-28 45 -47.5 82.5t-29.5 61.5q-8 25 -15 50t-14 66z" />
<glyph unicode="&#x2000;" horiz-adv-x="936" />
<glyph unicode="&#x2001;" horiz-adv-x="1873" />
<glyph unicode="&#x2002;" horiz-adv-x="936" />
<glyph unicode="&#x2003;" horiz-adv-x="1873" />
<glyph unicode="&#x2004;" horiz-adv-x="624" />
<glyph unicode="&#x2005;" horiz-adv-x="468" />
<glyph unicode="&#x2006;" horiz-adv-x="312" />
<glyph unicode="&#x2007;" horiz-adv-x="312" />
<glyph unicode="&#x2008;" horiz-adv-x="234" />
<glyph unicode="&#x2009;" horiz-adv-x="374" />
<glyph unicode="&#x200a;" horiz-adv-x="104" />
<glyph unicode="&#x2010;" horiz-adv-x="747" d="M85 553q0 70 18 155h543q10 -43 13.5 -80.5t3.5 -72.5q0 -34 -3 -72t-14 -81h-543q-18 84 -18 151z" />
<glyph unicode="&#x2011;" horiz-adv-x="747" d="M85 553q0 70 18 155h543q10 -43 13.5 -80.5t3.5 -72.5q0 -34 -3 -72t-14 -81h-543q-18 84 -18 151z" />
<glyph unicode="&#x2012;" horiz-adv-x="747" d="M85 553q0 70 18 155h543q10 -43 13.5 -80.5t3.5 -72.5q0 -34 -3 -72t-14 -81h-543q-18 84 -18 151z" />
<glyph unicode="&#x2013;" horiz-adv-x="1013" d="M-12 553q0 35 4 72.5t12 82.5h1006q10 -45 13 -81.5t3 -71.5q0 -34 -3 -71.5t-13 -81.5h-1006q-8 44 -12 80.5t-4 70.5z" />
<glyph unicode="&#x2014;" horiz-adv-x="2027" d="M-12 553q0 35 4 72.5t12 82.5h2020q9 -45 12 -81.5t3 -71.5q0 -34 -3 -71.5t-12 -81.5h-2020q-8 44 -12 80.5t-4 70.5z" />
<glyph unicode="&#x2018;" horiz-adv-x="640" d="M81 1453q53 10 100.5 13.5t81.5 3.5q33 0 72.5 -3t84.5 -14l139 -540q-30 -6 -75.5 -11.5t-88.5 -5.5q-37 0 -76 3t-83 14z" />
<glyph unicode="&#x2019;" horiz-adv-x="640" d="M81 913l140 540q44 10 84 13.5t72 3.5q35 0 82.5 -3t99.5 -14l-153 -540q-45 -10 -84.5 -13.5t-75.5 -3.5q-43 0 -88.5 5t-76.5 12z" />
<glyph unicode="&#x201a;" horiz-adv-x="640" d="M81 -251l140 541q44 10 84 13t72 3q35 0 82.5 -3t99.5 -13l-153 -541q-45 -10 -84.5 -13t-75.5 -3q-43 0 -88.5 5t-76.5 11z" />
<glyph unicode="&#x201c;" horiz-adv-x="1106" d="M81 1453q53 10 100.5 13.5t81.5 3.5q33 0 72.5 -3t84.5 -14l139 -540q-30 -6 -75.5 -11.5t-88.5 -5.5q-37 0 -76 3t-83 14zM547 1453q53 10 100.5 13.5t81.5 3.5q33 0 72.5 -3t84.5 -14l139 -540q-30 -6 -75.5 -11.5t-88.5 -5.5q-37 0 -76 3t-83 14z" />
<glyph unicode="&#x201d;" horiz-adv-x="1104" d="M81 913l140 540q44 10 84 13.5t72 3.5q35 0 82.5 -3t99.5 -14l-153 -540q-45 -10 -84.5 -13.5t-75.5 -3.5q-43 0 -88.5 5t-76.5 12zM545 913l140 540q44 10 84 13.5t72 3.5q35 0 82.5 -3t99.5 -14l-153 -540q-45 -10 -84.5 -13.5t-75.5 -3.5q-43 0 -88.5 5t-76.5 12z" />
<glyph unicode="&#x201e;" horiz-adv-x="1104" d="M81 -251l140 541q44 10 84 13t72 3q35 0 82.5 -3t99.5 -13l-153 -541q-45 -10 -84.5 -13t-75.5 -3q-43 0 -88.5 5t-76.5 11zM545 -251l140 541q44 10 84 13t72 3q35 0 82.5 -3t99.5 -13l-153 -541q-45 -10 -84.5 -13t-75.5 -3q-43 0 -88.5 5t-76.5 11z" />
<glyph unicode="&#x2020;" horiz-adv-x="1118" d="M81 799q0 35 3 73.5t13 80.5h296v500q43 8 84.5 12.5t79.5 4.5q76 0 169 -17v-500h294q18 -85 19 -152q0 -71 -19 -157h-294v-996q-93 -16 -169 -17q-38 0 -79.5 4t-84.5 13v996h-296q-10 43 -13 81.5t-3 73.5z" />
<glyph unicode="&#x2021;" horiz-adv-x="1118" d="M81 302q0 35 3 73.5t13 80.5h296v302h-296q-10 43 -13 81.5t-3 73.5q0 34 3 72.5t13 80.5h296v387q43 8 84.5 12.5t79.5 4.5q76 0 169 -17v-387h294q18 -85 19 -151q0 -72 -19 -157h-294v-302h294q18 -85 19 -152q0 -71 -19 -156h-294v-500q-93 -16 -169 -17 q-38 0 -79.5 4t-84.5 13v500h-296q-10 43 -13 81t-3 73z" />
<glyph unicode="&#x2022;" horiz-adv-x="952" d="M132 744q0 72 27 134t74 109t110 74.5t133 27.5q71 0 134 -27.5t109.5 -74.5t74 -109.5t27.5 -133.5t-27.5 -134t-74 -109.5t-109.5 -74t-134 -27.5t-133.5 27.5t-109.5 74t-74 109.5t-27 134z" />
<glyph unicode="&#x2026;" horiz-adv-x="1881" d="M112 176q0 41 4 83.5t12 88.5q46 6 88.5 10.5t83.5 4.5t83.5 -4.5t88.5 -10.5q8 -46 12.5 -88.5t4.5 -83.5q0 -40 -4.5 -83t-12.5 -89q-46 -8 -88.5 -12t-83.5 -4t-83.5 4t-88.5 12q-8 46 -12 89t-4 83zM753 176q0 41 4 83.5t12 88.5q46 6 88.5 10.5t83.5 4.5t83.5 -4.5 t88.5 -10.5q8 -46 12.5 -88.5t4.5 -83.5q0 -40 -4.5 -83t-12.5 -89q-46 -8 -88.5 -12t-83.5 -4t-83.5 4t-88.5 12q-8 46 -12 89t-4 83zM1393 176q0 41 4 83.5t12 88.5q46 6 88.5 10.5t83.5 4.5t83.5 -4.5t88.5 -10.5q8 -46 12.5 -88.5t4.5 -83.5q0 -40 -4.5 -83t-12.5 -89 q-46 -8 -88.5 -12t-83.5 -4t-83.5 4t-88.5 12q-8 46 -12 89t-4 83z" />
<glyph unicode="&#x202f;" horiz-adv-x="374" />
<glyph unicode="&#x2030;" horiz-adv-x="2960" d="M67 1024q0 83 23.5 161t71 139t120 97.5t174.5 36.5q99 0 172.5 -36.5t122 -97.5t71.5 -139t23 -161q0 -84 -23 -161.5t-71.5 -138.5t-122 -97.5t-172.5 -36.5q-101 0 -174 36.5t-120.5 97.5t-71 138.5t-23.5 161.5zM345 1024q0 -91 26 -148t85 -57t85 57t26 148 q0 93 -26 148t-85 55q-58 0 -84.5 -55t-26.5 -148zM457 4l837 1433q35 6 74 9t76 3q33 0 69.5 -1t90.5 -11l-837 -1433q-35 -6 -74.5 -9t-75.5 -3q-32 0 -69 1t-91 11zM1214 412q0 83 23.5 161t71 139t120 97.5t174.5 36.5q99 0 172.5 -36.5t122 -97.5t71.5 -139t23 -161 q0 -84 -23 -161.5t-71.5 -138.5t-122 -97.5t-172.5 -36.5q-101 0 -174 36.5t-120.5 97.5t-71 138.5t-23.5 161.5zM1492 412q0 -91 26 -148t85 -57t85 57t26 148q0 93 -26 148t-85 55q-58 0 -84.5 -55t-26.5 -148zM2114 412q0 83 23.5 161t71 139t120 97.5t174.5 36.5 q99 0 172.5 -36.5t122 -97.5t71.5 -139t23 -161q0 -84 -23 -161.5t-71.5 -138.5t-122 -97.5t-172.5 -36.5q-101 0 -174 36.5t-120.5 97.5t-71 138.5t-23.5 161.5zM2392 412q0 -91 26 -148t85 -57t85 57t26 148q0 93 -26 148t-85 55q-58 0 -84.5 -55t-26.5 -148z" />
<glyph unicode="&#x2039;" horiz-adv-x="782" d="M60 540l317 449q31 8 76.5 13.5t93.5 5.5q97 0 194 -19l-313 -449l313 -451q-96 -18 -194 -18q-48 0 -93.5 5t-76.5 13z" />
<glyph unicode="&#x203a;" horiz-adv-x="782" d="M43 89l311 451l-311 449q93 18 193 19q48 0 93.5 -5t76.5 -14l316 -449l-316 -451q-31 -8 -76.5 -13t-93.5 -5q-99 0 -193 18z" />
<glyph unicode="&#x2044;" horiz-adv-x="194" d="M-476 4l837 1433q35 6 74 9t76 3q33 0 69.5 -1t90.5 -11l-837 -1433q-35 -6 -74.5 -9t-75.5 -3q-32 0 -69 1t-91 11z" />
<glyph unicode="&#x205f;" horiz-adv-x="468" />
<glyph unicode="&#x20ac;" horiz-adv-x="1240" d="M52 542q0 56 10 91h155q-2 17 -2 35.5v39.5v66h-153q-10 31 -10 89q0 57 10 92h178q22 112 68 204t119.5 159t173 103.5t229.5 36.5q48 0 91.5 -3.5t88 -11t91 -22t99.5 -34.5q-4 -83 -28.5 -158.5t-52.5 -127.5q-81 29 -137.5 39.5t-122.5 10.5q-105 0 -163.5 -49.5 t-87.5 -146.5h369q10 -34 10 -92t-10 -89h-395v-66v-40t2 -35h393q10 -35 10 -91q0 -59 -10 -90h-365q29 -87 90.5 -128.5t171.5 -41.5q67 0 132.5 13t131.5 36q34 -74 53.5 -142.5t29.5 -143.5q-116 -43 -203 -56.5t-184 -13.5q-134 0 -234.5 34t-174 96.5t-119 151 t-66.5 195.5h-178q-10 31 -10 90z" />
<glyph unicode="&#x2122;" horiz-adv-x="944" d="M4 1418q0 36 6 66h329l4 -32t2 -34q0 -16 -2 -34t-4 -32h-91v-286q-35 -6 -74 -6q-40 0 -73 6v286h-91q-6 27 -6 66zM399 1066l17 414q23 4 41.5 6t35.5 2q29 0 66 -8l78 -190l75 190q38 8 66 8q16 0 36 -2t41 -6l17 -414q-34 -6 -75 -6q-37 0 -69 6v187l-69 -152 q-26 -4 -47 0l-68 152v-187q-35 -6 -74 -6q-38 0 -71 6z" />
<glyph unicode="&#x2202;" horiz-adv-x="1213" d="M62 464q0 122 42 213t109 152t149.5 91.5t164.5 30.5q101 0 159 -23.5t82 -39.5q-23 134 -91.5 208t-183.5 74q-65 0 -128 -18t-117 -47q-45 65 -68.5 129t-29.5 120q68 43 161 73.5t225 30.5q168 0 281.5 -65t181 -171.5t97.5 -242.5t30 -277q0 -379 -150 -553 t-425 -174q-85 0 -171 25t-157 82.5t-116 151t-45 230.5zM399 462q0 -95 46 -149t131 -54q59 0 97.5 26.5t61.5 74.5t34 115t14 148q-46 24 -98 36t-93 12q-95 0 -144 -59t-49 -150z" />
<glyph unicode="&#x2206;" horiz-adv-x="1290" d="M4 0l460 1432q53 5 96.5 9t87.5 4q41 0 83.5 -4t102.5 -9l453 -1432h-1283zM440 304h390q-29 97 -51.5 177t-43.5 157.5t-43.5 158.5t-50.5 182q-53 -172 -100.5 -334.5t-100.5 -340.5z" />
<glyph unicode="&#x220f;" horiz-adv-x="1509" d="M31 1304q0 69 18 154h1415q8 -42 12 -81t4 -73q0 -35 -4 -74.5t-12 -82.5h-162v-1503q-108 -18 -178 -19q-76 0 -182 19v1503h-370v-1503q-108 -18 -179 -19q-75 0 -180 19v1503h-164q-18 86 -18 157z" />
<glyph unicode="&#x2211;" horiz-adv-x="1145" d="M31 -304l451 898l-428 803l35 61h1010q8 -44 12 -83t4 -73q0 -67 -16 -161h-513l271 -535l-315 -649h541q8 -44 12 -82.5t4 -73.5q0 -67 -16 -159h-1016z" />
<glyph unicode="&#x221a;" horiz-adv-x="1186" d="M67 706q0 35 3 71t13 78h436l118 -445q32 116 70.5 246.5t77 263t76 262.5t70.5 246q36 6 80.5 8.5t81.5 2.5q35 0 81.5 -2.5t98.5 -12.5l-466 -1424q-37 -4 -73 -8t-103 -4q-57 0 -97.5 4t-77.5 8l-193 555h-180q-10 43 -13 79.5t-3 71.5z" />
<glyph unicode="&#x221e;" horiz-adv-x="1538" d="M81 545q0 86 27.5 157.5t74 124.5t111 82.5t142.5 29.5q85 0 170 -45t168 -144q85 95 164.5 139t164.5 44q75 0 141 -29.5t112.5 -81.5t74 -123.5t27.5 -156.5q0 -86 -27.5 -158t-74 -124.5t-112.5 -82t-141 -29.5q-85 0 -171.5 43t-169.5 144q-83 -93 -162 -137 t-164 -44q-78 0 -142.5 29.5t-111 81t-74 123.5t-27.5 157zM345 545q0 -52 27 -84.5t62 -32.5q34 0 69 23t93 96q-56 70 -92 93t-68 23q-37 0 -64 -31.5t-27 -86.5zM940 540q55 -72 90.5 -94t70.5 -22q38 0 65.5 31.5t27.5 86.5q0 52 -27.5 84.5t-63.5 32.5q-35 0 -69 -24.5 t-94 -94.5z" />
<glyph unicode="&#x222b;" horiz-adv-x="776" d="M-60 -476q4 85 16.5 153t37.5 132q12 -4 44.5 -11t73.5 -7q52 0 91 28.5t35 103.5l-39 1119q-4 108 26 186t86 129.5t135 77t173 25.5q60 0 106.5 -7.5t112.5 -24.5q-4 -82 -16 -147.5t-37 -131.5q-16 4 -55 11.5t-71 7.5q-50 0 -86.5 -25.5t-32.5 -102.5l38 -1127 q4 -110 -31.5 -187.5t-98.5 -129.5t-145 -76.5t-169 -24.5q-74 0 -121.5 9t-72.5 20z" />
<glyph unicode="&#x2248;" horiz-adv-x="1173" d="M118 536q48 57 125.5 99t174.5 42q46 0 89 -12.5t87 -28.5q39 -12 77.5 -24t79.5 -12q17 0 33.5 3t36 12t41.5 24t51 42q52 -51 88 -111.5t53 -118.5q-50 -58 -127 -97.5t-174 -39.5q-49 0 -94.5 12t-90.5 28q-40 12 -76.5 23.5t-71.5 11.5q-18 0 -35.5 -2t-35.5 -10.5 t-39.5 -24.5t-51.5 -42q-49 50 -86.5 108t-53.5 118zM118 981q48 57 125.5 99t174.5 42q46 0 89 -12.5t87 -28.5q39 -12 77.5 -24t79.5 -12q17 0 33.5 3t36 12t41.5 24t51 42q52 -51 88 -111.5t53 -118.5q-50 -58 -127 -97.5t-174 -39.5q-49 0 -94.5 12t-90.5 28 q-40 12 -76.5 23.5t-71.5 11.5q-18 0 -35.5 -2t-35.5 -10.5t-39.5 -24.5t-51.5 -42q-49 50 -86.5 108t-53.5 118z" />
<glyph unicode="&#x2260;" horiz-adv-x="1173" d="M130 495q0 35 4 70t10 76h302l69 148h-371q-6 41 -10 74t-4 70q0 34 4 70t10 76h506l86 184q15 8 46 12t61 4q27 0 55.5 -3t49.5 -13l-85 -184h165q8 -40 12 -75t4 -69q0 -35 -3.5 -70t-12.5 -76h-300l-69 -148h369q8 -41 12 -75t4 -69t-3.5 -70.5t-12.5 -76.5h-503 l-87 -186q-16 -8 -46.5 -12t-60.5 -4q-27 0 -55 3t-51 13l87 186h-168q-6 41 -10 74.5t-4 70.5z" />
<glyph unicode="&#x2264;" horiz-adv-x="1173" d="M130 122q0 34 4 69.5t10 75.5h884q8 -40 12 -74.5t4 -68.5q0 -35 -3.5 -70.5t-12.5 -76.5h-884q-6 41 -10 74.5t-4 70.5zM148 836q0 75 20 147l842 333q8 -35 12 -86.5t4 -80.5q0 -34 -1 -68.5t-11 -74.5l-527 -176l527 -167q10 -40 11 -77t1 -71q0 -14 -1 -36.5 t-3 -46.5t-5 -47.5t-7 -41.5l-842 332q-20 83 -20 161z" />
<glyph unicode="&#x2265;" horiz-adv-x="1173" d="M130 126q0 -35 3.5 -70.5t12.5 -75.5h884q6 41 10 74t4 70q0 34 -4 69.5t-10 75.5h-884q-8 -40 -12 -74.5t-4 -68.5zM152 513q0 -14 1 -36t3 -46.5t5 -47.5t7 -42l842 342q20 83 20 161q0 75 -20 148l-842 343q-8 -35 -12 -87t-4 -80q0 -34 1 -69t11 -75l527 -186 l-527 -176q-10 -41 -11 -77.5t-1 -71.5z" />
<glyph unicode="&#x25ca;" horiz-adv-x="1177" d="M60 732l370 726q48 8 92.5 10t71.5 2q33 0 74.5 -2t83.5 -13l365 -723l-369 -728q-50 -10 -94 -12t-72 -2q-31 0 -72.5 3t-83.5 13zM410 732l184 -416l184 416l-184 409z" />
<glyph unicode="&#xe000;" horiz-adv-x="1064" d="M0 0v1064h1064v-1064h-1064z" />
<glyph unicode="&#xfb01;" horiz-adv-x="1503" d="M114 4v1044h774q10 -40 13 -74.5t3 -67.5t-3 -68t-13 -76h-432v-162h349q10 -41 13 -75t3 -67q0 -32 -3 -68t-13 -76h-349v-310q-42 -10 -86.5 -13t-83.5 -3q-40 0 -84 3t-88 13zM1049 2v1046q44 10 88 14t84 4q39 0 83.5 -4t86.5 -14v-1046q-52 -8 -94.5 -12t-77.5 -4 t-77.5 4t-92.5 12z" />
<glyph unicode="&#xfb02;" horiz-adv-x="1820" d="M114 4v1044h774q10 -40 13 -74.5t3 -67.5t-3 -68t-13 -76h-432v-162h349q10 -41 13 -75t3 -67q0 -32 -3 -68t-13 -76h-349v-310q-42 -10 -86.5 -13t-83.5 -3q-40 0 -84 3t-88 13zM1049 0l2 1048q44 10 88 14t84 4q39 0 83.5 -4t86.5 -14l-2 -762h384q9 -40 12 -75t3 -67 q0 -33 -3 -68t-12 -76h-726z" />
</font>
</defs>
</svg>
